<svg width="944" height="882" viewBox="0 0 944 882" fill="none" xmlns="http://www.w3.org/2000/svg">
<path d="M305.841 728.275C300.49 728.275 295.544 731.126 292.862 735.757L221.678 858.652C215.886 868.652 223.101 881.17 234.658 881.17H719.492C731.049 881.17 738.264 868.652 732.472 858.652L661.289 735.757C658.606 731.126 653.66 728.275 648.309 728.275H305.841Z" fill="#EF3F3F"/>
<path d="M853.511 525.341C902.931 505.456 926.883 449.269 906.996 399.85C887.111 350.435 830.923 326.498 781.506 346.38C732.083 366.265 708.13 422.457 728.021 471.878C747.909 521.291 804.096 545.224 853.511 525.341Z" fill="url(#paint0_linear_83_320)"/>
<path d="M65.6184 489.699C101.85 529.117 163.176 531.703 202.599 495.477C242.032 459.241 244.618 397.896 208.373 358.471C172.14 319.06 110.819 316.477 71.3992 352.7C31.9687 388.933 29.3798 450.273 65.6184 489.699Z" fill="url(#paint1_linear_83_320)"/>
<g filter="url(#filter0_d_83_320)">
<path d="M816.009 662.527C708.084 823.479 267.083 830.795 144.523 662.527C21.9637 492.43 247.595 164.804 478.08 172.12C708.566 181.266 922.106 503.404 816.009 662.527Z" fill="url(#paint2_linear_83_320)"/>
</g>
<path d="M465.721 72.1191C465.721 69.3577 467.959 67.1191 470.721 67.1191H489.849C492.61 67.1191 494.849 69.3577 494.849 72.1191V189.399C494.849 192.16 492.61 194.399 489.849 194.399H470.721C467.959 194.399 465.721 192.16 465.721 189.399V72.1191Z" fill="#A80C00"/>
<rect x="522" y="411" width="224.113" height="223.123" rx="111.562" fill="white"/>
<path d="M742.979 505.153C742.979 463.801 710.02 431 668.489 431C627.623 431 594 464.465 594 505.153C594 545.842 627.623 579.306 668.489 579.306C710.02 579.306 742.979 545.842 742.979 505.153Z" fill="black"/>
<rect x="211" y="411" width="224.113" height="223.123" rx="111.562" fill="white"/>
<path d="M430.979 505.153C430.979 463.801 398.02 431 356.489 431C315.623 431 282 464.465 282 505.153C282 545.842 315.623 579.306 356.489 579.306C398.02 579.306 430.979 545.842 430.979 505.153Z" fill="black"/>
<path d="M529.131 650.028C494.2 660.532 455.969 659.869 421.683 648.056C415.103 646.085 410.475 638.861 412.467 631.656C414.439 625.096 421.683 620.488 428.946 622.46C459.25 632.964 491.564 633.609 522.532 624.432C539.011 619.844 545.611 644.776 529.131 650.028Z" fill="black"/>
<path d="M367.868 319.241C375.112 319.904 381.047 312.681 381.047 306.12C381.047 298.897 375.112 293.645 367.868 293C329.637 289.72 291.406 298.252 257.12 315.961C241.968 323.848 255.148 346.809 270.3 338.94C300.622 323.185 334.245 316.624 367.868 319.241ZM689.529 338.94C704.681 346.809 717.861 324.493 702.709 315.961C669.087 298.252 630.192 289.72 592.625 293C585.381 293.645 579.445 298.897 579.445 306.12C579.445 312.681 585.381 319.904 592.625 319.241C626.248 316.624 659.87 323.185 689.529 338.94Z" fill="black"/>
<g filter="url(#filter1_d_83_320)">
<path d="M439.988 113.071C460.211 135.076 494.444 136.521 516.45 116.299C538.461 96.0717 539.903 61.8283 519.67 39.823C499.445 17.8274 465.219 16.3871 443.217 36.6051C421.21 56.8285 419.763 91.0648 439.988 113.071Z" fill="url(#paint3_linear_83_320)"/>
</g>
<defs>
<filter id="filter0_d_83_320" x="46" y="112" width="862" height="742" filterUnits="userSpaceOnUse" color-interpolation-filters="sRGB">
<feFlood flood-opacity="0" result="BackgroundImageFix"/>
<feColorMatrix in="SourceAlpha" type="matrix" values="0 0 0 0 0 0 0 0 0 0 0 0 0 0 0 0 0 0 127 0" result="hardAlpha"/>
<feOffset dy="4"/>
<feGaussianBlur stdDeviation="32"/>
<feComposite in2="hardAlpha" operator="out"/>
<feColorMatrix type="matrix" values="0 0 0 0 0 0 0 0 0 0 0 0 0 0 0 0 0 0 0.25 0"/>
<feBlend mode="normal" in2="BackgroundImageFix" result="effect1_dropShadow_83_320"/>
<feBlend mode="normal" in="SourceGraphic" in2="effect1_dropShadow_83_320" result="shape"/>
</filter>
<filter id="filter1_d_83_320" x="421.717" y="22.3359" width="116.232" height="116.232" filterUnits="userSpaceOnUse" color-interpolation-filters="sRGB">
<feFlood flood-opacity="0" result="BackgroundImageFix"/>
<feColorMatrix in="SourceAlpha" type="matrix" values="0 0 0 0 0 0 0 0 0 0 0 0 0 0 0 0 0 0 127 0" result="hardAlpha"/>
<feOffset dy="4"/>
<feGaussianBlur stdDeviation="2"/>
<feComposite in2="hardAlpha" operator="out"/>
<feColorMatrix type="matrix" values="0 0 0 0 0 0 0 0 0 0 0 0 0 0 0 0 0 0 0.25 0"/>
<feBlend mode="normal" in2="BackgroundImageFix" result="effect1_dropShadow_83_320"/>
<feBlend mode="normal" in="SourceGraphic" in2="effect1_dropShadow_83_320" result="shape"/>
</filter>
<linearGradient id="paint0_linear_83_320" x1="890.5" y1="375.5" x2="759.5" y2="479" gradientUnits="userSpaceOnUse">
<stop stop-color="#950A00"/>
<stop offset="1" stop-color="#FA6666"/>
</linearGradient>
<linearGradient id="paint1_linear_83_320" x1="74.5" y1="348.5" x2="200.5" y2="491.5" gradientUnits="userSpaceOnUse">
<stop stop-color="#FE6B6B"/>
<stop offset="1" stop-color="#AC1105"/>
</linearGradient>
<linearGradient id="paint2_linear_83_320" x1="844" y1="556" x2="110" y2="547.5" gradientUnits="userSpaceOnUse">
<stop stop-color="#FF6C6C"/>
<stop offset="1" stop-color="#A80C00"/>
</linearGradient>
<linearGradient id="paint3_linear_83_320" x1="524.317" y1="39.6792" x2="444.498" y2="102.746" gradientUnits="userSpaceOnUse">
<stop stop-color="#950A00"/>
<stop offset="1" stop-color="#FA6666"/>
</linearGradient>
</defs>
</svg>
