<svg width="1430" height="1454" viewBox="0 0 1430 1454" fill="none" xmlns="http://www.w3.org/2000/svg">
    <path
        d="M1185.91 1132.41C1188.01 1131.3 1189.33 1130.55 1190.71 1129.86C1192.23 1129.14 1194.32 1128.24 1195.69 1127.6C1191.15 1123.47 1185.4 1118.12 1180.2 1114.2C1180.05 1115.14 1182.01 1121.09 1182.77 1123.33C1183.79 1126.23 1184.81 1129.21 1185.91 1132.41ZM1175.97 1114.72C1172.61 1121.02 1171.88 1127.19 1169.53 1132.87C1169.07 1133.95 1169.06 1135.21 1168.75 1136.87C1173.5 1135.51 1177.68 1134.3 1182.12 1133.01C1180.56 1126.78 1178.47 1121.11 1175.97 1114.72ZM1202.84 1128.46C1203.5 1126.28 1204.32 1124.35 1205.24 1122.55C1206.1 1120.88 1207.75 1118.85 1209.01 1117.82C1201.37 1115.69 1190.75 1112.59 1183.2 1110.52C1182.75 1110.39 1182.29 1110.63 1183.38 1111.93C1189.4 1118.12 1196.08 1123.04 1202.84 1128.46ZM1123.57 1102.6C1135.45 1102.67 1151.05 1102.28 1164.65 1103.75C1160.77 1101.64 1155.79 1100.36 1154.2 1099.84C1144.88 1096.88 1135.91 1093.02 1126.05 1090.28C1125.18 1094.7 1124.38 1098.63 1123.57 1102.6ZM1171.32 1113.27C1165.62 1116.24 1151.77 1128.99 1147.58 1134.97C1150.33 1135.4 1152.98 1135.69 1155.55 1136.27C1158.15 1136.82 1160.68 1137.66 1163.19 1138.35C1165.72 1133.75 1169.93 1120.91 1171.32 1113.27ZM1139.79 1136.24C1148.13 1128.41 1157.36 1119.88 1166.26 1111.54C1164.32 1111.62 1162.34 1112.36 1161.66 1112.62C1151.37 1116.79 1141.04 1120.82 1130.8 1125.83C1133.92 1129.45 1136.68 1132.68 1139.79 1136.24ZM1219.57 1099.11C1207.3 1101.61 1196.31 1103.86 1185.33 1106.15C1185.12 1106.2 1183.99 1106.52 1183.47 1106.94C1186.43 1108.45 1191.01 1109.37 1194.17 1110.26C1197.18 1111.07 1200.22 1111.85 1203.22 1112.63C1206.69 1113.56 1210.46 1114.59 1212.56 1114.81C1214.79 1109.79 1217.01 1104.82 1219.57 1099.11ZM1136.81 1138.74C1134.72 1135.95 1133.13 1133.68 1131.4 1131.53C1128.92 1128.48 1126.9 1127.11 1125.26 1127.88C1119.78 1130.28 1110.97 1134.09 1104.86 1136.82C1109.41 1138.36 1113.27 1139.45 1116.89 1140.95C1120.7 1142.53 1123.92 1144.57 1127.75 1146.46C1130.54 1143.98 1133.57 1141.63 1136.81 1138.74ZM1166.88 1058.49C1171.3 1079.01 1173.83 1091.27 1176.64 1095.78C1177.16 1092.68 1178.59 1080.55 1178.73 1074.63C1178.93 1066.34 1180.18 1058.79 1179.74 1050.43C1179.72 1050.3 1178.99 1051.01 1178.15 1051.7C1174.68 1054.44 1170.95 1056.57 1166.88 1058.49ZM1220.61 1078.27C1219.18 1079.06 1218.15 1079.52 1217.28 1080.15C1208.07 1086.73 1198.87 1093.31 1189.7 1099.93C1189.43 1100.12 1187.31 1101.51 1185.02 1102.77C1188.79 1102.66 1196.18 1100.6 1199.58 1099.87C1203.29 1099.07 1207.02 1098.25 1210.75 1097.38C1214.13 1096.55 1217.97 1095.69 1220.76 1094.65C1220.72 1089.29 1220.67 1084.24 1220.61 1078.27ZM1127.95 1122.59C1138.66 1118.34 1149.22 1114.13 1159.77 1109.9C1161.02 1109.41 1163.27 1108.67 1164.42 1108.04C1164.47 1108.04 1164.11 1107.8 1163.28 1107.67C1157.65 1106.13 1146.17 1105.53 1131.87 1106.12C1129.52 1106.23 1126.78 1106.29 1124.34 1106.43C1126.21 1111.41 1127.49 1116.9 1127.95 1122.59ZM1167.83 1100.2C1162.34 1093.05 1146.92 1076.64 1143.09 1073.8C1141.2 1076.17 1140.13 1078.25 1137.41 1080.92C1135.15 1083.15 1132.86 1085.31 1130.35 1087.44C1137.8 1090.73 1163.22 1099.52 1167.83 1100.2ZM1146.8 1070.65C1147.1 1071.28 1150.33 1074.73 1150.74 1075.16C1158.38 1083.46 1163 1088.92 1170.72 1097.15C1171 1097.45 1172.57 1098.69 1172.4 1097.35C1171.68 1090.9 1165.07 1066.03 1162.98 1061.72C1157.85 1065.33 1152.85 1068.05 1146.8 1070.65ZM1180.2 1096.39C1187.35 1081.36 1196.77 1061.18 1201.6 1045.67C1198.2 1046.53 1195.43 1047.46 1192.6 1047.89C1189.57 1048.31 1186 1048.47 1182.97 1048.62C1182.89 1048.81 1182.75 1052.08 1182.7 1053.42C1182.11 1066.51 1180.49 1084.44 1180.2 1096.39ZM1188.68 1161.58C1188.54 1157.36 1187.54 1153.46 1186.52 1149.63C1185.85 1147.05 1183.45 1138.9 1182.8 1137.36C1179.17 1137.09 1176.03 1137.69 1173.23 1139.01C1170.22 1140.41 1166.92 1141.89 1165.93 1145.33C1164.08 1151.72 1162.43 1158.16 1160.83 1164.57C1160.73 1164.91 1160.58 1165.42 1160.67 1165.51C1160.73 1165.55 1160.89 1165.51 1161.41 1165.34C1171.67 1162.27 1179.07 1161.36 1188.68 1161.58ZM1192.74 1158.97C1194.96 1158.21 1196.45 1157.69 1197.91 1157.2C1205.04 1154.76 1212.46 1154.07 1219.87 1153.2C1220.76 1153.12 1223.47 1152.81 1224.71 1152.71C1224.71 1152.71 1223.84 1151.86 1223.24 1151.4C1216.33 1145.3 1209.3 1139.09 1202.23 1132.93C1201.43 1132.26 1200.36 1131.52 1199.38 1131.46C1195.68 1131.25 1192.17 1131.92 1189.43 1134.67C1187.96 1136.18 1187.18 1137.85 1187.74 1139.93C1189.38 1146.1 1190.99 1152.29 1192.74 1158.97ZM1226.33 1149.32C1230.14 1139.64 1237.68 1134.42 1244.91 1128.85C1240.79 1126.33 1226.91 1122.15 1213.75 1119.41C1208.53 1122.99 1207.33 1126.01 1206.23 1131.46C1212.35 1136.86 1219.33 1143.13 1226.33 1149.32ZM1203.22 1051.68C1198.44 1066.1 1191.62 1078.24 1185.97 1092.21C1184.88 1094.86 1184.31 1096.8 1183.4 1099.58C1184.56 1099.03 1188.07 1096.83 1189.44 1095.83C1194.11 1092.41 1196.56 1090.44 1201.28 1087.05C1207.61 1082.52 1214.06 1078.13 1220.38 1073.6C1221.33 1072.92 1222.74 1071.98 1223.57 1071.21C1219.35 1068.75 1215.5 1067.97 1211.31 1063.64C1208.22 1060.4 1205.87 1056.41 1203.22 1051.68ZM1251.31 1089.25C1250.96 1087.5 1250.33 1084.91 1250.24 1082.61C1250.13 1078.83 1250.04 1075.24 1250.33 1071.69C1250.83 1065.85 1252.33 1060.1 1253.5 1053.54C1245.3 1059.64 1237.73 1065.09 1230.44 1070.84C1228.43 1072.43 1225.53 1075.15 1225.15 1076.04C1223.94 1081.89 1223.94 1088.48 1224.97 1094.39C1231.4 1093.77 1237.46 1092.15 1243.57 1090.91C1245.85 1090.44 1249.35 1089.73 1251.31 1089.25ZM1216.79 1115.62C1222.5 1118.2 1242.77 1123.83 1247.87 1124.4C1248.28 1119.12 1248.22 1113.76 1249.18 1108.56C1249.79 1105.17 1250.85 1101.84 1251.93 1098.49C1252.48 1096.76 1253.55 1094.42 1254.36 1092.57C1253.67 1092.76 1252.63 1092.86 1252.25 1092.91C1244.06 1094.46 1235.85 1096.07 1227.66 1097.62C1225.98 1097.93 1224.69 1098.71 1223.85 1100.07C1220.85 1104.88 1218.06 1109.77 1216.79 1115.62ZM1117.6 1160.57C1119.39 1160.51 1123.56 1160.76 1126.03 1160.94C1129.77 1161.25 1133.48 1161.59 1137.11 1162.27C1143.21 1163.41 1149.08 1165.51 1155.05 1167.18C1157.45 1162.55 1161.18 1149.64 1162.1 1142.72C1156.37 1138.66 1149.73 1137.84 1145.01 1138.42C1142.47 1138.74 1138.92 1141.97 1136.15 1144.16C1130.22 1148.82 1124.8 1154.06 1119.18 1159.04C1118.89 1159.31 1117.95 1160.09 1117.6 1160.57ZM1165.71 1054.73C1170.51 1053.03 1176.39 1049.94 1178.65 1045.99C1179.68 1044.2 1179.49 1042.01 1179.63 1039.87C1180.29 1030.93 1180.73 1021.97 1181.23 1013.03C1181.27 1012.02 1181.26 1010.79 1181.1 1009.5C1177.83 1010.81 1174.78 1012.31 1171.84 1013.21C1169.06 1014.07 1166.19 1014.86 1163.28 1015.12C1159.97 1015.43 1156.66 1015.07 1153.82 1015.62C1157.08 1028.77 1162.08 1041.68 1165.71 1054.73ZM1069.42 1105.76C1085.73 1104.92 1102.04 1104.09 1118.26 1103.26C1121.71 1098.75 1122.15 1093.97 1122.21 1089.17C1117.75 1086.82 1100.28 1080.69 1093.95 1079.22C1090.41 1083.63 1087.12 1088.22 1083.3 1092.37C1078.96 1097.06 1074.01 1101.27 1069.42 1105.76ZM1139.9 1069.6C1134.48 1062.52 1122.16 1049.91 1117.09 1046.27C1115.72 1049.04 1114.47 1051.76 1113.03 1054.4C1111.7 1056.87 1110.32 1059.35 1108.71 1061.68C1107.01 1064.23 1105.32 1066.65 1103.17 1069.04C1101.18 1071.26 1098.67 1073.63 1096.41 1075.81C1105.46 1078.95 1114.37 1082.16 1123.03 1085.04C1124.13 1085.39 1125.83 1085.25 1126.88 1084.69C1133.1 1081.28 1138.31 1076.96 1139.9 1069.6ZM1124.51 1148.71C1117.01 1143.27 1108.21 1141.18 1099 1139.8C1081.89 1147.18 1064.79 1155.46 1061.2 1158.14C1068.35 1159.1 1075.38 1159.9 1082.35 1161.01C1089.46 1162.16 1096.07 1164.7 1102.2 1167.9C1108.4 1163.84 1121.63 1152.43 1124.51 1148.71ZM1143.08 1066.9C1150.19 1065.87 1156.26 1062.8 1159.91 1058.68C1161.51 1056.89 1162.08 1055.1 1161.34 1052.81C1158.22 1043.06 1155.21 1033.26 1152.13 1023.51C1151.77 1022.35 1151.14 1021.24 1150.16 1019.05C1143.43 1029.31 1135.44 1037.35 1124.52 1041.86C1123.46 1042.3 1121.62 1042.86 1120.43 1043.16C1120.81 1043.55 1121.44 1044.27 1121.72 1044.55C1128.73 1051.94 1135.79 1059.31 1143.08 1066.9ZM1182.99 1044.38C1185.35 1045.4 1188.21 1045.2 1191.4 1044.83C1195.34 1044.34 1199.42 1042.76 1202.77 1041.49C1203.47 1041.15 1204.95 1038.63 1205.81 1036.55C1210.13 1025.72 1214.54 1014.94 1218.89 1004.11C1219.24 1003.22 1220.04 1002.01 1220.56 1000.67C1214.74 1002.51 1208.68 1004.96 1202.94 1005.93C1197.13 1006.9 1191.45 1006.99 1185.28 1006.37C1184.57 1018.85 1183.72 1032.02 1182.99 1044.38ZM1197.33 1194.54C1196.13 1187.66 1194.7 1183.19 1193.63 1178.52C1192.59 1173.83 1191.96 1169.8 1189.59 1165.45C1178.46 1163.64 1168.42 1166.3 1158.89 1170.25C1154.19 1183.56 1150.4 1197.78 1149.51 1201.77C1156.79 1199.23 1165.05 1196.07 1172.65 1195.03C1178.27 1194.26 1183.89 1193.69 1189.63 1193.85C1191.92 1193.93 1194.98 1194.19 1197.33 1194.54ZM1230.02 1152.31C1238.76 1159.8 1247.37 1167.15 1256.03 1174.47C1256.4 1174.81 1257.16 1175.48 1257.65 1175.71C1258.07 1174.42 1258.88 1171.5 1259.46 1169.81C1260.41 1166.95 1261.4 1164.15 1262.64 1161.46C1264.7 1156.97 1267.06 1152.52 1269.91 1148.47C1272.64 1144.59 1276.2 1141.25 1279.64 1137.39C1277.77 1136.82 1276.32 1136.33 1274.86 1135.92C1267.78 1133.95 1260.68 1132.01 1253.6 1130.01C1251.52 1129.42 1249.76 1129.77 1247.9 1131C1243.28 1134.09 1238.9 1137.45 1235.13 1141.48C1232.36 1144.42 1230.35 1147.7 1230.02 1152.31ZM1260.07 1091.43C1252.66 1100.59 1249.75 1115.83 1253.44 1126.03C1266.11 1130.36 1276.33 1132.89 1280.9 1133.48C1280.6 1128.46 1280.79 1122.31 1281.04 1117.01C1281.3 1111.46 1282.51 1106.05 1284.16 1100.66C1285.69 1095.68 1288.87 1091.23 1290.3 1085.63C1279.77 1087.66 1269.85 1089.55 1260.07 1091.43ZM1183.63 965.352C1180.31 967.559 1177.5 969.704 1174.45 971.391C1171.13 973.188 1167.6 974.754 1164.07 976.141C1160.74 977.45 1157.28 978.495 1153.84 979.511C1150.27 980.569 1146.32 980.058 1142.64 981.796C1145.53 990.652 1148.3 999.139 1151.17 1007.61C1151.64 1008.99 1152.2 1010.69 1152.89 1010.97C1153.81 1011.37 1155.19 1011.5 1156.38 1011.64C1158.14 1011.86 1160.29 1011.82 1162 1011.76C1166.79 1011.56 1171.35 1010.32 1175.77 1008.21C1179.98 1006.2 1181.99 1003.05 1182.15 998.464C1182.54 989.074 1183.37 979.706 1183.95 970.318C1184.04 968.869 1183.78 967.388 1183.63 965.352ZM1255.01 1178.52C1245.63 1170.29 1237.2 1162.84 1228.58 1156.1C1209.89 1156.62 1200.28 1158.73 1193.53 1163.83C1196.25 1174.12 1198.37 1184.69 1201.79 1195.35C1207.59 1192.58 1212.87 1189.67 1218.47 1187.43C1224.07 1185.2 1229.88 1183.3 1235.74 1181.86C1241.61 1180.41 1247.65 1179.74 1255.01 1178.52ZM1291.84 1081.36C1287.79 1072.88 1285.06 1064.9 1283.9 1056.35C1282.85 1048.55 1283.58 1040.81 1284.43 1032.98C1284.51 1032.3 1284.82 1030.82 1284.9 1030.12C1284.09 1030.45 1283.32 1031.06 1283.02 1031.28C1275.69 1036.68 1268.36 1042.08 1261.09 1047.57C1260.1 1048.33 1259.21 1049.5 1258.77 1050.63C1254.89 1061.02 1252.78 1071.67 1253.76 1082.69C1253.91 1084.52 1254.41 1086.41 1254.96 1088.39C1257.44 1088.19 1270.07 1086.01 1273.76 1085.24C1278.35 1084.29 1289.98 1081.98 1291.84 1081.36ZM1114.32 1043.07C1108.84 1036.57 1096.73 1025.13 1092.91 1022.88C1085.27 1039.2 1072.17 1051.27 1057.5 1062.71C1059.25 1063.39 1060.4 1063.92 1061.59 1064.31C1069.65 1066.93 1078.09 1069.4 1082.95 1071.24C1085.6 1072.27 1092.03 1074.27 1092.35 1074.18C1092.77 1074.05 1095.72 1071.53 1097.17 1070.07C1098.26 1068.98 1099.44 1067.94 1100.44 1066.79C1106.51 1059.75 1111.24 1052 1114.32 1043.07ZM1095.61 1019.16C1102.48 1025.86 1109.96 1033.14 1116.77 1039.77C1117.98 1040.93 1122.08 1039.11 1123.12 1038.67C1133.84 1034.06 1141.71 1026.62 1147.28 1016.9C1148.68 1014.52 1148.95 1012.1 1148 1009.49C1147.08 1006.89 1146.42 1004.2 1145.52 1001.56C1143.63 996.174 1141.63 990.801 1139.44 984.733C1134.84 989.563 1131.04 994.088 1126.69 998.066C1122.11 1002.23 1117.23 1006.11 1112.12 1009.62C1107.19 1012.95 1101.78 1015.62 1095.61 1019.16ZM1023.86 1107.3C1029.74 1107.11 1034.46 1106.98 1039.2 1106.83C1045.95 1106.61 1052.7 1106.39 1059.48 1106.17C1061.27 1106.1 1062.86 1105.8 1064.46 1104.63C1071.91 1099.24 1078.55 1093.11 1084.36 1086.2C1086.45 1083.71 1089.26 1080 1090.26 1077.75C1089.15 1077.17 1087.32 1076.44 1086.3 1076.11C1075.51 1072.54 1064.68 1069.01 1053.85 1065.52C1052.92 1065.23 1051.97 1065.04 1050.86 1064.66C1050.25 1066.15 1049.49 1068.37 1048.93 1069.75C1048.24 1071.45 1047.55 1073.1 1046.8 1074.71C1045.39 1077.63 1043.84 1080.52 1042.14 1083.29C1040.45 1086.1 1038.58 1088.79 1036.68 1091.47C1034.77 1094.11 1032.7 1096.71 1030.71 1099.31C1028.79 1101.84 1025.95 1103.73 1023.86 1107.3ZM1154.27 1171.18C1147.79 1167.9 1141.15 1166.13 1134.29 1165.03C1127.82 1163.98 1119.05 1163.71 1113.23 1164.81C1112 1165.01 1109.8 1166.62 1107.72 1168.47C1097.61 1177.4 1087.38 1186.23 1077.21 1195.11C1076.43 1195.8 1074.44 1197.33 1073.1 1198.63C1075.65 1197.69 1078.84 1196.81 1080.8 1196.21C1083.38 1195.45 1085.82 1194.74 1088.28 1194.18C1099.17 1191.73 1110.22 1191.52 1121.2 1192.7C1127.71 1193.43 1133.95 1195.25 1139.68 1198.26C1141.43 1199.18 1143.71 1200.46 1145.39 1201.46C1147.02 1197.28 1152.01 1180 1154.27 1171.18ZM1224.35 1000.97C1223.73 1002.33 1223.08 1003.66 1222.51 1005.04C1219.9 1011.22 1217.29 1017.39 1214.77 1023.61C1212.27 1029.82 1209.83 1036.05 1207.36 1042.29C1206.55 1044.31 1206.1 1046.34 1206.83 1048.54C1209.41 1055.97 1213.28 1063.47 1222.95 1066.82C1224.42 1067.3 1225.83 1067.9 1227.6 1068.58C1235.56 1062.51 1243.54 1056.44 1251.45 1050.35C1252.42 1049.62 1253.5 1048.94 1254.4 1048.01C1251.78 1045.36 1248.98 1042.27 1246.64 1039.48C1237 1027.94 1229.63 1015.28 1224.35 1000.97ZM1058.82 1153.81C1062.21 1153.26 1064.54 1151.92 1066.89 1150.84C1082.09 1143.74 1097.27 1136.6 1112.47 1129.49C1115.1 1128.26 1120.87 1125.42 1123.56 1124.32C1123.97 1124.11 1123.86 1119.66 1123.74 1118.06C1123.45 1114.4 1122.12 1110.02 1119.71 1106.78C1102.98 1107.51 1086.38 1108.26 1069.8 1109.03C1069.33 1109.03 1067.41 1109.09 1067.23 1109.22C1067.06 1109.37 1067.17 1109.58 1067.27 1110.21C1068.22 1117.43 1067.92 1124.84 1066.38 1132.22C1064.86 1139.49 1061.64 1146.28 1058.82 1153.81ZM1185.58 1001.99C1186.79 1002.72 1189.17 1003.06 1190.03 1003.19C1196.85 1003.96 1203.26 1003.17 1209.34 1001.1C1213.29 999.769 1217.75 998.216 1221.61 996.223C1222.71 995.651 1223.43 992.842 1224.17 990.978C1229.79 976.963 1235.49 962.989 1241.13 948.995C1241.22 948.805 1241.89 946.796 1241.84 946.572C1241.79 946.399 1241.33 946.635 1240.56 947.424C1225.14 959.419 1207.73 962.78 1188.31 958.305C1187.39 972.176 1186.53 985.68 1185.64 999.187C1185.6 999.911 1185.63 1001.29 1185.58 1001.99ZM1015.26 1049.51C1016.9 1050.18 1018.47 1050.6 1019.07 1050.78C1028.85 1053.94 1038.64 1057.01 1048.38 1060.22C1049.88 1060.7 1052.64 1061.21 1053 1061.06C1053.33 1060.91 1054.96 1059.99 1056.07 1059.24C1058.28 1057.74 1060.6 1056.32 1062.47 1054.5C1068.5 1048.64 1074.58 1042.83 1080.13 1036.63C1084.67 1031.52 1087.82 1025.54 1090.34 1019.48C1084.31 1012.32 1069.34 998.235 1065.63 996.179C1063.55 1002.03 1061.64 1007.94 1059.3 1013.7C1057.03 1019.32 1053.37 1024.29 1049.44 1029.03C1045.32 1034.01 1040.37 1038.01 1034.88 1041.54C1031.58 1043.69 1028.05 1045.33 1024.32 1046.82C1021.96 1047.78 1017.87 1049.24 1015.26 1049.51ZM1296.49 1084.43C1285.45 1100.09 1282.95 1116.85 1284.57 1134.57C1290.36 1136.96 1296.29 1138.25 1302.09 1139.79C1307.8 1141.29 1315.16 1144.26 1319.85 1144.75C1319.78 1143.94 1319.48 1142.59 1319.35 1141.99C1317.49 1133.57 1317.47 1125.06 1318.21 1116.52C1319.22 1104.72 1322.42 1093.36 1326.53 1082.2C1327 1080.91 1327.76 1079.1 1328.21 1077.45C1326.84 1077.67 1324.46 1078.2 1323.16 1078.49C1314.37 1080.42 1305.58 1082.41 1296.49 1084.43ZM1323.73 999.727C1322.69 1000.34 1320.36 1002.17 1319.39 1002.91C1311.34 1009.16 1303.47 1015.68 1295.2 1021.69C1291.28 1024.53 1289.47 1027.94 1288.49 1032.32C1286.03 1043.22 1286.79 1054.01 1289.09 1064.69C1290.29 1070.21 1292.35 1075.63 1295.54 1080.31C1300.19 1080 1311.88 1077.7 1319.26 1075.76C1321.34 1075.22 1325.22 1074.43 1326.01 1074.03C1325.03 1072.89 1323.67 1070.49 1323.12 1069.12C1318.21 1057.39 1316.86 1044.95 1317.83 1032.15C1318.52 1022.98 1319.9 1013.91 1322.34 1004.98C1322.63 1003.82 1323.18 1001.49 1323.73 999.727ZM1320.8 1149.1C1308.53 1145.21 1296.62 1141.8 1284.82 1138.77C1271.75 1148.22 1261.96 1165.6 1261.63 1179.04C1261.89 1179.39 1262.68 1180.24 1263.01 1180.51C1272.03 1188.09 1280.33 1195.05 1289.39 1202.57C1290 1203.09 1291.16 1203.87 1291.68 1204.14C1292.12 1202.14 1292.59 1199.56 1293.11 1197.62C1297.96 1179.42 1307.02 1163.38 1320.8 1149.1ZM1068.06 991.694C1075.97 1000.37 1084.16 1008.05 1092.15 1015.46C1104.12 1014.49 1131.89 991.674 1137.31 979.402C1133.48 969.404 1129.61 959.232 1125.69 949.067C1125.33 948.186 1124.66 946.243 1124.13 945.306C1122.43 948.289 1120.74 950.68 1119.47 952.685C1115.45 958.932 1110.87 964.786 1105.75 970.295C1098.28 978.355 1089.61 984.767 1078.8 988.286C1075.45 989.368 1072.07 990.428 1068.06 991.694ZM1140.61 977.53C1154.3 978.582 1171.13 971.417 1183.86 959.498C1184.53 955.924 1186.07 926.552 1186.41 912.805C1186.51 909.25 1186.74 905.603 1186.62 904.848C1186.14 905.369 1184.87 907.195 1184.41 907.843C1177.52 917.935 1168.16 925.664 1158.09 932.736C1152.36 936.731 1146.06 939.538 1139.22 941.206C1137.48 941.652 1135.71 942.102 1133.95 942.347C1132.02 942.636 1130.07 942.673 1127.53 942.883C1131.62 954.825 1136.07 966.081 1140.61 977.53ZM1136.42 1246.46C1139.14 1245.09 1142.63 1243.38 1145.27 1242.31C1153.85 1238.83 1162.61 1236.39 1172.05 1236.32C1183.52 1236.24 1194.33 1238.67 1204.91 1242.37C1206.33 1242.86 1207.79 1243.17 1209.62 1243.69C1209.43 1242.14 1209.41 1241.09 1209.15 1240.1C1207.62 1234.1 1206.01 1228.12 1204.47 1222.12C1202.73 1215.3 1200.99 1208.49 1199.38 1201.63C1198.81 1199.21 1198.3 1198.17 1197.74 1197.85C1195.09 1197.31 1189.96 1196.99 1187.48 1196.94C1174.82 1196.69 1163.03 1200.15 1151.51 1204.96C1148.66 1206.14 1147.32 1207.82 1146.56 1210.5C1143.48 1221.69 1140.21 1232.82 1137.04 1243.99C1136.95 1244.31 1136.65 1245.68 1136.42 1246.46ZM965.261 1109.52C964.189 1110.09 961.417 1111.23 965.769 1110.76C970.441 1110.47 975.107 1110.12 979.755 1109.85C991.024 1109.2 1002.26 1108.53 1013.51 1107.96C1016.38 1107.81 1018.63 1106.84 1020.67 1104.89C1032.33 1093.7 1040.93 1080.75 1046.39 1065.96C1046.66 1065.23 1046.99 1064.16 1047.19 1063.57C1033.36 1058.72 1018.94 1054.39 1004.29 1050.12C1003.16 1058.58 1001.38 1066.47 998.043 1074C994.789 1081.35 990.687 1088.23 985.301 1094.41C979.773 1100.77 972.821 1105.5 965.261 1109.52ZM976.557 1194.18C978.46 1193.94 991.476 1192.89 994.799 1192.69C999.363 1192.41 1003.93 1192.35 1008.52 1192.5C1014.15 1192.71 1019.81 1192.67 1025.4 1193.21C1037.8 1194.4 1049.9 1196.54 1058.57 1206.1C1059.43 1205.55 1060.04 1205.27 1060.54 1204.85C1072.78 1194.25 1084.99 1183.63 1097.18 1173.01C1097.96 1172.32 1098.9 1171.36 1099.45 1170.7C1096.06 1168.19 1092.17 1166.88 1088.53 1165.87C1076.78 1162.57 1064.68 1161.79 1052.47 1162.3C1050.73 1162.36 1048.96 1163.01 1047.36 1163.7C1041.57 1166.16 1035.88 1168.84 1030.12 1171.33C1014.44 1178.07 998.74 1184.73 983.047 1191.42C981.68 1192.03 978.01 1193.38 976.557 1194.18ZM1004.2 1178.74C1005.8 1178.03 1006.71 1177.66 1007.23 1177.44C1021.2 1171.33 1035.13 1165.16 1049.1 1159.07C1051.24 1158.11 1052.79 1156.77 1053.9 1154.75C1060.59 1142.81 1064.58 1130.23 1064.13 1116.66C1064.12 1115.74 1064.09 1114.79 1063.94 1113.86C1063.71 1112.45 1063.29 1110.53 1063.01 1109.59C1057.07 1109.76 1049.74 1109.92 1043.45 1110.16C1037.38 1110.37 1031.29 1110.64 1025.23 1110.95C1019.01 1111.23 1012.74 1110.93 1006.39 1112.67C1013.17 1131.33 1012.99 1149.71 1007.88 1168.18C1007.02 1171.36 1005.36 1175.55 1004.2 1178.74ZM1213.87 1242.8C1220.36 1238.76 1226.06 1234.87 1232.1 1231.61C1238.38 1228.24 1244.89 1225.2 1251.52 1222.48C1257.95 1219.89 1264.56 1217.61 1271.23 1215.71C1275.63 1214.47 1280.13 1213.5 1284.75 1212.52C1287.29 1212 1290.45 1211.32 1293.07 1210.72C1292.56 1210.14 1291.39 1209.21 1290.78 1208.69C1282.11 1201.37 1273.43 1194.11 1264.8 1186.78C1264.12 1186.2 1261.11 1183.85 1260.41 1183.24C1258.76 1182.04 1258.1 1181.94 1255.47 1182.21C1251.7 1182.58 1247.77 1183.37 1243.99 1183.86C1240.83 1184.26 1237.68 1184.77 1234.62 1185.51C1224.97 1187.81 1215.88 1191.81 1207.17 1196.4C1205.64 1197.23 1203.73 1198.27 1202.62 1199.02C1206.1 1213.48 1209.33 1228.35 1213.87 1242.8ZM1286.64 1023.75C1285.41 1022.15 1284.78 1021.26 1284.1 1020.42C1269.99 1002.71 1260.35 983.112 1256.76 960.92C1255.55 953.345 1254.26 945.779 1252.97 938.213C1252.87 937.635 1252.68 934.965 1252.24 934.275C1251.97 933.846 1249.73 938.666 1249.14 940.048C1242.68 955.579 1236.37 971.195 1229.68 986.652C1227.84 990.91 1227.65 994.86 1228.85 999.074C1229.06 999.895 1229.25 1000.74 1229.51 1001.56C1234.3 1017.39 1243.35 1030.9 1254.74 1043.09C1255.59 1043.99 1256.92 1044.9 1257.66 1045.4C1267.33 1038.2 1277.18 1031.36 1286.64 1023.75ZM958.351 1114.81C960.781 1124.11 962.407 1133.07 963.931 1141.87C965.488 1150.71 965.648 1159.7 965.671 1168.68C965.681 1177.56 964.174 1186.26 962.497 1195.15C967.876 1193.97 988.377 1185.89 999.458 1180.64C1000.62 1177.93 1002.14 1175.05 1003.12 1172C1008.13 1156.57 1009.51 1140.92 1006.41 1125.14C1005.5 1120.58 1004.3 1115.95 1000.65 1112.45C987.044 1112.01 973.608 1114.29 960.109 1114.72C959.513 1114.75 958.779 1114.76 958.351 1114.81ZM975.05 904.293C946.938 939.495 919.322 974.097 891.423 1009.04C893.774 1010.01 895.947 1011.07 898.22 1011.84C902.933 1013.42 906.038 1014.32 907.03 1014.19C907.754 1014.1 909.849 1012.56 913.872 1010.32C927.874 1002.5 940.015 992.632 950.371 980.648C965.319 963.322 977.567 944.636 985.805 923.674C986.763 921.297 988.077 918.722 988.533 916.689C984.418 912.912 979.537 908.435 975.05 904.293ZM1191.27 902.604C1191.14 903.981 1190.97 905.234 1190.88 906.502C1190.33 914.167 1189.71 921.842 1189.27 929.519C1188.86 936.345 1188.62 943.176 1188.43 950.001C1188.3 953.995 1188.98 954.706 1193.13 955.656C1199.34 957.042 1205.68 957.233 1211.93 956.255C1225.11 954.135 1236.33 948.486 1244.74 938.334C1246.11 936.65 1247.46 934.84 1248.31 932.913C1256.15 914.85 1263.87 896.75 1271.62 878.646C1271.83 878.158 1273.83 874.728 1273.86 874.083C1273.12 874.302 1268.42 878.76 1267.68 879.57C1260.46 887.239 1251.46 892.588 1242.28 897.805C1230.33 904.622 1217.62 907.248 1203.96 905.038C1199.76 904.376 1195.65 903.449 1191.27 902.604ZM1330.09 1073.14C1336.54 1071.57 1342.94 1070.06 1349.34 1068.55C1356.69 1066.84 1364.05 1065.11 1371.34 1063.34C1370.3 1060.46 1368.56 1057.34 1367.32 1054.64C1364.29 1047.96 1362.21 1041.01 1361.31 1033.75C1359.97 1022.7 1359.71 1011.62 1361.03 1000.52C1361.64 995.497 1362.38 990.503 1363.09 985.512C1363.62 982.034 1363.89 980.281 1364.35 976.784C1364.61 974.929 1365.08 969.893 1364.9 968.221C1363.93 968.751 1362.18 970.175 1361.33 970.819C1351.92 977.912 1342.48 984.984 1333.17 992.219C1331.65 993.382 1330.48 995.093 1329.56 996.746C1326.56 1002.12 1324.74 1007.87 1323.84 1013.83C1323.16 1018.48 1322.66 1023.16 1321.96 1027.84C1320.24 1039.45 1321.21 1050.86 1324.31 1062.07C1325.4 1065.97 1327 1069.72 1330.09 1073.14ZM1373.82 1066.47C1370.62 1066.79 1359.73 1069.42 1349.96 1071.78C1342.79 1073.49 1336.09 1075.37 1332.95 1076.68C1332.58 1077.37 1332.1 1078.12 1331.73 1078.91C1325.99 1091.2 1323.18 1104.18 1321.69 1117.37C1320.81 1125.03 1321.28 1132.75 1322.68 1140.35C1323.08 1142.46 1324.15 1145.58 1324.49 1145.93C1324.95 1146.36 1327.55 1147.34 1329.55 1147.89C1342 1151.48 1354.27 1155.64 1366.59 1159.55C1368.46 1160.14 1370.37 1160.6 1373.02 1161.35C1372.45 1159.8 1372.14 1158.84 1371.78 1157.91C1366.72 1144.55 1364.49 1130.71 1364.88 1116.49C1365.28 1101.92 1368.47 1087.69 1372.3 1073.56C1372.84 1071.52 1373.27 1068.59 1373.82 1066.47ZM1000.78 1048.86C995.524 1047.05 989.467 1044.95 984.208 1043.14C978.724 1041.28 973.323 1039.2 967.734 1037.58C962.455 1036.05 956.835 1033.75 951.583 1032.21C951.64 1036.42 951.18 1039.73 950.779 1043.09C949.272 1055.98 944.866 1068.1 939.275 1079.88C936.637 1085.39 933.179 1090.44 928.923 1094.97C923.342 1100.9 917.764 1106.85 911.048 1111.74C910.3 1112.29 908.324 1113.92 906.975 1114.68C909.891 1114.7 913.497 1114.59 915.493 1114.45C924.482 1113.85 933.491 1113.19 942.471 1112.52C946.732 1112.2 951.228 1112.46 955.179 1111.18C959.368 1109.84 963.011 1106.95 966.909 1104.8C972.667 1101.62 977.672 1097.64 981.947 1092.82C992.48 1080.95 998.229 1067.15 1000.35 1051.97C1000.5 1050.98 1000.82 1049.6 1000.78 1048.86ZM1104.87 892.357C1103.83 894.718 1103.15 896.496 1102.67 897.659C1096.8 911.167 1088.14 922.968 1077.18 933.178C1065.81 943.799 1053.04 952.13 1037.39 955.377C1036.03 955.672 1031.9 956.569 1031.4 956.452C1031.2 956.399 1034.7 960.508 1036.14 962.049C1039.84 966.006 1044.01 969.545 1047.94 973.345C1053.38 978.626 1058.73 984.046 1064.97 988.869C1076.9 986.084 1087.94 982.099 1096.97 973.872C1106.58 965.111 1114.27 955.1 1120.52 944.009C1121.85 941.611 1122.57 939.289 1121.32 936.672C1120.67 935.341 1120.35 933.841 1119.85 932.44C1115.41 920.387 1111.01 908.33 1106.55 896.306C1106.27 895.545 1105.38 893.653 1104.87 892.357ZM1016.34 1248.62C1019.51 1248.07 1023.21 1247.2 1025.17 1246.73C1031.93 1245.07 1038.66 1243.13 1045.44 1241.65C1063.62 1237.66 1082.03 1236.2 1100.48 1237.97C1110.81 1238.95 1120.89 1241.27 1129.48 1247.29C1130.05 1247.73 1131.23 1248.49 1131.68 1248.64C1132.12 1247.5 1132.63 1245.93 1132.88 1245.12C1136.41 1232.93 1139.86 1220.75 1143.47 1208.6C1144.2 1206.15 1143.43 1204.58 1141.35 1203.16C1135.74 1199.39 1129.46 1197.22 1122.69 1196.39C1108.04 1194.61 1093.54 1195.12 1079.4 1200.28C1071.54 1203.13 1064.09 1206.75 1057.82 1212.14C1045.08 1223.11 1032.53 1234.32 1019.92 1245.45C1019.48 1245.84 1017.69 1247.47 1016.34 1248.62ZM958.181 1030.55C959.478 1031.13 962.873 1032.18 963.474 1032.41C977.818 1037.26 990.497 1041.62 1004.91 1046.33C1006.95 1047 1009.41 1047.13 1011.53 1046.81C1015.8 1046.16 1020 1045.12 1023.85 1043.44C1047.18 1033.16 1058.15 1014.69 1062.17 992.038C1050.76 980.927 1039.68 970.133 1028.55 959.396C1028.18 959.032 1027.18 958.051 1026.63 957.555C1026.51 958.083 1026.12 959.825 1025.98 960.382C1021.97 976.2 1015.26 990.582 1003.81 1002.93C993.358 1014.16 980.731 1022.09 965.689 1027.88C963.482 1028.74 960.511 1029.8 958.181 1030.55ZM1063.91 784.011C1062.37 786.025 1061.57 787.047 1060.83 788.089C1057.08 793.198 1053.42 798.374 1049.61 803.465C1026.2 834.877 1002.73 866.27 979.322 897.682C978.458 898.841 977.771 900.107 976.953 901.414C981.436 905.53 985.611 909.351 989.809 913.143C990.267 913.548 990.738 914.055 991.581 914.489C992.898 913.916 994.596 913.115 995.918 912.361C999.601 910.237 1003.5 908.343 1006.81 905.778C1018.75 896.497 1030.06 886.525 1039.05 874.53C1050.25 859.619 1060.33 844.076 1068.45 827.466C1070.42 823.397 1072.68 818.369 1074.42 813.278C1074.64 812.609 1074.31 811.7 1073.69 809.981C1071.08 802.963 1068.68 795.894 1066.14 788.842C1065.68 787.488 1064.95 786.193 1063.91 784.011ZM1325.62 1150.46C1322.06 1152.28 1319.73 1154.96 1317.53 1157.64C1308.18 1168.94 1301.86 1181.68 1297.36 1195.27C1296.83 1196.91 1296.55 1198.61 1296.22 1200.29C1294.83 1207.34 1294.92 1207.43 1300.45 1212.5C1314.75 1225.61 1329.01 1238.79 1343.32 1251.9C1343.81 1252.36 1344.97 1253.55 1345.72 1253.94C1345.54 1250.04 1345.73 1245.16 1345.94 1241.42C1346.34 1234.72 1347.3 1228.21 1348.46 1221.73C1350.24 1211.75 1353.92 1202.31 1357.91 1192.97C1361.95 1183.43 1367.71 1174.71 1373.69 1165.65C1357.46 1160.07 1341.62 1154.87 1325.62 1150.46ZM1055.01 1209.03C1055.02 1206.28 1052.8 1205.04 1050.79 1203.75C1046.32 1200.81 1041.28 1199.02 1035.91 1198.1C1024.37 1196.11 1012.67 1195.89 1000.97 1195.9C988.719 1195.9 976.717 1198.11 964.609 1199.45C963.077 1199.62 961.54 1200.17 960.082 1200.71C953.829 1203.17 947.581 1205.69 941.33 1208.19C925.903 1214.38 910.503 1220.57 895.112 1226.84C894.306 1227.15 892.448 1227.97 890.769 1228.92C891.706 1229.01 893.282 1228.99 894.179 1228.99C895.97 1228.94 899.302 1228.81 901.114 1228.72C917.558 1227.66 933.984 1226.68 950.424 1228C964.419 1229.15 977.93 1232.09 990.869 1237.24C994.505 1238.69 997.863 1240.53 1000.85 1242.86C1002.3 1244.04 1007.41 1249.08 1008.61 1250.19C1015.77 1244.91 1051.74 1212.97 1055.01 1209.03ZM783.405 1128.05C784.424 1127.92 785.8 1127.83 786.149 1127.79C789.947 1127.47 793.772 1127.15 797.582 1126.71C808.546 1125.35 819.518 1123.84 830.497 1122.61C836.859 1121.9 841.9 1121.5 842.59 1121.14C843.252 1120.77 847.007 1116.58 850.931 1112.22C861.583 1100.43 871.221 1087.92 879.823 1074.74C888.219 1061.87 894.433 1048.09 897.741 1033.26C898.978 1027.64 900.241 1022.01 900.114 1016.15C896.142 1014.85 892.447 1012.92 888.789 1011.73C888.462 1011.95 887.796 1012.72 887.536 1013.04C880.599 1020.98 873.668 1028.97 866.764 1036.96C841.427 1066.23 814.973 1094.6 788.127 1122.67C787.212 1123.63 783.19 1128.08 783.405 1128.05ZM1118.92 1309.56C1124.01 1307.15 1127.84 1305.12 1131.84 1303.57C1135.81 1302 1139.71 1300.28 1143.74 1298.96C1148.03 1297.59 1152.4 1296.4 1156.79 1295.55C1161.2 1294.67 1165.7 1294.14 1170.2 1293.74C1174.7 1293.34 1179.19 1293.16 1183.7 1293.09C1187.97 1293.03 1192.27 1293.03 1196.52 1293.33C1201 1293.65 1205.46 1294.25 1209.89 1294.91C1214.27 1295.55 1219.18 1296.76 1223.86 1297.59C1223.58 1295.32 1222.97 1293.03 1222.5 1291.22C1219.25 1278.63 1215.82 1266.07 1212.68 1253.45C1211.93 1250.46 1210.49 1248.51 1207.59 1247.3C1197.46 1243.04 1186.96 1240.23 1175.77 1239.79C1163.06 1239.31 1151.33 1242.64 1140.04 1248.19C1136.5 1249.94 1134.52 1252.16 1133.55 1255.77C1130.47 1267.39 1127.08 1278.93 1123.89 1290.51C1122.29 1296.31 1120.86 1302.1 1118.92 1309.56ZM904.326 1017.63C903.865 1019.85 903.413 1022.14 903.126 1023.99C900.898 1039.41 895.955 1054.01 888.128 1067.74C877.843 1085.79 865.003 1102.11 850.622 1117.42C849.922 1118.15 849.114 1119.1 847.902 1120.3C848.769 1120.27 851.198 1120.1 852.085 1120.01C866.015 1118.65 879.899 1117.13 893.827 1115.97C897.839 1115.63 901.233 1114.47 904.446 1112.27C915.475 1104.85 924.446 1095.53 932.158 1085.05C933.069 1083.83 933.827 1082.48 934.531 1081.14C940.468 1069.73 944.928 1057.83 946.801 1045.25C947.515 1040.47 948.221 1035.84 947.448 1031.13C946.151 1030.55 943.385 1029.53 940.655 1028.59C929.336 1024.65 915.03 1020.34 904.326 1017.63ZM1280.6 867.884C1279.72 870.226 1278.47 872.434 1277.47 874.738C1271.16 889.226 1265.04 903.791 1258.52 918.2C1256.33 923.117 1255.41 927.98 1256.24 933.164C1257.87 943.51 1259.27 953.886 1261.14 964.177C1264.83 984.304 1274.11 1002.1 1286.74 1018.4C1287.51 1019.38 1288.83 1020.76 1289.64 1021.17C1291.12 1020.19 1292.5 1019.45 1293.69 1018.51C1304.22 1010.3 1314.71 1002.05 1325.17 993.799C1326.16 993.009 1327.26 992.181 1328.03 991.367C1327.59 990.651 1327.08 990.047 1326.79 989.749C1317.25 979.894 1310.82 968.216 1305.58 955.981C1301.34 946.137 1297.51 936.139 1293.98 926.054C1288.2 909.471 1282.94 892.746 1281.39 875.177C1281.17 872.741 1280.69 870.337 1280.6 867.884ZM911.673 1015.65C913.962 1016.54 917.087 1017.39 918.533 1017.85C928.307 1020.95 936.783 1023.47 946.526 1026.76C950.277 1028.04 952.755 1028.71 954.407 1028.43C956.238 1028.04 960.285 1026.44 961.538 1026C973.015 1021.76 983.623 1016.21 992.943 1008.38C1010.2 993.878 1019.44 975.538 1023.46 954.329C1013.57 943.746 1004.41 932.612 993.696 922.338C992.989 921.681 992.034 920.567 991.324 919.885C990.908 920.707 990.274 922.402 989.871 923.324C987.373 928.869 985.156 934.482 982.455 939.924C974.085 956.744 963.003 971.873 950.248 986.027C943.114 993.917 935.247 1000.95 926.08 1006.7C921.762 1009.42 917.004 1012.32 911.673 1015.65ZM1343.9 1258.15C1343.14 1256.85 1342.36 1256.21 1341.95 1255.77C1328.51 1241.78 1313.52 1229.31 1299.24 1216.14C1298.04 1215.06 1296.31 1213.83 1295.71 1213.81C1293.9 1213.88 1291.38 1214.44 1289.63 1214.79C1273.18 1217.98 1257.35 1222.97 1242.31 1230.27C1233.81 1234.38 1225.47 1238.72 1218.24 1244.7C1217.08 1245.66 1216.1 1246.81 1215.23 1247.66C1219.37 1264.22 1223.39 1280.35 1227.43 1296.51C1227.59 1297.13 1228.05 1299.1 1228.28 1299.69C1228.33 1299.86 1228.69 1299.48 1229.4 1299.01C1235.54 1294.99 1242.25 1289.85 1249.02 1285.57C1255.98 1281.14 1263.35 1277.33 1271.1 1274.24C1278.62 1271.23 1286.3 1268.59 1294.16 1266.56C1302.23 1264.51 1310.24 1262.11 1318.4 1260.56C1323.88 1259.52 1328.44 1258.96 1333.69 1258.74C1336.83 1258.61 1340.6 1258.5 1343.9 1258.15ZM1104.94 880.619C1105.25 881.581 1105.93 883.37 1106.25 884.358C1107.27 887.362 1108.3 890.417 1109.39 893.465C1114.5 907.513 1119.75 921.519 1124.78 935.602C1125.71 938.259 1127.35 939.441 1130.15 939.352C1132.15 939.284 1134.23 939.18 1136.16 938.685C1142.93 936.897 1149.38 934.481 1155.23 930.498C1166.78 922.652 1176.62 913.298 1184.48 902.034C1186.69 898.834 1187.91 895.68 1188.13 891.932C1188.57 884.05 1189.06 876.161 1189.77 868.27C1191.65 847.428 1193.65 826.598 1195.59 805.749C1195.79 803.67 1195.99 799.103 1196.09 796.882C1194.83 799.22 1193.18 801.94 1192.43 803.367C1185.48 816.419 1177.61 828.993 1168.28 840.645C1160.57 850.249 1152.25 859.388 1141.77 866.409C1133.28 872.081 1124.5 877.223 1114.49 879.488C1111.95 880.059 1106.81 880.592 1104.94 880.619ZM897.833 1119.1C897.914 1120.19 898.173 1121.62 898.273 1122.43C898.771 1126.01 899.54 1129.59 899.823 1133.2C901.367 1152.49 899.244 1171.61 894.973 1190.54C892.693 1200.71 889.472 1210.52 884.139 1219.55C882.583 1222.16 881.594 1224.28 879.725 1226.77C878.371 1228.58 877.987 1228.78 877.275 1229.85C879.423 1229.17 882.018 1228.36 883.623 1227.7C890.284 1225 896.902 1222.18 903.59 1219.48C919.844 1212.93 936.098 1206.37 952.427 1199.99C955.413 1198.82 957.409 1197.14 958.457 1194.39C959.155 1192.56 959.911 1190.74 960.278 1188.88C961.926 1180.2 962.42 1171.44 962.071 1162.68C961.673 1151.77 960.364 1140.97 958.274 1130.25C957.297 1125.21 955.715 1120.35 953.456 1115.29C935.188 1116.35 916.679 1117.43 897.833 1119.1ZM1114.58 1311.02C1119.99 1291.33 1125.24 1272.17 1130.56 1252.7C1129.3 1251.37 1127.15 1249.79 1125.32 1248.63C1120.79 1245.75 1115.7 1244.2 1110.41 1243.03C1097.99 1240.28 1085.43 1240.42 1072.79 1241.19C1052.8 1242.38 1033.71 1247.78 1014.55 1252.87C1011.92 1253.58 1009.51 1254.62 1007.43 1256.49C993.618 1268.91 979.718 1281.28 965.877 1293.7C965.385 1294.12 963.723 1295.86 962.465 1296.92C965.258 1296.39 982.569 1291.78 988.279 1290.64C999.143 1288.47 1010.14 1287.19 1021.24 1286.46C1034.12 1285.63 1046.87 1285.78 1059.6 1287.87C1077.83 1290.9 1094.67 1296.82 1109.32 1307.66C1110.85 1308.78 1112.54 1309.7 1114.58 1311.02ZM1200.43 788.364C1200 794.577 1199.73 799.691 1199.28 804.778C1197.59 823.697 1195.8 842.629 1194.11 861.548C1193.19 872.184 1192.31 882.817 1191.58 893.455C1191.25 898.039 1192.16 899.004 1196.63 900.401C1197.28 900.603 1197.93 900.804 1198.58 900.93C1213.23 903.89 1227.21 902.519 1240.32 894.917C1243.21 893.224 1246.21 891.698 1249 889.864C1252.52 887.554 1256.04 885.168 1259.25 882.487C1263.83 878.634 1268.16 874.505 1272.6 870.517C1276.07 867.367 1278.69 863.705 1280.48 859.404C1283.54 852.019 1286.91 844.749 1290.11 837.448C1290.52 836.525 1290.8 835.54 1291.18 834.39C1254.94 829.868 1226.27 812.884 1200.43 788.364ZM994.125 917.229C995.424 918.71 996.9 920.299 998.16 921.683C1004.95 929.03 1011.74 936.377 1018.52 943.724C1020.29 945.636 1022.54 948.001 1023.83 949.457C1025.04 950.822 1027.09 952.698 1028.56 953.132C1029.35 953.368 1031.59 953.168 1033.96 952.747C1040.91 951.527 1047.46 949.253 1053.61 945.926C1071.29 936.397 1084.4 922.686 1094.35 906.106C1097.51 900.864 1099.99 895.348 1101.66 889.495C1102.38 886.992 1102.48 884.696 1101.45 882.078C1093.59 861.953 1085.94 841.726 1078.22 821.559C1077.94 820.849 1077.13 818.485 1076.73 817.868C1075.79 819.679 1074.81 822.366 1074.13 823.682C1072.42 827.205 1070.81 830.74 1069.04 834.219C1062.54 847.035 1054.65 859.125 1046.19 870.848C1033 889.164 1017 904.824 996.379 915.872C995.818 916.172 994.751 916.792 994.125 917.229ZM1315.5 792.779C1315 793.509 1314.26 795.268 1313.94 795.975C1305.22 814.353 1296.67 832.837 1287.81 851.156C1284.17 858.69 1283.62 866.33 1284.47 874.309C1285.31 882.392 1287.24 890.264 1289.19 898.133C1292.55 911.628 1297.13 924.714 1302.14 937.696C1305.07 945.265 1308.02 952.856 1311.54 960.171C1315.93 969.252 1320.68 978.186 1327.96 985.574C1328.99 986.627 1330.14 987.563 1331.16 988.49C1335.43 986.087 1353.63 972.388 1364.03 964.043C1367.54 961.195 1370.18 958.97 1371.07 958.013C1370.19 956.838 1369.33 955.61 1368.37 954.446C1356.32 939.999 1347.68 923.667 1340.83 906.55C1333.21 887.473 1328.04 867.633 1323.6 847.624C1319.97 831.314 1318.1 814.812 1316.64 798.233C1316.53 796.861 1315.93 791.828 1315.5 792.779ZM772.873 1274.72C775.666 1273.76 777.239 1273.05 778.398 1272.52C781.879 1270.96 785.318 1269.28 788.799 1267.72C802.691 1261.43 816.51 1255 830.544 1248.98C841.268 1244.36 852.209 1240.19 863.133 1236.09C868.177 1234.18 871.954 1231.28 875.074 1227.01C882.008 1217.51 886.749 1207.22 889.837 1196.11C894.049 1180.88 895.893 1165.43 896.57 1149.79C896.922 1141.2 896.363 1132.73 894.749 1124.3C894.49 1122.87 893.966 1121.5 893.515 1119.84C889.304 1119.46 885.263 1120.01 881.25 1120.35C877.187 1120.73 873.159 1121.18 869.105 1121.63C865.078 1122.07 861.018 1122.47 857.006 1123.05C853.048 1123.61 848.23 1123.82 845.171 1124.61C844.576 1128.38 844.276 1132.12 843.517 1135.44C841.083 1146.35 838.509 1157.21 835.905 1168.06C835.12 1171.39 834.224 1174.71 833.188 1177.99C826.547 1199.32 816.435 1219.21 804.221 1238.17C797.099 1249.24 788.155 1259 778.851 1268.49C777.355 1270.04 775.528 1271.98 772.873 1274.72ZM1103.38 876.808C1110.06 877.572 1113.44 877.154 1119.16 874.778C1132.39 869.291 1144.01 861.64 1153.89 851.512C1163.99 841.202 1172.64 829.891 1179.95 817.719C1185.32 808.765 1190.33 799.597 1195.32 790.433C1196.3 788.619 1196.62 786.372 1196.85 784.29C1197.59 777.064 1198.16 769.807 1198.79 762.568C1201.01 737.243 1204.78 712.011 1205.9 686.591C1205.96 685.3 1206.45 677.797 1206.6 675.109C1205.83 676.334 1203.73 680.649 1203.12 681.725C1198.86 689.079 1194.77 696.515 1190.39 703.781C1175.01 729.221 1157.02 752.955 1136.16 774.683C1126.96 784.292 1117.15 793.231 1105.38 799.975C1099.56 803.288 1093.53 806.242 1087.57 809.315C1084.8 810.735 1081.99 812.007 1078.94 813.463C1087.12 834.702 1095.2 855.619 1103.38 876.808ZM1210.33 674.647C1209.98 679.31 1209.66 683.97 1209.31 688.633C1208.51 699.075 1207.81 709.504 1206.85 719.941C1205.19 737.368 1203.3 754.798 1201.65 772.25C1201.32 775.78 1201.2 780.081 1201.6 782.88C1202.69 784.67 1204.12 786.29 1205.62 787.85C1206.69 789.001 1209.74 792.164 1210.23 792.591C1221.18 802.068 1232.78 810.692 1246.16 816.992C1256.39 821.809 1266.73 826.431 1277.94 829.022C1282.95 830.172 1288.03 830.905 1293.03 830.44C1297.76 822.693 1323.26 767.513 1325.94 759.226C1314.68 754.716 1303.21 750.438 1292.71 744.295C1282.23 738.149 1271.99 731.717 1262.18 724.59C1252.4 717.46 1243.13 709.83 1234.4 701.568C1225.7 693.302 1218.65 683.781 1210.33 674.647ZM1225.12 521.007C1224.84 520.939 1221.58 526.988 1220.62 528.853C1216.42 536.943 1212.4 545.115 1208.03 553.15C1199.32 569.191 1190.15 585.033 1181.7 601.196C1169.2 625.097 1154.95 648.061 1140.29 670.818C1131.2 684.929 1121.48 698.709 1112.07 712.655C1097.88 733.635 1083.68 754.641 1069.52 775.668C1068.44 777.265 1067.48 778.95 1066.62 780.365C1068.55 785.619 1070.39 790.395 1072.08 795.242C1073.73 800.017 1075.23 805.067 1077.7 809.894C1079.76 809.126 1082.1 808.272 1083.91 807.483C1102.2 799.367 1118.19 788.277 1131.87 774.11C1147.07 758.319 1160.8 741.503 1173.21 723.72C1185.26 706.496 1195.56 688.308 1205.53 669.98C1206.55 668.108 1207.3 665.988 1207.59 663.925C1208.23 659.251 1208.55 654.566 1208.95 649.871C1209.76 639.66 1210.34 629.399 1211.39 619.208C1212.58 607.716 1214.35 596.281 1215.54 584.79C1216.7 573.713 1218.66 562.767 1220.68 551.815C1222.14 543.806 1223.35 535.752 1224.59 527.72C1224.77 526.362 1225.12 522.392 1225.12 521.007ZM429.043 1439.66C470.57 1420.92 511.587 1401.13 552.541 1381.28C569.485 1373.05 586.291 1364.58 603.232 1356.32C615.938 1350.13 628.828 1344.32 641.431 1337.96C678.823 1319.01 716.573 1300.76 754.711 1283.23C759.295 1281.13 763.421 1278.61 766.978 1275.25C783.936 1259.21 799.251 1241.99 810.115 1221.58C819.236 1204.46 827.65 1187.12 832.133 1168.37C834.877 1156.89 837.45 1145.36 840.026 1133.85C840.595 1131.19 840.713 1127.96 841.098 1124.91C838.711 1124.98 835.625 1125.33 833.033 1125.5C831.057 1125.59 829.147 1125.78 827.244 1126.01C811.559 1127.93 795.881 1129.89 779.422 1131.93C778.45 1132.87 776.87 1134.4 775.32 1135.96C762.652 1148.61 750.167 1161.42 737.28 1173.85C711.941 1198.26 686.195 1222.24 659.957 1245.76C630.093 1272.53 600.575 1299.67 569.493 1325.18C549.924 1341.23 530.169 1357.1 510.411 1372.94C486.493 1392.12 462.513 1411.24 437.452 1429.1C431.649 1433.23 425.85 1437.38 420.14 1441.61C418.819 1442.59 415.3 1445.39 415.322 1445.57C415.344 1445.74 424.974 1441.52 429.043 1439.66ZM778.534 1277.8C782.495 1277.25 784.604 1277.15 788.559 1276.55C793.982 1275.73 800.43 1274.83 805.846 1274.39C817.298 1273.46 828.837 1273.01 840.315 1272.95C853.182 1272.89 865.904 1274.53 878.528 1276.69C901.382 1280.58 923.81 1285.87 944.949 1295.03C947.997 1296.35 950.947 1297.75 954.178 1299.23C971.617 1284 988.747 1268.69 1005.67 1253.27C1001.12 1246.83 997.967 1244.01 991.647 1241.33C976.967 1235.09 961.433 1231.85 945.316 1231.15C937.463 1230.81 929.54 1230.79 921.665 1231.15C907.942 1231.77 894.214 1232.78 880.478 1233.74C878.482 1233.88 876.459 1234.46 874.588 1235.18C861.604 1240.23 848.509 1245.03 835.742 1250.51C818.631 1257.84 801.754 1265.73 784.794 1273.4C782.549 1274.4 780.311 1275.44 778.142 1276.61C777.809 1276.78 774.445 1278.4 774.454 1278.48C775.228 1278.36 777.762 1277.94 778.534 1277.8ZM1428.74 1183.14C1427.92 1184.19 1405.47 1176.58 1403.03 1175.75C1396.04 1173.39 1389.18 1170.74 1382.23 1168.27C1381 1167.8 1379.71 1167.5 1378.13 1167.05C1377.05 1168.22 1375.9 1169.23 1375.07 1170.41C1362.15 1188.51 1353.79 1208.31 1350.78 1229.91C1349.82 1236.68 1349.14 1243.54 1349.17 1250.38C1349.18 1253.51 1349.43 1256.15 1349.97 1257.93C1350.01 1258.67 1350.5 1259.51 1352.11 1261.13C1356.61 1265.58 1360.98 1270.15 1365.43 1274.65C1377.48 1286.92 1389.51 1299.21 1401.66 1311.41C1406.58 1316.35 1411.73 1321.08 1416.79 1325.89C1417.57 1326.64 1423.25 1338.01 1423.25 1338.01C1423.25 1338.01 1422.47 1337.83 1422.25 1338.01C1421.25 1338.01 1421.77 1338.08 1421.25 1338.01C1420.47 1337.9 1414.99 1329.58 1413.43 1328C1411.21 1325.68 1408.22 1323.26 1405.94 1320.89C1395.84 1310.49 1385.38 1299.72 1375.42 1289.59C1367.32 1281.35 1359.03 1273.29 1350.96 1265.02C1348.65 1262.64 1346.15 1261.82 1342.7 1261.81C1325.97 1261.73 1310.05 1265.7 1294.12 1270.01C1271.76 1276.06 1251.8 1286.31 1233.75 1300.12C1232.36 1301.19 1231.07 1302.37 1229.44 1303.76C1231 1310.42 1232.66 1317.04 1234.11 1323.68C1235.54 1330.36 1244.48 1370.29 1245.75 1377.01C1246.2 1379.34 1245.57 1378.68 1244.24 1378.51C1242.44 1378.27 1242.54 1378.22 1242.31 1377.01C1240.94 1369.89 1231.97 1330.13 1230.36 1323.07C1228.83 1316.2 1226.9 1309.41 1225.03 1302.2C1223.57 1301.66 1222.01 1300.88 1220.32 1300.44C1209.84 1297.76 1199.11 1296.63 1188.24 1296.59C1181.49 1296.55 1174.69 1296.6 1167.96 1297.22C1162.37 1297.74 1156.72 1298.72 1151.32 1300.21C1143.06 1302.51 1134.98 1305.36 1127.31 1309.13C1126.69 1309.42 1126.03 1309.63 1125.45 1309.93C1118.44 1313.54 1117.96 1314.06 1116.3 1321.61C1113.98 1332.29 1111.8 1343.03 1109.5 1353.71C1109.14 1355.4 1099.36 1406.42 1098.74 1408.01C1098.5 1408.66 1098.57 1409.51 1096.74 1409.01C1095.02 1408.56 1095.5 1409.15 1095.74 1408.01C1096.93 1402.19 1107.81 1344.86 1109.02 1339.07C1110.3 1332.9 1111.6 1326.73 1112.88 1320.57C1113.02 1319.94 1113.16 1319.3 1113.33 1318.69C1113.86 1316.62 1113.28 1315.03 1111.48 1313.63C1100.81 1305.3 1089.05 1298.86 1075.73 1295.06C1062.5 1291.28 1049 1289.13 1035.12 1289.57C1025.66 1289.86 1016.17 1290.17 1006.75 1291C995.226 1292.01 984.081 1294.98 972.918 1297.8C968.986 1298.8 965.003 1299.6 961.135 1300.9C957.546 1301.81 954.615 1303.64 951.953 1306.1C938.763 1318.28 925.508 1330.37 912.282 1342.47C897.423 1356.12 867.197 1383.7 852.332 1397.3C850.891 1398.63 804.401 1447.94 802.739 1449.01C802.257 1449.3 800.385 1449.9 799.739 1449.51C798.977 1449.07 798.093 1449.6 798.239 1449.01C798.329 1448.64 845.836 1398.03 846.153 1397.73C867.256 1378.46 903.726 1345.25 924.832 1326.01C932.221 1319.29 939.612 1312.6 946.974 1305.89C948.097 1304.85 949.903 1303.17 951.212 1301.88C949.09 1300.78 946.6 1299.57 944.439 1298.61C932.812 1293.5 920.77 1289.45 908.334 1286.39C887.849 1281.41 867.12 1277.53 845.874 1276.52C831.882 1275.84 817.919 1276.72 803.948 1277.96C796.488 1278.6 789.069 1279.57 781.723 1280.92C777.757 1281.64 773.013 1282.23 769.075 1283.18C766.22 1283.86 764.531 1284.51 761.716 1285.29C756.818 1286.62 751.797 1288.93 747.102 1290.8C739.759 1293.71 732.617 1297.13 725.508 1300.61C704.949 1310.64 684.355 1320.61 663.794 1330.63C637.585 1343.39 611.38 1356.18 585.172 1368.95C553.521 1384.37 521.91 1399.88 490.154 1415.1C470.347 1424.61 450.29 1433.64 430.38 1442.98C423.487 1446.22 417.518 1448.01 410.739 1451.51C408.796 1452.52 408.952 1452.34 407.239 1453.01C405.526 1453.69 404.12 1453.32 403.239 1453.01C402.346 1452.61 401.97 1452.87 401.81 1452.01C401.81 1452.01 400.722 1451.62 401.81 1450.51C402.684 1449.66 402.528 1449.95 403.475 1449.24C463.163 1405.71 454.291 1413.64 535.707 1347.97C556.123 1331.51 576.695 1315.2 596.233 1297.79C630.794 1266.98 665.164 1235.93 699.377 1204.72C725.716 1180.7 751.093 1155.71 775.862 1130.22C815.112 1089.79 853.096 1048.36 889.115 1005.35C921.884 966.208 953.612 926.35 983.849 885.444C1003.02 859.562 1022.39 833.783 1041.7 807.985C1064.06 778.141 1084.73 747.274 1105.29 716.318C1112.19 705.941 1119.46 695.802 1126.37 685.451C1145.65 656.501 1163.65 626.913 1180.22 596.502C1193.77 571.674 1207.34 546.896 1220.23 521.765C1223.61 515.188 1227.36 508.82 1230.94 502.345C1238.22 489.202 1245.46 476.063 1252.77 462.943C1259.85 450.209 1267.13 437.553 1274.03 424.738C1278.26 416.875 1281.94 408.797 1285.85 400.818C1291.47 389.317 1297.21 377.853 1304.17 367.008C1304.88 365.919 1427.86 165.969 1428.75 165.012C1428.91 164.812 1428.75 168.012 1428.75 168.012C1429.09 168.149 1317.75 356.012 1314.75 360.512C1310.75 368.012 1311.2 366.284 1310.75 367.008C1301.4 382.05 1291.39 398.566 1283.43 414.233C1275.85 429.132 1267.56 443.71 1259.5 458.413C1253.24 469.839 1246.93 481.272 1240.58 492.683C1237.71 497.812 1234.77 502.898 1231.86 508.006C1231.01 509.497 1230.84 510.931 1230.55 512.814C1230.23 515.061 1229.79 516.989 1229.48 519.081C1228.32 526.692 1227.31 534.338 1226.1 541.956C1223.88 555.91 1221.44 569.84 1219.34 583.807C1217.82 593.773 1216.55 603.759 1215.48 613.748C1214.51 622.902 1213.96 632.081 1213.19 641.236C1212.62 648.288 1212.18 655.323 1211.36 662.328C1211.05 665.037 1211.4 667.226 1212.83 669.589C1219.31 680.132 1227.33 689.533 1236.22 698.237C1252.98 714.668 1272.14 728.285 1292.69 740.216C1302.11 745.673 1312.04 750.089 1322.25 754.011C1323.87 754.631 1325.63 754.978 1327.71 755.541C1328.75 753.36 1329.74 751.491 1330.54 749.52C1335.61 736.649 1340.97 723.897 1347.53 711.613C1348.05 710.677 1427.62 589.513 1428.24 588.64C1427.85 588.56 1428.43 588.386 1428.24 588.64C1428.58 588.726 1428.61 588.964 1428.74 589.64C1428.92 590.439 1429.03 590.886 1428.74 591.64C1427.99 593.658 1349.61 715.847 1348.57 717.747C1344 725.96 1340.58 734.597 1336.99 743.177C1332.81 753.14 1328.91 763.246 1324.04 772.935C1319.96 781.088 1319.13 789.327 1320.06 797.913C1320.92 805.762 1322.03 813.607 1322.92 821.453C1325.2 841.677 1330.28 861.35 1335.88 880.855C1341.19 899.395 1348.44 917.234 1358.38 933.995C1362.37 940.713 1369.77 950.858 1374.46 955.514C1376.37 954.225 1426.09 930.744 1427.24 930.14C1428.09 929.701 1428.18 929.517 1428.74 930.14C1429.03 930.464 1428.57 931.844 1427.74 932.64C1423.27 936.915 1375.26 960.034 1371.93 962.552C1369.44 964.425 1369.1 965.468 1368.61 968.326C1368.31 970.237 1368.27 972.141 1368.04 974.043C1367.48 978.476 1367.11 982.962 1366.4 987.412C1364.33 1000.12 1363.32 1012.82 1364.23 1025.69C1365.04 1037.11 1367.56 1047.99 1373.04 1058.17C1373.74 1059.44 1374.6 1060.65 1375.55 1062.17C1379.12 1061.81 1380.94 1061.27 1384.24 1060.66C1385.81 1060.39 1427.19 1054.84 1428.74 1054.64C1429.79 1054.49 1428.3 1054.78 1428.74 1056.14C1429.22 1057.57 1429.79 1057.84 1428.74 1058.17C1428.12 1058.38 1382.17 1064.66 1378.55 1065.55C1377.61 1068.03 1376.9 1070.42 1376.22 1073.1C1374.32 1080.57 1372.39 1088.08 1370.99 1095.67C1369.83 1101.97 1369.21 1108.36 1368.64 1114.72C1367.74 1124.4 1369.43 1133.89 1371.12 1143.34C1372.12 1148.99 1373.91 1154.46 1376.44 1159.74C1377.69 1162.36 1379.48 1163.63 1382.18 1164.55C1391.63 1167.87 1418.76 1175.07 1427.74 1179.04C1428.55 1179.4 1429.28 1182.43 1428.74 1183.14Z"
        fill="#0F0F0F" />
</svg>