<svg width="2064" height="219" viewBox="0 0 2064 219" fill="none" xmlns="http://www.w3.org/2000/svg">
<g clip-path="url(#clip0_190_8)">
<path d="M0 87.5V219L2064 219V95.5C2021 108 1879.8 125.7 1659 96.5C1442.2 21.3 1233 19.5 1155.5 28C991.667 75.1667 624.4 152.1 466 82.5C307.6 12.9 89.3333 56.8334 0 87.5Z" fill="#40454A"/>
<g filter="url(#filter0_d_190_8)">
<path d="M439 53C289.4 -10.2 84 37.3334 0 69V111C99.2 80.2 212.667 69.6667 257 68C330.6 67.2 412 90.9412 445 100C470.5 107 545.7 132.3 678.5 127.5C811.3 122.7 991.5 85.8333 1065 68C1131.17 54 1293.2 30.4 1412 48C1560.5 70 1573.5 99 1710.5 132.5C1820.1 159.3 1991.83 129.333 2064 111V69C1979.6 92.6 1902.83 102.5 1875 104.5C1775 104.5 1733.7 111.7 1544.5 40.5C1355.3 -30.7 1098.33 10.8333 993.5 40.5C871 71 588.6 116.2 439 53Z" fill="#0CAB34"/>
</g>
</g>
<defs>
<filter id="filter0_d_190_8" x="-10" y="-8.81323" width="2084" height="161.978" filterUnits="userSpaceOnUse" color-interpolation-filters="sRGB">
<feFlood flood-opacity="0" result="BackgroundImageFix"/>
<feColorMatrix in="SourceAlpha" type="matrix" values="0 0 0 0 0 0 0 0 0 0 0 0 0 0 0 0 0 0 127 0" result="hardAlpha"/>
<feOffset/>
<feGaussianBlur stdDeviation="5"/>
<feComposite in2="hardAlpha" operator="out"/>
<feColorMatrix type="matrix" values="0 0 0 0 0 0 0 0 0 0 0 0 0 0 0 0 0 0 0.25 0"/>
<feBlend mode="normal" in2="BackgroundImageFix" result="effect1_dropShadow_190_8"/>
<feBlend mode="normal" in="SourceGraphic" in2="effect1_dropShadow_190_8" result="shape"/>
</filter>
<clipPath id="clip0_190_8">
<rect width="2064" height="219" fill="white"/>
</clipPath>
</defs>
</svg>
