<svg width="1123" height="1262" viewBox="0 0 1123 1262" fill="none" xmlns="http://www.w3.org/2000/svg">
<path d="M353.327 504.022L351.999 503.42C351.517 503.214 304.411 481.857 249.553 431.199C198.944 384.479 131.139 302.508 95.6014 177.394C92.5804 166.784 51.8404 11.3248 49.5 1.04191H52C54.357 11.3076 95.0204 166.045 98.0247 176.655C133.413 301.167 200.869 382.742 251.246 429.239C300.659 474.876 343.666 496.559 351.667 500.394C428.684 210.753 385.448 2.66663 385 0.5H388C388.465 2.66663 431.456 211.561 353.725 502.56L353.327 504.022Z" fill="#0F0F0F"/>
<path d="M347.317 504.521L351.749 501.15C352.413 500.652 420.401 448.652 501.119 360.801C575.58 279.759 674.503 155.965 732 1.58383L735.5 1.58384C677.82 156.395 577.539 281.427 502.912 362.658C433.613 438.077 373.676 487.119 357.509 499.929C622.72 449.186 809.022 326.307 918.854 231.835C1038.65 128.8 1119.94 1.97048 1120.5 1.04193H1123C1122.44 1.97048 1040.62 130.485 920.564 233.795C850.053 294.444 772.007 346.873 688.583 389.586C584.311 442.995 471.325 481.324 352.712 503.506L347.317 504.521Z" fill="#0F0F0F"/>
<path d="M0 896V892.381C0.979309 891.883 105.676 839.798 109.328 837.425C148.351 812.233 342.687 678.229 351.119 504.435C331.566 514.821 170.477 596.018 2.5 549.435L3.14734 546.89C180.519 596.069 350.189 502.01 351.882 501.064L353.841 499.947L353.758 502.268C346.869 678.487 150.044 814.228 110.673 839.66C106.905 842.085 3.98364 893.954 0 896Z" fill="#0F0F0F"/>
<path d="M0.5 1262V1260C1.28013 1259.45 204.803 1146.1 271.031 1033.4C330.935 931.466 393.163 759.821 353.758 517.176C353.044 540.803 349.028 590.584 329.641 655.101C304.51 738.791 247.677 865.212 119.619 992.115C107.187 1004.43 14.1585 1081.88 0 1094.5V1090.5C14.1585 1077.88 105.461 1002.5 117.86 990.223C245.469 863.751 302.137 737.828 327.184 654.448C354.339 564.12 351.268 502.904 351.235 502.285L353.742 501.975C373.411 612.938 373.793 718.81 354.837 816.704C339.683 895.046 312.195 968.437 273.123 1034.88C206.612 1148.03 1.28013 1261.47 0.5 1262Z" fill="#0F0F0F"/>
<path d="M208.769 263.99C181.681 263.99 152.799 260.397 122.839 251.421L123.536 248.91C273.238 293.721 396.133 203.428 397.362 202.5L398.839 204.632C397.86 205.371 318.071 263.99 208.769 263.99Z" fill="#0F0F0F"/>
<path d="M245.087 334.354C219.094 334.354 190.063 330.348 158.277 320.116L159.04 317.606C303.547 364.085 390.673 280.911 391.536 280.068L393.279 281.977C392.598 282.647 338.487 334.354 245.087 334.354Z" fill="#0F0F0F"/>
<path d="M239.576 393.386C230.58 393.386 221.152 392.922 211.326 391.942L211.575 389.328C327.416 400.935 385.195 337.862 385.776 337.226L387.635 339.014C387.104 339.616 337.856 393.386 239.576 393.386Z" fill="#0F0F0F"/>
<path d="M288.875 441.877C278.733 441.877 268.06 440.502 257.122 437.183L257.835 434.672C319.781 453.484 372.697 408.467 373.212 408.002L374.838 410.014C374.407 410.41 337.442 441.877 288.875 441.877Z" fill="#0F0F0F"/>
<path d="M302.618 467.98C299.979 467.98 297.29 467.86 294.535 467.636L294.734 465.023C336.396 468.444 365.327 443.7 365.61 443.459L367.236 445.454C366.971 445.695 340.911 467.98 302.618 467.98Z" fill="#0F0F0F"/>
<path d="M328.96 485.743C326.005 485.743 322.818 485.571 319.416 485.141L319.698 482.527C347.069 485.915 359.069 473.431 359.186 473.293L361.011 475.133C360.547 475.615 350.803 485.743 328.96 485.743Z" fill="#0F0F0F"/>
<path d="M328.594 515.698L326.984 513.686C337.474 504.606 332.843 493.378 332.644 492.896L334.968 491.83C335.018 491.968 340.595 505.329 328.594 515.698Z" fill="#0F0F0F"/>
<path d="M296.443 528.663L294.535 526.96C310.436 507.822 312.727 495.063 311.847 487.72C310.901 479.896 306.353 476.526 306.17 476.371L307.598 474.222C307.83 474.394 313.225 478.332 314.353 487.29C315.764 498.76 309.739 512.671 296.443 528.663Z" fill="#0F0F0F"/>
<path d="M263.777 539.891L261.951 538.051C262.283 537.708 294.401 502.612 275.313 453.484L277.653 452.504C297.372 503.248 264.109 539.53 263.777 539.891Z" fill="#0F0F0F"/>
<path d="M220.539 550.845L218.414 549.418C218.829 548.747 259.91 482.596 237.602 420.297L239.976 419.386C262.749 482.94 220.954 550.174 220.539 550.845Z" fill="#0F0F0F"/>
<path d="M169.763 559.185L167.837 557.483C168.501 556.674 234.696 475.168 199.275 377.309L201.649 376.397C237.618 475.735 170.443 558.36 169.763 559.185Z" fill="#0F0F0F"/>
<path d="M112.498 562.727L110.439 561.162C111.319 559.924 197.814 436.203 171.688 342.092L174.128 341.37C200.603 436.719 113.377 561.472 112.498 562.727Z" fill="#0F0F0F"/>
<path d="M57.6735 559.133L55.665 557.534C56.6112 556.245 150.194 427.519 133.96 276.234L136.483 275.959C152.816 428.293 58.6362 557.844 57.6735 559.133Z" fill="#0F0F0F"/>
<path d="M13.1564 551.137L11.5132 549.126C11.7622 548.919 36.4442 526.909 59.6489 472.589C81.0776 422.429 105.594 333.684 100.697 195.742L103.237 195.638C108.15 334.234 83.4512 423.444 61.8731 473.878C38.436 528.646 13.4054 550.914 13.1564 551.137Z" fill="#0F0F0F"/>
<path d="M349.642 538.791L347.119 538.499C347.135 538.327 348.878 520.615 336.944 511.123L338.488 509.043C351.584 519.429 349.725 538 349.642 538.791Z" fill="#0F0F0F"/>
<path d="M341.176 572.219L339.118 570.706C339.168 570.62 345.177 561.592 342.438 549.693C339.848 538.413 330.52 528.284 314.735 519.549L315.93 517.245C332.412 526.341 342.172 537.071 344.911 549.143C347.899 562.194 341.458 571.823 341.176 572.219Z" fill="#0F0F0F"/>
<path d="M327.598 599.611C327.515 599.181 319.233 557.345 284.193 531.724L285.654 529.574C321.557 555.832 330.005 598.665 330.088 599.095L327.598 599.611Z" fill="#0F0F0F"/>
<path d="M308.991 641.551L306.485 641.156C306.535 640.709 312.327 594.367 252.855 541.714L254.498 539.72C315.149 593.387 309.058 641.07 308.991 641.551Z" fill="#0F0F0F"/>
<path d="M288.31 674.24L285.77 674.102C285.803 673.535 287.895 616.497 225.318 549.074L227.144 547.234C290.551 615.569 288.326 673.672 288.31 674.24Z" fill="#0F0F0F"/>
<path d="M257.735 712.671L255.328 711.829C255.544 711.158 276.292 642.428 179.39 557.895L181.017 555.883C279.363 641.671 257.951 711.966 257.735 712.671Z" fill="#0F0F0F"/>
<path d="M215.575 756.451L213.218 755.523C213.534 754.646 244.025 667.103 131.637 562.675L133.33 560.732C247.096 666.433 215.907 755.574 215.575 756.451Z" fill="#0F0F0F"/>
<path d="M173.399 792.888L171.788 790.842C172.336 790.395 224.157 742.764 83.3516 562.521L85.3268 560.87C159.688 656.064 179.789 713.841 183.557 745.549C187.723 780.439 173.979 792.39 173.399 792.888Z" fill="#0F0F0F"/>
<path d="M105.947 842L103.74 841.128C104.062 840.025 134.775 728.033 26.5 554.601L28.385 553C85.3346 644.209 103.403 717.856 108.537 763.549C114.116 813.228 106.039 841.715 105.947 842Z" fill="#0F0F0F"/>
<path d="M189.748 909.491C183.938 909.491 173.531 908.081 163.257 899.586C146.426 885.675 137.147 859.022 135.637 820.384L138.176 820.264C139.654 858.128 148.617 884.11 164.834 897.523C179.025 909.25 193.748 906.585 193.898 906.55L194.362 909.13C194.163 909.181 192.453 909.491 189.748 909.491Z" fill="#0F0F0F"/>
<path d="M138.428 966C129.525 966 113.575 964.404 97.829 954.789C72.0348 939.042 57.8149 908.872 55.5 865.136L59.392 865C61.656 907.86 75.3926 937.271 100.246 952.453C121.995 965.728 144.559 962.711 144.788 962.672L145.5 965.591C145.195 965.65 142.575 966 138.428 966Z" fill="#0F0F0F"/>
<path d="M230.946 852.574C222.58 852.574 199.923 851.009 186.213 835.121C176.536 823.909 173.448 807.883 177.05 787.489L179.54 787.971C176.088 807.522 178.976 822.791 188.105 833.384C203.973 851.783 233.651 849.891 233.95 849.857L234.133 852.488C233.9 852.505 232.755 852.574 230.946 852.574Z" fill="#0F0F0F"/>
<path d="M254.15 804.874C245.12 804.874 231.742 803.103 221.982 794.144C213.268 786.182 209.234 774.06 209.981 758.137L212.504 758.257C211.79 773.337 215.558 784.755 223.642 792.184C238.514 805.82 263.345 801.589 263.594 801.538L264.026 804.117C263.611 804.203 259.71 804.874 254.15 804.874Z" fill="#0F0F0F"/>
<path d="M274.185 756.365C265.006 756.365 253.968 754.766 247.079 748.215C242 743.383 239.892 736.539 240.805 727.855L243.328 728.148C242.498 735.937 244.341 742.042 248.789 746.272C261.072 757.947 289.256 752.376 289.538 752.324L290.036 754.904C289.439 755.007 282.617 756.365 274.185 756.365Z" fill="#0F0F0F"/>
<path d="M295.531 708.132C289.273 708.132 282.401 707.169 277.322 703.868C273.537 701.426 271.147 697.935 270.185 693.516L272.641 692.931C273.454 696.645 275.48 699.586 278.65 701.649C289.655 708.785 310.818 703.799 311.034 703.764L311.614 706.309C311.083 706.447 303.846 708.132 295.531 708.132Z" fill="#0F0F0F"/>
<path d="M309.605 667.138C307.846 667.138 306.17 666.829 304.659 666.089C301.173 664.37 299.148 660.655 298.667 655.05L301.173 654.809C301.588 659.417 303.115 662.426 305.755 663.716C312.875 667.241 325.889 658.3 326.038 658.214L327.432 660.397C326.967 660.741 317.606 667.138 309.605 667.138Z" fill="#0F0F0F"/>
<path d="M328.578 624.201C327.532 624.201 326.503 624.046 325.507 623.651C322.917 622.653 321.141 620.332 320.229 616.755L322.685 616.085C323.382 618.836 324.594 620.504 326.403 621.192C330.022 622.602 335.433 619.661 337.209 618.406L338.636 620.573C338.387 620.745 333.441 624.201 328.578 624.201Z" fill="#0F0F0F"/>
<path d="M343.433 585.838C342.935 585.838 342.437 585.769 341.89 585.597C339.533 584.84 337.69 582.433 336.412 578.444L338.802 577.618C339.815 580.714 341.143 582.605 342.637 583.087C344.097 583.551 345.375 582.571 345.392 582.571L346.936 584.651C346.853 584.703 345.409 585.838 343.433 585.838Z" fill="#0F0F0F"/>
<path d="M354.72 571.153C352.115 571.153 350.023 568.35 348.131 562.349L350.521 561.541C352.596 568.058 354.306 568.642 354.737 568.539C356.646 568.505 359.102 563.002 360.148 559.271L362.588 560.01C362.057 561.867 359.235 571.084 354.787 571.153C354.754 571.153 354.737 571.153 354.72 571.153Z" fill="#0F0F0F"/>
<path d="M355.252 606.988C351.285 606.988 347.201 602.191 342.803 592.355L345.093 591.255C350.438 603.171 353.974 604.564 355.6 604.34C359.252 603.842 362.057 594.848 362.97 589.294L365.46 589.741C365.194 591.392 362.605 606.025 355.932 606.937C355.7 606.971 355.484 606.988 355.252 606.988Z" fill="#0F0F0F"/>
<path d="M378.855 811.597C372.398 811.597 363.966 784.463 360.563 772.563L363.003 771.824C368.813 792.201 376.282 809.654 378.822 808.966C381.295 808.416 387.586 793.181 366.273 621.209C364.53 626.11 361.377 632.266 356.314 633.108C350.654 634.054 344.595 628.5 337.773 616.085L339.981 614.795C346.039 625.817 351.55 631.268 355.899 630.529C361.426 629.583 364.713 618.664 365.51 614.537L367.003 606.679L367.999 614.623C392.283 808.708 382.888 810.755 379.336 811.528C379.187 811.58 379.021 811.597 378.855 811.597Z" fill="#0F0F0F"/>
<path d="M350.836 667C343.665 667 336.694 659.778 330.121 645.541L332.412 644.406C338.537 657.663 344.711 664.387 350.836 664.387C350.886 664.387 350.969 664.37 351.019 664.37C360.131 664.163 366.472 648.894 366.522 648.739L368.862 649.753C368.58 650.441 361.824 666.743 351.102 667C351.002 667 350.919 667 350.836 667Z" fill="#0F0F0F"/>
<path d="M345.558 706.017C336.279 706.017 327.382 698.176 319.083 682.7L321.291 681.427C329.109 696.009 337.275 703.403 345.558 703.403C345.574 703.403 345.591 703.403 345.607 703.403C357.658 703.369 366.173 687.497 366.273 687.343L368.497 688.598C368.115 689.303 359.152 705.983 345.624 706.017C345.591 706.017 345.574 706.017 345.558 706.017Z" fill="#0F0F0F"/>
<path d="M342.886 758.824C331.367 758.824 318.27 746.048 303.896 720.788L306.07 719.464C320.594 744.965 333.973 757.621 344.712 756.073C358.024 754.147 363.883 731.501 363.933 731.277L366.389 731.948C366.14 732.945 360.032 756.52 345.06 758.669C344.347 758.773 343.616 758.824 342.886 758.824Z" fill="#0F0F0F"/>
<path d="M339.251 842.858C325.541 842.858 307.083 818.183 282.949 767.645L285.223 766.476C316.03 830.994 332.694 842.085 341.259 840.004C357.376 836.101 357.559 785.288 357.559 784.789H360.099C360.099 786.973 359.883 838.181 341.824 842.566C340.994 842.772 340.114 842.858 339.251 842.858Z" fill="#0F0F0F"/>
<path d="M333.325 895.476C318.453 895.476 293.472 866.588 258.947 809.43L261.088 808.055C306.751 883.612 327.001 895.614 335.948 892.416C346.554 888.598 346.006 860.673 344.894 850.235L347.417 849.96C347.583 851.559 351.451 889.613 336.778 894.892C335.699 895.287 334.537 895.476 333.325 895.476Z" fill="#0F0F0F"/>
<path d="M309.058 923.866C290.053 923.866 265.852 898.52 237.07 848.464L239.245 847.123C276.21 911.4 298.983 922.835 311.564 921.064C325.723 919.086 330.952 900.137 331.001 899.948L333.441 900.653C333.209 901.495 327.715 921.459 311.896 923.66C310.967 923.798 310.021 923.866 309.058 923.866Z" fill="#0F0F0F"/>
<path d="M303.481 999.733C286.583 999.733 254.913 961.628 209.218 886.225L211.359 884.833C271.678 984.343 296.194 1000.54 306.17 996.637C317.125 992.321 314.535 960.389 312.61 948.439L315.1 948.009C315.398 949.849 322.187 993.13 307.066 999.096C305.954 999.526 304.759 999.733 303.481 999.733Z" fill="#0F0F0F"/>
<path d="M178.699 1205C158.766 1205 121.406 1147.96 67.5 1035.09L70.0259 1033C141.182 1181.96 170.103 1206.21 181.871 1200.37C194.795 1193.91 191.74 1146.11 189.469 1128.22L192.406 1127.57C192.758 1130.33 200.767 1195.12 182.929 1204.05C181.617 1204.69 180.207 1205 178.699 1205Z" fill="#0F0F0F"/>
<path d="M266.948 1017.05C243.046 1017.05 212.471 987.111 175.955 927.924L178.096 926.497C225.8 1003.86 255.013 1016.84 271.147 1014.07C290.899 1010.7 297.672 983.294 297.738 983.019L300.194 983.655C299.912 984.841 292.941 1013.02 271.545 1016.67C270.052 1016.93 268.508 1017.05 266.948 1017.05Z" fill="#0F0F0F"/>
<path d="M416.318 667.585C389.063 667.585 359.7 552.582 358.455 547.612L360.895 546.959C369.377 580.559 396.051 667.344 417.114 664.92C429.63 663.527 445.879 629.91 452.154 477.661L454.693 477.764C449.515 603.24 437.315 665.315 417.38 667.534C417.031 667.568 416.683 667.585 416.318 667.585Z" fill="#0F0F0F"/>
<path d="M336.08 966.563C325.772 966.563 316.129 945.103 315.017 942.523L317.324 941.44C320.295 948.284 329.656 965.651 337.225 963.794C344.745 961.971 356.679 939.652 352.064 810.755L354.604 810.651C358.173 910.402 352.529 962.78 337.806 966.339C337.225 966.477 336.644 966.563 336.08 966.563Z" fill="#0F0F0F"/>
<path d="M236.19 1089.54C212.953 1089.54 185.2 1044.49 153.663 955.575L156.053 954.646C195.574 1066.12 222.115 1088.07 237.402 1086.86C258.499 1085.18 267.545 1039.99 267.628 1039.52L270.118 1040.04C269.753 1041.98 260.59 1087.65 237.601 1089.48C237.137 1089.51 236.655 1089.54 236.19 1089.54Z" fill="#0F0F0F"/>
<path d="M159.788 193.695C141.562 193.695 121.976 192.887 100.913 191.099L101.112 188.468C228.24 199.284 301.406 174.264 340.396 151.36C382.573 126.598 394.922 98.9482 395.055 98.673L397.362 99.7392C396.864 100.891 384.664 128.318 341.873 153.509C309.041 172.854 252.191 193.695 159.788 193.695Z" fill="#0F0F0F"/>
<path d="M134.375 96.0221C116.15 96.0221 96.5635 95.2139 75.5 93.4256L75.6992 90.7947C202.827 101.611 275.993 76.5913 314.983 53.6869C357.16 28.9254 369.51 1.27513 369.642 1L371.95 2.06612C371.452 3.21822 359.252 30.645 316.461 55.8363C283.629 75.1812 226.779 96.0221 134.375 96.0221Z" fill="#0F0F0F"/>
<path d="M379.668 478.882C375.751 478.882 368.215 477.094 360.331 465.556L362.389 464.042C372.514 478.831 381.577 476.045 381.677 476.011L382.44 478.521C382.307 478.573 381.312 478.882 379.668 478.882Z" fill="#0F0F0F"/>
<path d="M400.748 458.574C392.681 458.574 377.61 455.135 368.431 431.818L370.771 430.838C382.838 461.463 404.649 455.702 405.578 455.444L406.259 457.972C406.176 457.989 404.051 458.574 400.748 458.574Z" fill="#0F0F0F"/>
<path d="M427.655 427.124C413.928 427.124 393.063 421.69 374.274 394.676L376.332 393.145C406.375 436.375 440.535 422.825 441.963 422.24L442.909 424.665C442.776 424.733 436.784 427.124 427.655 427.124Z" fill="#0F0F0F"/>
<path d="M465.549 386.542C446.129 386.542 412.367 381.023 383.237 348.197L385.096 346.425C427.82 394.521 480.488 382.691 481.019 382.57L481.583 385.115C481.4 385.167 475.276 386.542 465.549 386.542Z" fill="#0F0F0F"/>
<path d="M500.489 365.426C479.16 365.426 442.394 341.215 390.922 293.154L392.615 291.211C466.512 360.182 496.621 367.232 508.871 361.007C518.266 356.227 517.419 342.952 517.403 342.814L519.926 342.625C519.975 343.227 520.905 357.809 509.983 363.363C507.261 364.739 504.091 365.426 500.489 365.426Z" fill="#0F0F0F"/>
<path d="M545.272 324.639C519.013 324.639 468.52 290.764 394.74 223.581L396.416 221.621C502.597 318.311 541.338 328.233 555.148 319.514C566.601 312.31 561.621 290.97 561.571 290.746L564.028 290.11C564.26 291.056 569.489 313.548 556.476 321.767C553.438 323.676 549.687 324.639 545.272 324.639Z" fill="#0F0F0F"/>
<path d="M573.788 235.979C540.956 235.979 486.248 218.508 399.222 148.162L400.782 146.081C500.307 226.538 556.924 237.372 586.868 232.299C608.346 228.654 616.148 216.754 616.214 216.634L618.339 218.078C617.99 218.611 609.824 231.061 587.266 234.895C583.249 235.566 578.768 235.979 573.788 235.979Z" fill="#0F0F0F"/>
<path d="M592.627 156.055C549.554 156.055 482.745 140.613 394.822 74.015L396.316 71.8828C490.911 143.553 560.758 155.625 602.686 153.149C647.933 150.466 671.138 130.777 671.37 130.588L672.98 132.6C672.034 133.425 648.912 153.028 602.835 155.762C599.598 155.951 596.179 156.055 592.627 156.055Z" fill="#0F0F0F"/>
<path d="M616.615 85C566.288 85 488.229 69.59 385.5 3.12789L387.245 1C497.77 72.5244 579.379 84.571 628.368 82.0999C681.235 79.4229 708.347 59.7743 708.619 59.5855L710.5 61.5933C709.395 62.417 682.379 81.9798 628.542 84.7083C624.76 84.897 620.765 85 616.615 85Z" fill="#0F0F0F"/>
<path d="M404.483 492.346C403.005 492.346 401.246 492.037 399.403 491.039C394.391 488.271 390.971 481.496 389.245 470.938L391.751 470.491C393.328 480.086 396.382 486.379 400.599 488.718C404.117 490.661 407.255 489.217 407.304 489.199L408.333 491.607C408.234 491.641 406.69 492.346 404.483 492.346Z" fill="#0F0F0F"/>
<path d="M378.373 498.674C378.19 498.622 373.974 497.505 371.999 493.859C370.87 491.744 370.721 489.268 371.551 486.499L373.974 487.29C373.344 489.337 373.427 491.108 374.223 492.569C375.634 495.2 378.954 496.112 378.987 496.129L378.373 498.674Z" fill="#0F0F0F"/>
<path d="M434.36 496.026C434.227 496.026 434.094 496.026 433.962 496.009C429.845 495.613 423.787 489.904 418.807 445.041L421.314 444.749C426.127 488.013 431.92 493.189 434.194 493.395C437.016 493.619 440.535 486.465 442.078 481.255L444.502 482.029C444.07 483.491 440.169 496.026 434.36 496.026Z" fill="#0F0F0F"/>
<path d="M470.727 478.71C469.499 478.71 468.254 478.487 467.009 477.988C456.552 473.895 451.34 452.16 451.523 413.385H454.046C453.846 460.173 461.465 473.018 467.889 475.546C474.81 478.263 482.379 469.493 482.446 469.407L484.355 471.144C484.056 471.488 477.881 478.71 470.727 478.71Z" fill="#0F0F0F"/>
<path d="M515.361 475.718C514.846 475.718 514.315 475.667 513.784 475.581C500.19 473.276 490.38 440.622 484.67 378.495L487.209 378.254C494.164 453.932 505.717 471.557 514.199 472.984C524.523 474.738 534.1 452.9 534.2 452.676L536.507 453.742C536.109 454.671 526.897 475.718 515.361 475.718Z" fill="#0F0F0F"/>
<path d="M560.758 447.259C559.214 447.259 557.588 446.984 555.911 446.331C539.28 439.883 529.652 401.124 527.329 331.173L529.852 331.07C532.707 416.772 546.085 439.711 556.791 443.872C564.675 446.933 571.514 439.487 571.58 439.401L573.439 441.189C573.174 441.482 567.879 447.259 560.758 447.259Z" fill="#0F0F0F"/>
<path d="M607.698 435.206C607.565 435.206 607.433 435.206 607.283 435.188C595.249 434.14 583.68 381.212 572.941 277.884L575.464 277.592C589.871 416.205 602.669 432.145 607.499 432.575C610.885 432.884 613.64 425.318 614.371 422.653L616.811 423.358C616.479 424.596 613.425 435.206 607.698 435.206Z" fill="#0F0F0F"/>
<path d="M669.694 397.565C667.935 396.103 626.72 360.044 619.815 211.51L622.338 211.372C629.194 358.462 670.856 395.157 671.287 395.519L669.694 397.565Z" fill="#0F0F0F"/>
<path d="M762.712 399.697C736.901 399.697 698.891 322.421 649.643 169.845L652.05 169.02C714.245 361.73 747.342 399.336 764.14 396.98C784.904 394.023 788.274 329.522 788.307 328.869L790.847 329.007C790.714 331.758 787.311 396.327 764.472 399.577C763.891 399.663 763.31 399.697 762.712 399.697Z" fill="#0F0F0F"/>
<path d="M846.136 291.537C842.717 291.537 823.064 290.489 795.61 268.272C768.455 246.313 728.237 198.424 690.84 95.0793L693.214 94.1508C764.272 290.506 845.688 288.924 846.534 288.889L846.634 291.52C846.584 291.52 846.402 291.537 846.136 291.537Z" fill="#0F0F0F"/>
<path d="M934.861 221C930.471 221 905.242 219.831 869.998 195.069C835.138 170.595 783.508 117.219 735.5 2.03494L738.547 1C829.768 219.85 934.285 218.087 935.372 218.049L935.5 220.981C935.436 220.981 935.202 221 934.861 221Z" fill="#0F0F0F"/>
<path d="M1034.92 124C1030.92 124 1007.97 123.346 975.893 109.502C944.17 95.819 897.187 65.9771 853.5 1.57862L856.273 1C939.284 123.357 1034.39 122.371 1035.38 122.35L1035.5 123.989C1035.44 123.989 1035.23 124 1034.92 124Z" fill="#0F0F0F"/>
<path d="M620.031 454.43C608.313 454.43 596.86 448.068 585.921 435.481L587.814 433.727C599.798 447.517 612.313 453.467 624.994 451.386C656.847 446.159 680.284 392.406 680.516 391.856L682.824 392.922C681.861 395.192 658.606 448.532 625.393 453.983C623.6 454.275 621.807 454.43 620.031 454.43Z" fill="#0F0F0F"/>
<path d="M687.67 665.543L702.452 639.301C704.073 638.606 704.269 639.377 704.094 641.603L698.346 651.731L692.597 665.543C691.74 668.436 691.765 670.155 692.597 673.37C694.284 681.139 695.688 685.478 699.577 693.167C706.914 698.823 711.222 701.654 719.382 705.856L721.339 702.835L738.584 703.295L740.226 705.137C748.324 702.495 752.408 700.334 758.703 695.008C764.315 687.273 765.943 682.63 768.557 674.291C769.11 670.875 769.043 668.961 768.147 665.543C763.856 656.17 755.418 644.826 755.418 642.524C755.418 640.222 755.027 638.793 757.471 641.142L766.094 652.652C769.423 657.977 771.137 661.048 772.663 667.385V674.291C770.819 684.535 769.585 690.279 764.041 700.533C755.849 705.327 750.809 707.417 741.458 710.662C751.053 711.624 756.443 711.685 766.094 709.741C773.603 704.263 776.978 700.707 782.518 694.088C783.36 693.985 782.725 672.374 782.928 671.068C783.131 669.762 784.981 671.068 784.981 671.068C785.868 680.056 786.287 685.096 785.802 694.088C780.483 703.532 777.245 708.68 768.557 716.186C758.452 717.723 752.789 717.697 742.69 716.647L742.279 718.949C750.486 722.071 754.192 725.328 760.756 730.459C764.186 735.712 764.838 737.601 766.468 742.324L766.504 742.429C767.342 747.167 767.486 749.437 767.736 753.478L766.504 759.463L758.703 772.815C756.999 773.282 756.369 773.117 756.65 770.973L763.63 758.082C764.555 754.292 764.759 752.175 764.451 748.414C762.692 741.921 760.956 738.442 755.418 732.761C750.304 727.352 747.093 725.075 741.047 721.711L739.816 723.553C745.829 728.402 748.215 731.567 752.134 737.364C752.81 746.905 752.527 752.103 751.723 761.305L743.511 778.339C741.624 779.54 741.038 779.343 741.047 776.958L747.617 761.305C748.242 753.034 748.426 748.397 747.617 740.127C744.622 734.357 742.43 731.208 736.942 725.855L735.299 726.315V738.285C734.409 739.648 733.881 739.859 732.836 738.285V732.761H726.677V738.285C725.875 739.215 725.425 739.454 724.624 738.285V726.315C719.304 731.297 716.599 734.485 712.716 741.508L713.538 758.543L718.875 776.958C719.126 778.656 718.026 779.32 716.822 778.339L709.432 758.543V738.285C712.365 731.572 715.088 728.473 720.928 723.553L720.107 722.632C712.373 726.379 708.342 728.818 702.452 734.602C698.901 738.809 697.737 741.56 695.882 746.572C695.312 751.951 695.624 754.977 696.703 760.384L702.452 774.196C702.21 775.286 701.825 775.439 700.809 775.117L693.829 761.305C692.394 755.541 691.737 752.313 691.365 746.572C691.903 738.848 693.254 734.614 697.524 727.236C705.104 722.674 709.657 720.785 718.054 718.028L691.365 717.568C683.991 710.72 679.885 706.86 673.71 699.152C672.828 690.995 672.474 686.438 672.889 678.434L675.763 669.687C677.065 668.852 677.481 669.134 677.816 670.608L676.584 676.132C675.307 685.445 676.603 690.019 678.637 699.152C683.109 704.104 685.872 706.418 690.955 710.265H715.591C707.14 706.386 702.686 703.909 695.061 699.152C691.105 689.164 689.453 683.52 687.67 673.37C687.273 670.025 687.147 668.22 687.67 665.543Z" fill="#0F0F0F"/>
<path d="M715.591 710.265C707.14 706.386 702.686 703.909 695.061 699.152C691.105 689.164 689.453 683.52 687.67 673.37C687.273 670.025 687.147 668.22 687.67 665.543L702.452 639.301C704.073 638.606 704.269 639.377 704.094 641.603L698.346 651.731L692.597 665.543C691.74 668.436 691.765 670.155 692.597 673.37C694.284 681.139 695.688 685.478 699.577 693.167C706.914 698.823 711.222 701.654 719.382 705.856M715.591 710.265L718.875 712.043L722.571 707.899L719.382 705.856M715.591 710.265H690.955C685.872 706.418 683.109 704.104 678.637 699.152C676.603 690.019 675.307 685.445 676.584 676.132L677.816 670.608C677.481 669.134 677.065 668.852 675.763 669.687L672.889 678.434C672.474 686.438 672.828 690.995 673.71 699.152C679.885 706.86 683.991 710.72 691.365 717.568L718.054 718.028C709.657 720.785 705.104 722.674 697.524 727.236C693.254 734.614 691.903 738.848 691.365 746.572C691.737 752.313 692.394 755.541 693.829 761.305L700.809 775.117C701.825 775.439 702.21 775.286 702.452 774.196L696.703 760.384C695.624 754.977 695.312 751.951 695.882 746.572C697.737 741.56 698.901 738.809 702.452 734.602C708.342 728.818 712.373 726.379 720.107 722.632L720.928 723.553C715.088 728.473 712.365 731.572 709.432 738.285V758.543L716.822 778.339C718.026 779.32 719.126 778.656 718.875 776.958L713.538 758.543L712.716 741.508C716.599 734.485 719.304 731.297 724.624 726.315V738.285C725.425 739.454 725.875 739.215 726.677 738.285V732.761M726.677 727.236V732.761M726.677 732.761H732.836V738.285C733.881 739.859 734.409 739.648 735.299 738.285V726.315L736.942 725.855C742.43 731.208 744.622 734.357 747.617 740.127C748.426 748.397 748.242 753.034 747.617 761.305L741.047 776.958C741.038 779.343 741.624 779.54 743.511 778.339L751.723 761.305C752.527 752.103 752.81 746.905 752.134 737.364C748.215 731.567 745.829 728.402 739.816 723.553L741.047 721.711C747.093 725.075 750.304 727.352 755.418 732.761C760.956 738.442 762.692 741.921 764.451 748.414C764.759 752.175 764.555 754.292 763.63 758.082C760.904 763.116 759.376 765.939 756.65 770.973C756.369 773.117 756.999 773.282 758.703 772.815L766.504 759.463L767.736 753.478C767.486 749.437 767.342 747.167 766.504 742.429C764.847 737.628 764.211 735.751 760.756 730.459C754.192 725.328 750.486 722.071 742.279 718.949L742.69 716.647C752.789 717.697 758.452 717.723 768.557 716.186C777.245 708.68 780.483 703.532 785.802 694.088C786.287 685.096 785.868 680.056 784.981 671.068C784.981 671.068 783.131 669.762 782.928 671.068C782.725 672.374 783.36 693.985 782.518 694.088C776.978 700.707 773.603 704.263 766.094 709.741C756.443 711.685 751.053 711.624 741.458 710.662C750.809 707.417 755.849 705.327 764.041 700.533C769.585 690.279 770.819 684.535 772.663 674.291V667.385C771.137 661.048 769.423 657.977 766.094 652.652L757.471 641.142C755.027 638.793 755.418 640.222 755.418 642.524C755.418 644.826 763.856 656.17 768.147 665.543C769.043 668.961 769.11 670.875 768.557 674.291C765.943 682.63 764.315 687.273 758.703 695.008C752.408 700.334 748.324 702.495 740.226 705.137L738.584 703.295L721.339 702.835L719.382 705.856" stroke="#0F0F0F"/>
<ellipse cx="730.372" cy="676.593" rx="21.3509" ry="28.5444" fill="#0F0F0F"/>
<ellipse cx="730.372" cy="716.186" rx="12.3178" ry="11.0494" fill="#0F0F0F"/>
<path d="M204.589 518.569L194.472 524.156C193.774 524.046 193.851 523.749 194.332 523.05L198.252 520.902L202.866 517.536C203.712 516.758 204.027 516.184 204.343 514.945C205.218 512.021 205.546 510.29 205.636 506.93C204.138 503.52 203.167 501.68 201.106 498.579L199.852 499.169L193.911 495.401L193.684 494.448C190.355 493.624 188.519 493.484 185.314 493.927C181.893 495.311 180.448 496.506 177.961 498.718C177.124 499.733 176.786 500.38 176.455 501.699C176.187 505.701 176.997 511.224 176.563 511.986C176.129 512.748 175.996 513.303 175.585 512.013L174.741 506.396C174.582 503.936 174.562 502.56 175.223 500.143L176.526 497.857C179.103 494.853 180.618 493.211 184.49 490.979C188.258 491.11 190.414 491.475 194.295 492.361C191.122 490.031 189.25 488.881 185.509 487.502C181.851 487.741 180 488.21 176.815 489.24C176.501 489.097 172.647 496.383 172.33 496.772C172.012 497.162 171.612 496.342 171.612 496.342C172.997 493.181 173.801 491.425 175.667 488.551C179.308 486.54 181.411 485.515 185.864 484.852C189.686 486.462 191.661 487.657 194.993 490.122L195.571 489.446C193.291 486.692 192.61 484.837 191.283 481.763C191.075 479.306 191.203 478.544 191.524 476.639L191.531 476.597C192.132 474.853 192.51 474.072 193.185 472.682L194.744 470.959L199.99 468.175C200.673 468.378 200.863 468.564 200.36 469.215L195.488 472.018C194.45 473.079 193.98 473.737 193.378 475.046C192.768 477.564 192.719 479.079 193.583 482.121C194.351 484.982 195.044 486.409 196.523 488.79L197.301 488.439C196.113 485.573 195.876 484.025 195.6 481.285C197.163 477.986 198.242 476.325 200.259 473.448L206.343 469.531C207.229 469.529 207.396 469.717 206.943 470.505L201.694 474.308C199.916 476.915 198.977 478.411 197.7 481.318C197.658 483.855 197.831 485.357 198.74 488.279L199.401 488.471L201.659 484.509C202.227 484.245 202.451 484.286 202.52 485.026L201.478 486.854L203.631 488.145L204.673 486.317C205.128 486.177 205.331 486.192 205.391 486.747L203.133 490.709C205.932 490.175 207.479 489.687 210.161 488.176L213.087 482.366L214.695 475.152C214.927 474.538 215.437 474.549 215.673 475.126L214.522 483.227L210.702 489.932C208.41 491.539 206.873 491.994 203.904 492.398L204.017 492.875C207.428 493.256 209.297 493.293 212.447 492.614C214.482 491.966 215.408 491.299 217.001 490.029C218.215 488.369 218.677 487.302 219.32 485.286L219.915 479.509C220.205 479.199 220.369 479.229 220.663 479.549L220.498 485.583C219.913 487.792 219.533 488.998 218.58 490.976C216.936 493.42 215.665 494.538 212.78 496.085C209.27 496.006 207.322 495.676 203.866 494.829L213.11 500.576C214.396 504.388 215.103 506.526 215.808 510.372C214.578 513.256 213.842 514.839 212.188 517.401L209.533 519.693C208.92 519.697 208.828 519.516 208.989 518.958L210.462 517.388C212.665 514.573 213.074 512.788 214.086 509.339C213.457 506.762 212.927 505.417 211.876 503.079L203.263 497.915C205.486 500.97 206.576 502.723 208.344 505.896C207.843 510.031 207.356 512.245 206.065 515.978C205.573 517.168 205.277 517.792 204.589 518.569Z" fill="#0F0F0F"/>
<path d="M203.263 497.915C205.486 500.97 206.576 502.723 208.344 505.896C207.843 510.031 207.356 512.245 206.065 515.978C205.573 517.168 205.277 517.792 204.589 518.569L194.472 524.156C193.774 524.046 193.851 523.749 194.332 523.05L198.252 520.902L202.866 517.536C203.712 516.758 204.027 516.184 204.343 514.945C205.218 512.021 205.546 510.29 205.636 506.93C204.138 503.52 203.167 501.68 201.106 498.579M203.263 497.915L202.45 496.638L200.377 497.234L201.106 498.579M203.263 497.915L211.876 503.079C212.927 505.417 213.457 506.762 214.086 509.339C213.074 512.788 212.665 514.573 210.462 517.388L208.989 518.958C208.828 519.516 208.92 519.697 209.533 519.693L212.188 517.401C213.842 514.839 214.578 513.256 215.808 510.372C215.103 506.526 214.396 504.388 213.11 500.576L203.866 494.829C207.322 495.676 209.27 496.006 212.78 496.085C215.665 494.538 216.936 493.42 218.58 490.976C219.533 488.998 219.913 487.792 220.498 485.583L220.663 479.549C220.369 479.229 220.205 479.199 219.915 479.509L219.32 485.286C218.677 487.302 218.215 488.369 217.001 490.029C215.408 491.299 214.482 491.966 212.447 492.614C209.297 493.293 207.428 493.256 204.017 492.875L203.904 492.398C206.873 491.994 208.41 491.539 210.702 489.932L214.522 483.227L215.673 475.126C215.437 474.549 214.927 474.538 214.695 475.152L213.087 482.366L210.161 488.176C207.479 489.687 205.932 490.175 203.133 490.709L205.391 486.747C205.331 486.192 205.128 486.177 204.673 486.317L203.631 488.145M202.589 489.974L203.631 488.145M203.631 488.145L201.478 486.854L202.52 485.026C202.451 484.286 202.227 484.245 201.659 484.509L199.401 488.471L198.74 488.279C197.831 485.357 197.658 483.855 197.7 481.318C198.977 478.411 199.916 476.915 201.694 474.308L206.943 470.505C207.396 469.717 207.229 469.529 206.343 469.531L200.259 473.448C198.242 476.325 197.163 477.986 195.6 481.285C195.876 484.025 196.113 485.573 197.301 488.439L196.523 488.79C195.044 486.409 194.351 484.982 193.583 482.121C192.719 479.079 192.768 477.564 193.378 475.046C193.98 473.737 194.45 473.079 195.488 472.018C197.391 470.924 198.457 470.31 200.36 469.215C200.863 468.564 200.673 468.378 199.99 468.175L194.744 470.959L193.185 472.682C192.51 474.072 192.132 474.853 191.531 476.597C191.205 478.533 191.073 479.288 191.283 481.763C192.61 484.837 193.291 486.692 195.571 489.446L194.993 490.122C191.661 487.657 189.686 486.462 185.864 484.852C181.411 485.515 179.308 486.54 175.667 488.551C173.801 491.425 172.997 493.181 171.612 496.342C171.612 496.342 172.012 497.162 172.33 496.772C172.647 496.383 176.501 489.097 176.815 489.24C180 488.21 181.851 487.741 185.509 487.502C189.25 488.881 191.122 490.031 194.295 492.361C190.414 491.475 188.258 491.11 184.49 490.979C180.618 493.211 179.103 494.853 176.526 497.857L175.223 500.143C174.562 502.56 174.582 503.936 174.741 506.396L175.585 512.013C175.996 513.303 176.129 512.748 176.563 511.986C176.997 511.224 176.187 505.701 176.455 501.699C176.786 500.38 177.124 499.733 177.961 498.718C180.448 496.506 181.893 495.311 185.314 493.927C188.519 493.484 190.355 493.624 193.684 494.448L193.911 495.401L199.852 499.169L201.106 498.579" stroke="#0F0F0F"/>
<ellipse rx="8.70303" ry="10.8738" transform="matrix(-0.857639 -0.514251 0.495132 -0.868818 191.745 505.961)" fill="#0F0F0F"/>
<ellipse rx="5.02098" ry="4.2092" transform="matrix(-0.857639 -0.514251 0.495132 -0.868818 199.213 492.856)" fill="#0F0F0F"/>
<path d="M729.117 366.011V653.244" stroke="#0F0F0F" stroke-width="4"/>
</svg>
