<svg xmlns="http://www.w3.org/2000/svg" xmlns:xlink="http://www.w3.org/1999/xlink" viewBox="0 0 500 500"><defs><style>.cls-1{fill:url(#Dégradé_sans_nom_141);}.cls-2{fill:url(#Dégradé_sans_nom_138);}.cls-3{fill:url(#Dégradé_sans_nom_135);}.cls-4{fill:url(#Dégradé_sans_nom_132);}.cls-5{fill:url(#Dégradé_sans_nom_129);}.cls-6{fill:url(#Dégradé_sans_nom_126);}.cls-7{fill:url(#Dégradé_sans_nom_121);}.cls-8{fill:url(#Dégradé_sans_nom_118);}.cls-9{fill:url(#Dégradé_sans_nom_114);}.cls-10{fill:#29110d;}.cls-11{fill:#ff92aa;}.cls-12{fill:#1f222b;}.cls-13{fill:#f3b391;}.cls-14{fill:none;stroke:#0f0f0e;stroke-miterlimit:10;}.cls-15{fill:#f3b392;}.cls-16{fill:#bc634e;}.cls-17{fill:#160f0f;}.cls-18{fill:#141110;}.cls-19{fill:#0d0d0c;}.cls-20{fill:url(#Dégradé_sans_nom_100);}.cls-21{fill:#dbda11;}.cls-22{font-size:5.91px;fill:#d0de11;font-family:MyriadPro-Regular, Myriad Pro;}.cls-23{fill:#5b5351;}.cls-24{fill:url(#Dégradé_sans_nom_155);}.cls-25{fill:url(#Dégradé_sans_nom_155-2);}.cls-26{fill:url(#Dégradé_sans_nom_124);}.cls-27{fill:url(#Dégradé_sans_nom_124-2);}.cls-28{fill:url(#Dégradé_sans_nom_124-3);}.cls-29{fill:url(#Dégradé_sans_nom_124-4);}.cls-30{fill:url(#Dégradé_sans_nom_124-5);}.cls-31{fill:url(#Dégradé_sans_nom_124-6);}.cls-32{fill:url(#Dégradé_sans_nom_111);}.cls-33{fill:url(#Dégradé_sans_nom_127);}.cls-34{fill:url(#Dégradé_sans_nom_127-2);}.cls-35{fill:#0051bf;}.cls-36{fill:url(#Dégradé_sans_nom_131);}.cls-37{fill:url(#Dégradé_sans_nom_166);}.cls-38{fill:url(#Dégradé_sans_nom_166-2);}.cls-39{fill:url(#Dégradé_sans_nom_166-3);}.cls-40{fill:url(#Dégradé_sans_nom_166-4);}.cls-41{fill:url(#Dégradé_sans_nom_166-5);}.cls-42{fill:url(#Dégradé_sans_nom_166-6);}.cls-43{fill:url(#Dégradé_sans_nom_169);}.cls-44{fill:url(#Dégradé_sans_nom_166-7);}.cls-45{fill:url(#Dégradé_sans_nom_166-8);}.cls-46{fill:#40f;}.cls-47{fill:url(#Dégradé_sans_nom_171);}.cls-48{fill:#7c7301;}.cls-49{fill:#fff400;}.cls-50{fill:url(#Dégradé_sans_nom_175);}</style><linearGradient id="Dégradé_sans_nom_141" x1="321.91" y1="190.97" x2="433.48" y2="265.94" gradientUnits="userSpaceOnUse"><stop offset="0" stop-color="#d40b00"/><stop offset="0.12" stop-color="#d51106"/><stop offset="0.28" stop-color="#da2017"/><stop offset="0.47" stop-color="#e13a32"/><stop offset="0.67" stop-color="#eb5e59"/><stop offset="0.88" stop-color="#f78c8a"/><stop offset="1" stop-color="#faa"/></linearGradient><linearGradient id="Dégradé_sans_nom_138" x1="17.73" y1="221.8" x2="244.62" y2="221.8" gradientUnits="userSpaceOnUse"><stop offset="0" stop-color="#d40b00"/><stop offset="0.04" stop-color="#d61308"/><stop offset="0.38" stop-color="#e8534d"/><stop offset="0.67" stop-color="#f4827f"/><stop offset="0.88" stop-color="#fc9f9e"/><stop offset="1" stop-color="#faa"/></linearGradient><linearGradient id="Dégradé_sans_nom_135" x1="290.04" y1="258.33" x2="409.61" y2="338.68" xlink:href="#Dégradé_sans_nom_141"/><linearGradient id="Dégradé_sans_nom_132" x1="309.57" y1="178.2" x2="393.03" y2="234.29" xlink:href="#Dégradé_sans_nom_141"/><linearGradient id="Dégradé_sans_nom_129" x1="70.6" y1="282.83" x2="244.62" y2="282.83" gradientUnits="userSpaceOnUse"><stop offset="0" stop-color="#d40b00"/><stop offset="0.04" stop-color="#d61308"/><stop offset="0.38" stop-color="#e8534d"/><stop offset="0.66" stop-color="#f4827f"/><stop offset="0.88" stop-color="#fc9f9e"/><stop offset="0.99" stop-color="#faa"/></linearGradient><linearGradient id="Dégradé_sans_nom_126" x1="67.54" y1="198.42" x2="244.46" y2="198.42" xlink:href="#Dégradé_sans_nom_138"/><linearGradient id="Dégradé_sans_nom_121" x1="238.34" y1="241.24" x2="233.26" y2="569.81" gradientUnits="userSpaceOnUse"><stop offset="0" stop-color="#d40b00"/><stop offset="1" stop-color="#faa"/></linearGradient><linearGradient id="Dégradé_sans_nom_118" x1="209.89" y1="217.66" x2="348.82" y2="310.87" gradientTransform="translate(31.32 -31.92) rotate(6.14)" xlink:href="#Dégradé_sans_nom_141"/><linearGradient id="Dégradé_sans_nom_114" x1="94.59" y1="378.29" x2="263.23" y2="238.2" gradientTransform="translate(-82.13 78.36) rotate(-20.28)" gradientUnits="userSpaceOnUse"><stop offset="0.1" stop-color="#faa"/><stop offset="0.46" stop-color="#ffa8a8"/><stop offset="0.59" stop-color="#fda2a1"/><stop offset="0.69" stop-color="#fa9796"/><stop offset="0.76" stop-color="#f68785"/><stop offset="0.83" stop-color="#f0726f"/><stop offset="0.89" stop-color="#e95953"/><stop offset="0.94" stop-color="#e13b33"/><stop offset="0.98" stop-color="#d8190f"/><stop offset="1" stop-color="#d40b00"/></linearGradient><linearGradient id="Dégradé_sans_nom_100" x1="253.59" y1="509.05" x2="253.59" y2="160.8" gradientUnits="userSpaceOnUse"><stop offset="0" stop-color="#d40b00"/><stop offset="0.14" stop-color="#d50f05"/><stop offset="0.29" stop-color="#d91c13"/><stop offset="0.46" stop-color="#df322a"/><stop offset="0.63" stop-color="#e7504a"/><stop offset="0.8" stop-color="#f17773"/><stop offset="0.98" stop-color="#fea5a5"/><stop offset="1" stop-color="#faa"/></linearGradient><linearGradient id="Dégradé_sans_nom_155" x1="240.91" y1="226.5" x2="272.3" y2="247.6" gradientUnits="userSpaceOnUse"><stop offset="0"/><stop offset="0.04" stop-color="#180100"/><stop offset="0.12" stop-color="#440400"/><stop offset="0.21" stop-color="#6b0600"/><stop offset="0.3" stop-color="#8b0700"/><stop offset="0.39" stop-color="#a60900"/><stop offset="0.5" stop-color="#ba0a00"/><stop offset="0.62" stop-color="#c90a00"/><stop offset="0.77" stop-color="#d10b00"/><stop offset="1" stop-color="#d40b00"/></linearGradient><linearGradient id="Dégradé_sans_nom_155-2" x1="172.42" y1="236.67" x2="231.8" y2="276.57" xlink:href="#Dégradé_sans_nom_155"/><linearGradient id="Dégradé_sans_nom_124" x1="496.2" y1="167.74" x2="256.58" y2="306.09" gradientUnits="userSpaceOnUse"><stop offset="0" stop-color="#2affe4"/><stop offset="0.06" stop-color="#27f3e1"/><stop offset="0.39" stop-color="#16aed3"/><stop offset="0.67" stop-color="#0a7cc8"/><stop offset="0.88" stop-color="#035dc1"/><stop offset="1" stop-color="#0051bf"/></linearGradient><linearGradient id="Dégradé_sans_nom_124-2" x1="17.73" y1="221.8" x2="244.62" y2="221.8" xlink:href="#Dégradé_sans_nom_124"/><linearGradient id="Dégradé_sans_nom_124-3" x1="414.18" y1="263.15" x2="273.93" y2="344.12" xlink:href="#Dégradé_sans_nom_124"/><linearGradient id="Dégradé_sans_nom_124-4" x1="443.28" y1="138.59" x2="236.04" y2="258.25" xlink:href="#Dégradé_sans_nom_124"/><linearGradient id="Dégradé_sans_nom_124-5" x1="70.6" y1="282.83" x2="244.62" y2="282.83" xlink:href="#Dégradé_sans_nom_124"/><linearGradient id="Dégradé_sans_nom_124-6" x1="67.54" y1="198.42" x2="244.46" y2="198.42" xlink:href="#Dégradé_sans_nom_124"/><linearGradient id="Dégradé_sans_nom_111" x1="238.34" y1="241.24" x2="233.26" y2="569.81" gradientUnits="userSpaceOnUse"><stop offset="0" stop-color="#2affe4"/><stop offset="1" stop-color="#dc3882"/></linearGradient><linearGradient id="Dégradé_sans_nom_127" x1="209.89" y1="217.66" x2="348.82" y2="310.87" gradientTransform="translate(31.32 -31.92) rotate(6.14)" gradientUnits="userSpaceOnUse"><stop offset="0" stop-color="#2affe4"/><stop offset="0.12" stop-color="#29f9e3"/><stop offset="0.28" stop-color="#25e8df"/><stop offset="0.46" stop-color="#1ecdd9"/><stop offset="0.66" stop-color="#15a6d1"/><stop offset="0.86" stop-color="#0975c7"/><stop offset="1" stop-color="#0051bf"/></linearGradient><linearGradient id="Dégradé_sans_nom_127-2" x1="288.24" y1="85.8" x2="191.35" y2="347.94" gradientTransform="translate(-82.13 78.36) rotate(-20.28)" xlink:href="#Dégradé_sans_nom_127"/><linearGradient id="Dégradé_sans_nom_131" x1="253.59" y1="509.05" x2="253.59" y2="160.8" gradientUnits="userSpaceOnUse"><stop offset="0" stop-color="#2affe4"/><stop offset="0.01" stop-color="#29fce3"/><stop offset="0.35" stop-color="#18b4d4"/><stop offset="0.64" stop-color="#0c80c9"/><stop offset="0.85" stop-color="#045fc3"/><stop offset="0.96" stop-color="#0153c0"/><stop offset="1" stop-color="#0051bf"/></linearGradient><linearGradient id="Dégradé_sans_nom_166" x1="496.2" y1="167.74" x2="256.58" y2="306.09" gradientUnits="userSpaceOnUse"><stop offset="0" stop-color="#2affe4"/><stop offset="0.01" stop-color="#2afae4"/><stop offset="0.3" stop-color="#33a3ee"/><stop offset="0.55" stop-color="#3b5df5"/><stop offset="0.76" stop-color="#402bfa"/><stop offset="0.91" stop-color="#430cfe"/><stop offset="1" stop-color="#40f"/></linearGradient><linearGradient id="Dégradé_sans_nom_166-2" x1="17.73" y1="221.8" x2="244.62" y2="221.8" xlink:href="#Dégradé_sans_nom_166"/><linearGradient id="Dégradé_sans_nom_166-3" x1="414.18" y1="263.15" x2="273.93" y2="344.12" xlink:href="#Dégradé_sans_nom_166"/><linearGradient id="Dégradé_sans_nom_166-4" x1="443.28" y1="138.59" x2="236.04" y2="258.25" xlink:href="#Dégradé_sans_nom_166"/><linearGradient id="Dégradé_sans_nom_166-5" x1="70.6" y1="282.83" x2="244.62" y2="282.83" xlink:href="#Dégradé_sans_nom_166"/><linearGradient id="Dégradé_sans_nom_166-6" x1="67.54" y1="198.42" x2="244.46" y2="198.42" xlink:href="#Dégradé_sans_nom_166"/><linearGradient id="Dégradé_sans_nom_169" x1="238.34" y1="241.24" x2="233.26" y2="569.81" gradientUnits="userSpaceOnUse"><stop offset="0" stop-color="#2affe4"/><stop offset="0.66" stop-color="#3b55f6"/><stop offset="1" stop-color="#40f"/></linearGradient><linearGradient id="Dégradé_sans_nom_166-7" x1="209.89" y1="217.66" x2="348.82" y2="310.87" gradientTransform="translate(31.32 -31.92) rotate(6.14)" xlink:href="#Dégradé_sans_nom_166"/><linearGradient id="Dégradé_sans_nom_166-8" x1="288.24" y1="85.8" x2="191.35" y2="347.94" gradientTransform="translate(-82.13 78.36) rotate(-20.28)" xlink:href="#Dégradé_sans_nom_166"/><linearGradient id="Dégradé_sans_nom_171" x1="253.59" y1="509.05" x2="253.59" y2="160.8" gradientUnits="userSpaceOnUse"><stop offset="0" stop-color="#2affe4"/><stop offset="0.51" stop-color="#377cf2"/><stop offset="1" stop-color="#40f"/></linearGradient><linearGradient id="Dégradé_sans_nom_175" x1="253.59" y1="509.05" x2="253.59" y2="160.8" gradientUnits="userSpaceOnUse"><stop offset="0" stop-color="#fff400"/><stop offset="1" stop-color="#fff400"/></linearGradient><image id="image" width="201" height="201" xlink:href="../../../../../../Realisation%20:%20illustration/twitch/verified.png"/></defs><g id="Calque_7" data-name="Calque 7"><path class="cls-1" d="M480.19,140s10.8,54.74-23.14,88.2c0,0-19.32,11.93-60,21.27a414.94,414.94,0,0,1-49.54,8.12c-64.19,6.75-86.41,37.84-91.39,46.45l-1.18-.83s0-.08,0-.27v-.11a1.22,1.22,0,0,0,0-.21v-.07a.3.3,0,0,0,0-.14c0-.3.06-.68.1-1.13a.62.62,0,0,1,0-.19c1.23-10.76,12.22-59.65,109.38-83,25.19-6.07,44.92-13.47,60.35-21.28C476.54,170.68,480.19,140,480.19,140Z"/><path class="cls-2" d="M244.62,303.23l-1.45.34c-5.52-9.24-28.11-39.32-91.13-46a415.77,415.77,0,0,1-49.53-8.12c-40.7-9.34-60-21.27-60-21.27C8.55,194.76,19.36,140,19.36,140S23,170.68,74.71,196.8c15.44,7.81,35.18,15.21,60.37,21.28,97.16,23.38,108.15,72.27,109.38,83a.62.62,0,0,1,0,.19c0,.45.07.83.1,1.13C244.61,303,244.62,303.23,244.62,303.23Z"/><path class="cls-3" d="M397,254.44s38.12,16.87,31,56.78c-52.84-47.13-173.14,0-173.14,0s.36-.8,1.18-2.21c5-8.61,27.2-39.7,91.39-46.45A414.94,414.94,0,0,0,397,254.44Z"/><path class="cls-4" d="M424.22,105.58c17.15,28.89.61,81.38.61,81.38-15.43,7.8-35.16,15.2-60.35,21.27-97.16,23.38-108.15,72.27-109.38,83,1.25-13.87,11.73-92,90.39-117.47C430.3,146.34,424.47,107.06,424.22,105.58Z"/><path class="cls-5" d="M243.17,308.52a28.09,28.09,0,0,1,1.45,2.7s-120.29-47.13-173.14,0c-7.1-39.91,31-56.78,31-56.78A415.77,415.77,0,0,0,152,262.56C215.06,269.2,237.65,299.28,243.17,308.52Z"/><path class="cls-6" d="M154.06,173.79c78.65,25.46,89.15,103.6,90.4,117.47-1.23-10.76-12.22-59.65-109.38-83-25.19-6.07-44.93-13.47-60.37-21.27,0,0-16.54-52.49.62-81.38C75.08,107.06,69.26,146.34,154.06,173.79Z"/><path class="cls-7" d="M301.34,53.11s26.28,57.17-17.16,147.47-124.6,202.36-18.29,252.66c0,0-25,.86-49.83-10.28-38.77-17.44-76.89-64.27-17.61-189.79C223.67,199.75,238.66,156.8,247,122.5a98.46,98.46,0,0,0,3.82-17.44.15.15,0,0,0,0-.09C266.4,25.32,243.16-.46,240.91-2.74c3,2.76,45.44,43.39,42.14,109.58C283.05,106.84,296.77,92,301.34,53.11Z"/><path class="cls-8" d="M402.56,203.81C398.39,443,262.63,427.74,262.63,427.74,207.09,395,209.2,326.68,256.87,259.67S334.19,121.5,334.19,121.5c31.49,87.83,19.82,143,19.82,143C388.78,258,402.56,203.81,402.56,203.81Z"/><path class="cls-9" d="M187.23,239.08s21.65-79,18.66-129.14c4.06,35.07,4.89,80.55-.24,139.4-12.09,138.28,39.9,169,82.31,171.91l-.1,1.29C284.24,423,140,438.33,148.34,255.89c4.63-100.31,3-140.81.49-156.87C158.77,120.35,181.24,174.51,187.23,239.08Z"/><path class="cls-10" d="M264,114.82l12.86-3.1,1.77-5.32s3.11-16.41,0-25.72,0-14.19-14.63-28.38-4-8.87-19.07-15.52-14.63-7.1-26.61-3.55c0,0-12-12.42-17.29-4.88,0,0-12.86-6.65-14.19-.44,0,0-10.65.44-14.64,12.41,0,0-10.64,1.78-7.09,15.52,0,0-.89,45.68,8.87,51Z"/><path class="cls-11" d="M179,183.75S185,173.36,206.75,176s3,13.3,3,13.3Z"/><polygon class="cls-12" points="267.51 160.94 262.35 161.83 268.17 185.22 267.51 188.1 279.48 195.86 277.15 180.45 267.51 160.94"/><path class="cls-13" d="M264.51,189.32l-16,16.19-9.13,10.75L237.35,220l16.24,1.22s13.69-6.87,14-7,12-7.1,11.86-8S264.51,189.32,264.51,189.32Z"/><path class="cls-14" d="M279,109.13s-3-8.72-9.52-3.8a26.3,26.3,0,0,0-6.29,7.42,4.23,4.23,0,0,1,.7,1.39,5.36,5.36,0,0,1-.15,3.29c-.09.24-.19.47-.29.68s0,.37,0,.56a4.53,4.53,0,0,1-.92,2.56c.13.52.25,1,.35,1.56a3.93,3.93,0,0,1,.86,1.69c1,4.34,2,10.66-.87,14.51a4.55,4.55,0,0,1-.66.72H267s10.51-7,11.78-14.83C278.77,124.88,281.5,118.37,279,109.13Z"/><path class="cls-15" d="M265.5,109.13c9.46-11.69,13.52,0,13.52,0,5.41,20.69-12.17,30.58-12.17,30.58l-1.35,7.64c.45,29.23,1.8,24.29,1.8,24.29,7.66,19.78,0,19.33,0,19.33l-9.47,9.89V204l-10.37,10.34c-25.24,14.39-48.68,1.8-48.68,1.8Z"/><path class="cls-15" d="M200.1,214.6s-.64-27.2-1.65-36.22,63.13-49.61,63.13-49.61Z"/><path class="cls-15" d="M259.52,122.36s4.88-16.41,0-16,2.83-7.54-8-24c0,0,.89-16-8.42-22.17s-24.39-4-24.39-4-14.19,0-20.4,3.1-9.31,4-18.63,12.42-5.76,35-5.76,35-1.33,23.95,1.77,27.94,2.66,13.75,9.31,26.16,7.54,15.52,16.41,18.63,23.95,4.88,32.37-1.78,18.19-8,25.28-25.27S259.52,122.36,259.52,122.36Z"/><path class="cls-16" d="M219,142.78s-7.37-6.12-13.76-6.81c0,0-.42-1.33-3.2,1.42,0,0-1.8,1.22-4.58-1,0,0-3.62.42-3.48,6.4,0,0-1.66,4.44,1.67,5.42a10.52,10.52,0,0,0,6.39,1.66,71.6,71.6,0,0,0,9.17-3.05A72.31,72.31,0,0,0,219,142.78Z"/><path class="cls-10" d="M210.6,98s5.61-8,25.72-4.14C236.32,93.83,216.8,81.42,210.6,98Z"/><path class="cls-10" d="M192.86,100.63A23.24,23.24,0,0,0,176,106.84S178.08,92.06,192.86,100.63Z"/><ellipse class="cls-17" cx="207.24" cy="125.25" rx="1.88" ry="2.92" transform="translate(22.39 281.66) rotate(-71.38)"/><ellipse class="cls-17" cx="196.65" cy="125.97" rx="2.24" ry="1.25" transform="translate(14.5 272.12) rotate(-71.38)"/><path class="cls-10" d="M195.7,105.29s.41,4.66-1.59,12.19Z"/><path class="cls-18" d="M278.59,117.48s-2.95-1.18-6.21-7.39c0,0-1.47-4.73,3.11-3S276.23,116.6,278.59,117.48Z"/><path class="cls-18" d="M268.25,117.48s-3.42,1.19,3.91,7.1c0,0,1.48,3.25,3.21,0a30.67,30.67,0,0,0-1.51-5.62C272.68,115.71,268.25,117.48,268.25,117.48Z"/><path class="cls-19" d="M193.15,147.34s7.1-8.57,27.2-4.73C220.35,142.61,202,140.84,193.15,147.34Z"/><path class="cls-19" d="M215.84,99.52s-5.32,1.11,0,4.44C215.84,104,212.07,101.52,215.84,99.52Z"/><path class="cls-10" d="M261.4,109.5a25.51,25.51,0,0,1-3.88,17.79c-5.75,8.6-22,20.17-22,20.17s-.9,23.12-8.72,23.12c0,0-16-6.22-21.66,0,0,0-12,2.38-23.47-23.12L179,144.59s3.91,25.7,19.26,34.59,30.69,2.67,30.69,2.67,23.46-12.75,30.38-26.68,5.42-18.39,5.42-18.39L263.2,109.5"/><path class="cls-10" d="M191.57,142.76l3.83-6.25s1.08-3.19,2.77-.49c0,0,3.55.56,5.45-1.43,0,0,4.13-2.09,6-.64,0,0,7.08,2.64,9.78,2.6s1.79-2.56,1.79-2.56-9.4-5.53-12.14-4.89c0,0-4.6-.53-6.92,2.44,0,0-2.16,2.19-2.66,1.08,0,0-3.58-3.22-4.88-1.28S190.08,142,191.57,142.76Z"/><path class="cls-19" d="M208.08,103s-2.21,8.57,1.63,13.6C209.71,116.6,207.05,106,208.08,103Z"/><path class="cls-13" d="M261.44,108.05a20.18,20.18,0,0,1,.23,4.06,19.38,19.38,0,0,1-.11,3.75,3.23,3.23,0,0,0-.17,1.37h-.94l-.19-2.41Z"/><path class="cls-19" d="M262.35,205s-5.79-3.06-4.18-5C258.17,200,267.06,203.57,262.35,205Z"/><path d="M142.2,401.56l4.55,4.09a12.91,12.91,0,0,0-.45,14.09c4.55,7.73,3.64,13.18,3.64,13.18.46,2.27-5.92,13.63-5.92,13.63l-3.64,11.36c-3.65,11.37-2.28,34.54-2.28,34.54l-2.28,5.91L123.07,522s-.91,13.63,3.64,12.73,19.13,2.72,24.6,2.72,15,1.82,33.24,2.27c6.37.16,11.46.6,16.06,1.16,3.3,0,6.6-.08,9.9-.07,17.37.06,34.72,1,52,2.22,26.72,2,53.41,4.42,80.11,6.62,11.66-6.77,28.61-17.65,28.61-17.65l-8.19-24.09-10.93-46.81s-9.57-43.62-5.92-48.17,5.46-25,5.46-25l1.37-31.36,2.73-20.9V323.4H345.32c-1.37-4.55-10.48-32.27-10.48-32.27-8.2-22.72-12.75-30.9-27.78-52.37S265.62,218,265.62,218c-.91,4.09-46.15,16.82-46.15,16.82-36.13,12.72-45.54-9.09-45.54-9.09-22,20.9-29,34.08-39,48.17S117.61,315.67,123,339.3,142.2,401.56,142.2,401.56Z"/><path class="cls-20" d="M91.46,496.13s-10.2-25.66-11.09-27c0,0-6.21-.88,3.1-12.86l-5.13-19.51s-7.73-20.84-2-31.49c0,0,7.54-65.18,14.19-71.83,0,0,11.08-29.27,11.53-32.38,0,0,.44-19.95,14.63-46.56,0,0,33.26-25.72,54.1-32.81,0,0-5.31-6.21,2.44-15.53,0,0-2.58-16.46,5.69-22.42H200.1l-.54,13.56s-2.56,16,3.65,19.06,19.06,5.77,30.15,2.22c0,0,16.41-.89,27.94-13.75s8.42-12.47,11.08-21.09c0,0-4.87-12.16-4.87-22.81,0,0,13.3-1.77,14.63,7.1,0,0,3.55,8.42,14.19,12.41,0,0-2.66,7.54,18.63,19.52,0,0,8.42,2.66,4.43,10.2,0,0,51.15,9.6,64.74,30.3,0,0,32.52,41.39,39.62,116.48,0,0,10.05,54.4,8.87,72.13,0,0,2.95,30.75-8.87,44.94,0,0-15.37,29.56-19.51,31.34s-81.6-1.78-81.6-1.78l2.07-2.51s4.44-24.39,19.51-28.82c0,0-2.66-2.22,8.87-6.66,0,0-8.42-11.53,5.32-11.53,0,0,9.76.45,8.43-12,0,0-17.74,1.33-8-31.93,0,0-12.86-9.31-8-34.59,0,0,6.2-30.59-1.33-39.46,0,0-19.07-26.17-16.41-35.92,0,0-21.73-62.09-40.8-66.08,0,0-5.32-9.31-23.95-10.64,0,0-4,10.36-65.18,25.35,0,0-17.89-.07-24.25-15.59,0,0-32.07,21.28-51.58,64.3,0,0-7.1,26.6,0,43.9,0,0,8,31.48,12,44.34,0,0,4.88,9.32,4.88,18.18,0,0-2.66,6.66-5.33,5.77,0,0,10.65,24.83-2.66,32.37,0,0,8,1.78,4.44,20,0,0,.44,18.18-1.33,23.5,0,0,2.22,14.63,3.1,18.18s-.88-3.55-.88-3.55l-28.83,6.66-8,2.21-10.2-1.77V502l-3.1-5.83"/><path class="cls-21" d="M269.06,299.3a59.71,59.71,0,0,0,6.43-3.1l6.43,3.1v9.09l-3.77,3.33h-6.21l-2.88-3.11Z"/><polygon class="cls-19" points="277.1 299.36 274.07 299.36 271.68 301.88 271.68 305.29 273.57 308.19 277.1 308.19 279.62 305.29 279.62 302.26 277.1 299.36"/><text class="cls-22" transform="translate(274.04 305.53)">F</text><use transform="translate(264.83 292.26) scale(0.11)" xlink:href="#image"/><path class="cls-19" d="M195.11,208.84s2.51,4.57-2.21,5.43C192.9,214.27,192.46,207.62,195.11,208.84Z"/><path class="cls-13" d="M198.89,183.75s-.69,28.6,1.33,28.91,6.09-10.25,6.09-10.25l1.11-9.61-5.62-10Z"/><path class="cls-23" d="M213,303.13l3,5.92s-.41,1.05-.87.74-3-5.68-3-5.68Z"/><path class="cls-24" d="M273.86,184s-1.77-.89-6.5,6.8-16.85,17.74-21.88,31c0,0-8.57,15.67-9.46,33.11a52.6,52.6,0,0,0,0,20.7s3,14.78,4.73,15.37h2.37s-8.28-20.1-.3-45.82c0,0,7.61-32.08,18.59-41.46,0,0,8.9-11.83,11.27-11.65C272.68,192.09,275.64,186.07,273.86,184Z"/><path class="cls-19" d="M262.17,204.3c-.53-.26.17-3.46-3.48-3.28s7.43-8.71,7.43-8.71,3.56,1.5,3.34,2.85S262.71,204.55,262.17,204.3Z"/><path class="cls-23" d="M241.14,291l1.83,7.1s.89.44,1.11,0-1.47-7.1-1.47-7.1Z"/><path class="cls-25" d="M208.23,282.3c-1.92-14.34-6.06-31.93-6.06-31.93-1.48-5.47-3.73-34.14-3.73-34.14,0-6.95-6.91-7.23-6.91-7.23l-1.3,1.17s.89,1.36,1.88,2.8h.1a2.17,2.17,0,0,1,2.21,2.4,1.17,1.17,0,0,1,.06.2l0,0v0s0,.08,0,.12a8.79,8.79,0,0,0,.34,2v.06c0,.08,0,.14,0,.21.91,4.87,1.48,16,1.48,16,.15,4.43,5.64,28.16,5.64,30.6S207.42,296,207.42,296c3,7.39,4.51,9.09,4.51,9.09.88.15,1.77-1.62,1.77-1.62C213.26,295.75,208.23,282.3,208.23,282.3Z"/><path class="cls-19" d="M185.36,207.84s4.43,5.21,7.54,6.43c0,0,1.44-6.43,2.21-5.43,0,0-5.21-1.78-7-5.1A5.48,5.48,0,0,0,185.36,207.84Z"/><path class="cls-19" d="M193.18,187.12s-15.62,13.64,0,18.19C193.18,205.31,179,201.16,193.18,187.12Z"/><path class="cls-19" d="M270.59,164.59s7.89,3.12,5.06,11.6C275.65,176.19,278,169.5,270.59,164.59Z"/><path class="cls-19" d="M169.75,217.69s-2,6.69,20,10.71C189.71,228.4,168.86,222.59,169.75,217.69Z"/><path class="cls-19" d="M189.71,219.47s-8.8-1.49-14.16-7.73C175.55,211.74,184.53,218.28,189.71,219.47Z"/><path class="cls-19" d="M400,479.43s-27.67-15.17-42.24-16.36C357.79,463.07,376.53,469.92,400,479.43Z"/><path class="cls-19" d="M363.14,440.47s13.69-5.66,30.64,7.14C393.78,447.61,382.78,438.38,363.14,440.47Z"/><path class="cls-19" d="M386.94,301.55s-8.92,33.32-31.83,91C355.11,392.57,367,361.64,386.94,301.55Z"/><path class="cls-19" d="M360.47,258.71s-11.9,11.9-8,58.61C352.43,317.32,351.84,271.21,360.47,258.71Z"/><path class="cls-19" d="M91,423.06s37-8.92-12-8.92C78.91,414.14,122.64,414.14,91,423.06Z"/><path class="cls-19" d="M104.36,296.79s-5.37,11.6,17.39,58C121.75,354.8,106.15,322.67,104.36,296.79Z"/><path class="cls-19" d="M87,399.86s20.08,2.23,43.72,23.2C130.67,423.06,101.67,403,87,399.86Z"/><path class="cls-19" d="M406,414.14s-41.05,18,0,15.32C406,429.46,368.8,432.43,406,414.14Z"/><path class="cls-19" d="M126.36,429.73s-9.22-16.93-30.64-2.35C95.72,427.38,115.65,414.83,126.36,429.73Z"/><path class="cls-19" d="M117.14,271.21S114,300,119.72,316.26l.39,1.06S115.35,301.55,117.14,271.21Z"/><path class="cls-19" d="M92.3,485.23s-3-8.77,10.56-13.08C102.86,472.15,91.56,476.16,92.3,485.23Z"/><path class="cls-19" d="M316.07,207.55s-9.36-.32-32.51,12.37C283.56,219.92,295.77,212.62,316.07,207.55Z"/><path class="cls-19" d="M283.56,185.24s6.41,3-17.69,25C265.87,210.23,286.08,190.59,283.56,185.24Z"/><path class="cls-19" d="M210.84,126.94s2.83,0,2.16-5.62C213,121.32,213.37,125.52,210.84,126.94Z"/><path class="cls-19" d="M195.13,129.09s-3.8,1.78-3-5.25C192.11,123.84,191.67,129.87,195.13,129.09Z"/><path class="cls-10" d="M200.46,151.81s8.07-.81,9.48-1.87c0,0-3.8,3.79-1.95,7.4,0,0-1.17,1.63-4.31.41C203.68,157.75,203,152.89,200.46,151.81Z"/></g><g id="Calque_8" data-name="Calque 8"><path class="cls-26" d="M480.19,140s10.8,54.74-23.14,88.2c0,0-19.32,11.93-60,21.27a414.94,414.94,0,0,1-49.54,8.12c-64.19,6.75-86.41,37.84-91.39,46.45l-1.18-.83s0-.08,0-.27v-.11a1.22,1.22,0,0,0,0-.21v-.07a.3.3,0,0,0,0-.14c0-.3.06-.68.1-1.13a.62.62,0,0,1,0-.19c1.23-10.76,12.22-59.65,109.38-83,25.19-6.07,44.92-13.47,60.35-21.28C476.54,170.68,480.19,140,480.19,140Z"/><path class="cls-27" d="M244.62,303.23l-1.45.34c-5.52-9.24-28.11-39.32-91.13-46a415.77,415.77,0,0,1-49.53-8.12c-40.7-9.34-60-21.27-60-21.27C8.55,194.76,19.36,140,19.36,140S23,170.68,74.71,196.8c15.44,7.81,35.18,15.21,60.37,21.28,97.16,23.38,108.15,72.27,109.38,83a.62.62,0,0,1,0,.19c0,.45.07.83.1,1.13C244.61,303,244.62,303.23,244.62,303.23Z"/><path class="cls-28" d="M397,254.44s38.12,16.87,31,56.78c-52.84-47.13-173.14,0-173.14,0s.36-.8,1.18-2.21c5-8.61,27.2-39.7,91.39-46.45A414.94,414.94,0,0,0,397,254.44Z"/><path class="cls-29" d="M424.22,105.58c17.15,28.89.61,81.38.61,81.38-15.43,7.8-35.16,15.2-60.35,21.27-97.16,23.38-108.15,72.27-109.38,83,1.25-13.87,11.73-92,90.39-117.47C430.3,146.34,424.47,107.06,424.22,105.58Z"/><path class="cls-30" d="M243.17,308.52a28.09,28.09,0,0,1,1.45,2.7s-120.29-47.13-173.14,0c-7.1-39.91,31-56.78,31-56.78A415.77,415.77,0,0,0,152,262.56C215.06,269.2,237.65,299.28,243.17,308.52Z"/><path class="cls-31" d="M154.06,173.79c78.65,25.46,89.15,103.6,90.4,117.47-1.23-10.76-12.22-59.65-109.38-83-25.19-6.07-44.93-13.47-60.37-21.27,0,0-16.54-52.49.62-81.38C75.08,107.06,69.26,146.34,154.06,173.79Z"/><path class="cls-32" d="M301.34,53.11s26.28,57.17-17.16,147.47-124.6,202.36-18.29,252.66c0,0-25,.86-49.83-10.28-38.77-17.44-76.89-64.27-17.61-189.79C223.67,199.75,238.66,156.8,247,122.5a98.46,98.46,0,0,0,3.82-17.44.15.15,0,0,0,0-.09C266.4,25.32,243.16-.46,240.91-2.74c3,2.76,45.44,43.39,42.14,109.58C283.05,106.84,296.77,92,301.34,53.11Z"/><path class="cls-33" d="M402.56,203.81C398.39,443,262.63,427.74,262.63,427.74,207.09,395,209.2,326.68,256.87,259.67S334.19,121.5,334.19,121.5c31.49,87.83,19.82,143,19.82,143C388.78,258,402.56,203.81,402.56,203.81Z"/><path class="cls-34" d="M187.23,239.08s21.65-79,18.66-129.14c4.06,35.07,4.89,80.55-.24,139.4-12.09,138.28,39.9,169,82.31,171.91l-.1,1.29C284.24,423,140,438.33,148.34,255.89c4.63-100.31,3-140.81.49-156.87C158.77,120.35,181.24,174.51,187.23,239.08Z"/><path class="cls-10" d="M264,114.82l12.86-3.1,1.77-5.32s3.11-16.41,0-25.72,0-14.19-14.63-28.38-4-8.87-19.07-15.52-14.63-7.1-26.61-3.55c0,0-12-12.42-17.29-4.88,0,0-12.86-6.65-14.19-.44,0,0-10.65.44-14.64,12.41,0,0-10.64,1.78-7.09,15.52,0,0-.89,45.68,8.87,51Z"/><path class="cls-35" d="M179,183.75S185,173.36,206.75,176s3,13.3,3,13.3Z"/><polygon class="cls-12" points="267.51 160.94 262.35 161.83 268.17 185.22 267.51 188.1 279.48 195.86 277.15 180.45 267.51 160.94"/><path class="cls-13" d="M264.51,189.32l-16,16.19-9.13,10.75L237.35,220l16.24,1.22s13.69-6.87,14-7,12-7.1,11.86-8S264.51,189.32,264.51,189.32Z"/><path class="cls-14" d="M279,109.13s-3-8.72-9.52-3.8a26.3,26.3,0,0,0-6.29,7.42,4.23,4.23,0,0,1,.7,1.39,5.36,5.36,0,0,1-.15,3.29c-.09.24-.19.47-.29.68s0,.37,0,.56a4.53,4.53,0,0,1-.92,2.56c.13.52.25,1,.35,1.56a3.93,3.93,0,0,1,.86,1.69c1,4.34,2,10.66-.87,14.51a4.55,4.55,0,0,1-.66.72H267s10.51-7,11.78-14.83C278.77,124.88,281.5,118.37,279,109.13Z"/><path class="cls-15" d="M265.5,109.13c9.46-11.69,13.52,0,13.52,0,5.41,20.69-12.17,30.58-12.17,30.58l-1.35,7.64c.45,29.23,1.8,24.29,1.8,24.29,7.66,19.78,0,19.33,0,19.33l-9.47,9.89V204l-10.37,10.34c-25.24,14.39-48.68,1.8-48.68,1.8Z"/><path class="cls-15" d="M200.1,214.6s-.64-27.2-1.65-36.22,63.13-49.61,63.13-49.61Z"/><path class="cls-15" d="M259.52,122.36s4.88-16.41,0-16,2.83-7.54-8-24c0,0,.89-16-8.42-22.17s-24.39-4-24.39-4-14.19,0-20.4,3.1-9.31,4-18.63,12.42-5.76,35-5.76,35-1.33,23.95,1.77,27.94,2.66,13.75,9.31,26.16,7.54,15.52,16.41,18.63,23.95,4.88,32.37-1.78,18.19-8,25.28-25.27S259.52,122.36,259.52,122.36Z"/><path class="cls-16" d="M219,142.78s-7.37-6.12-13.76-6.81c0,0-.42-1.33-3.2,1.42,0,0-1.8,1.22-4.58-1,0,0-3.62.42-3.48,6.4,0,0-1.66,4.44,1.67,5.42a10.52,10.52,0,0,0,6.39,1.66,71.6,71.6,0,0,0,9.17-3.05A72.31,72.31,0,0,0,219,142.78Z"/><path class="cls-10" d="M210.6,98s5.61-8,25.72-4.14C236.32,93.83,216.8,81.42,210.6,98Z"/><path class="cls-10" d="M192.86,100.63A23.24,23.24,0,0,0,176,106.84S178.08,92.06,192.86,100.63Z"/><ellipse class="cls-17" cx="207.24" cy="125.25" rx="1.88" ry="2.92" transform="translate(22.39 281.66) rotate(-71.38)"/><ellipse class="cls-17" cx="196.65" cy="125.97" rx="2.24" ry="1.25" transform="translate(14.5 272.12) rotate(-71.38)"/><path class="cls-10" d="M195.7,105.29s.41,4.66-1.59,12.19Z"/><path class="cls-18" d="M278.59,117.48s-2.95-1.18-6.21-7.39c0,0-1.47-4.73,3.11-3S276.23,116.6,278.59,117.48Z"/><path class="cls-18" d="M268.25,117.48s-3.42,1.19,3.91,7.1c0,0,1.48,3.25,3.21,0a30.67,30.67,0,0,0-1.51-5.62C272.68,115.71,268.25,117.48,268.25,117.48Z"/><path class="cls-19" d="M193.15,147.34s7.1-8.57,27.2-4.73C220.35,142.61,202,140.84,193.15,147.34Z"/><path class="cls-19" d="M215.84,99.52s-5.32,1.11,0,4.44C215.84,104,212.07,101.52,215.84,99.52Z"/><path class="cls-10" d="M261.4,109.5a25.51,25.51,0,0,1-3.88,17.79c-5.75,8.6-22,20.17-22,20.17s-.9,23.12-8.72,23.12c0,0-16-6.22-21.66,0,0,0-12,2.38-23.47-23.12L179,144.59s3.91,25.7,19.26,34.59,30.69,2.67,30.69,2.67,23.46-12.75,30.38-26.68,5.42-18.39,5.42-18.39L263.2,109.5"/><path class="cls-10" d="M191.57,142.76l3.83-6.25s1.08-3.19,2.77-.49c0,0,3.55.56,5.45-1.43,0,0,4.13-2.09,6-.64,0,0,7.08,2.64,9.78,2.6s1.79-2.56,1.79-2.56-9.4-5.53-12.14-4.89c0,0-4.6-.53-6.92,2.44,0,0-2.16,2.19-2.66,1.08,0,0-3.58-3.22-4.88-1.28S190.08,142,191.57,142.76Z"/><path class="cls-19" d="M208.08,103s-2.21,8.57,1.63,13.6C209.71,116.6,207.05,106,208.08,103Z"/><path class="cls-13" d="M261.44,108.05a20.18,20.18,0,0,1,.23,4.06,19.38,19.38,0,0,1-.11,3.75,3.23,3.23,0,0,0-.17,1.37h-.94l-.19-2.41Z"/><path class="cls-19" d="M262.35,205s-5.79-3.06-4.18-5C258.17,200,267.06,203.57,262.35,205Z"/><path d="M142.2,401.56l4.55,4.09a12.91,12.91,0,0,0-.45,14.09c4.55,7.73,3.64,13.18,3.64,13.18.46,2.27-5.92,13.63-5.92,13.63l-3.64,11.36c-3.65,11.37-2.28,34.54-2.28,34.54l-2.28,5.91L123.07,522s-.91,13.63,3.64,12.73,19.13,2.72,24.6,2.72,15,1.82,33.24,2.27c6.37.16,11.46.6,16.06,1.16,3.3,0,6.6-.08,9.9-.07,17.37.06,34.72,1,52,2.22,26.72,2,53.41,4.42,80.11,6.62,11.66-6.77,28.61-17.65,28.61-17.65l-8.19-24.09-10.93-46.81s-9.57-43.62-5.92-48.17,5.46-25,5.46-25l1.37-31.36,2.73-20.9V323.4H345.32c-1.37-4.55-10.48-32.27-10.48-32.27-8.2-22.72-12.75-30.9-27.78-52.37S265.62,218,265.62,218c-.91,4.09-46.15,16.82-46.15,16.82-36.13,12.72-45.54-9.09-45.54-9.09-22,20.9-29,34.08-39,48.17S117.61,315.67,123,339.3,142.2,401.56,142.2,401.56Z"/><path class="cls-36" d="M91.46,496.13s-10.2-25.66-11.09-27c0,0-6.21-.88,3.1-12.86l-5.13-19.51s-7.73-20.84-2-31.49c0,0,7.54-65.18,14.19-71.83,0,0,11.08-29.27,11.53-32.38,0,0,.44-19.95,14.63-46.56,0,0,33.26-25.72,54.1-32.81,0,0-5.31-6.21,2.44-15.53,0,0-2.58-16.46,5.69-22.42H200.1l-.54,13.56s-2.56,16,3.65,19.06,19.06,5.77,30.15,2.22c0,0,16.41-.89,27.94-13.75s8.42-12.47,11.08-21.09c0,0-4.87-12.16-4.87-22.81,0,0,13.3-1.77,14.63,7.1,0,0,3.55,8.42,14.19,12.41,0,0-2.66,7.54,18.63,19.52,0,0,8.42,2.66,4.43,10.2,0,0,51.15,9.6,64.74,30.3,0,0,32.52,41.39,39.62,116.48,0,0,10.05,54.4,8.87,72.13,0,0,2.95,30.75-8.87,44.94,0,0-15.37,29.56-19.51,31.34s-81.6-1.78-81.6-1.78l2.07-2.51s4.44-24.39,19.51-28.82c0,0-2.66-2.22,8.87-6.66,0,0-8.42-11.53,5.32-11.53,0,0,9.76.45,8.43-12,0,0-17.74,1.33-8-31.93,0,0-12.86-9.31-8-34.59,0,0,6.2-30.59-1.33-39.46,0,0-19.07-26.17-16.41-35.92,0,0-21.73-62.09-40.8-66.08,0,0-5.32-9.31-23.95-10.64,0,0-4,10.36-65.18,25.35,0,0-17.89-.07-24.25-15.59,0,0-32.07,21.28-51.58,64.3,0,0-7.1,26.6,0,43.9,0,0,8,31.48,12,44.34,0,0,4.88,9.32,4.88,18.18,0,0-2.66,6.66-5.33,5.77,0,0,10.65,24.83-2.66,32.37,0,0,8,1.78,4.44,20,0,0,.44,18.18-1.33,23.5,0,0,2.22,14.63,3.1,18.18s-.88-3.55-.88-3.55l-28.83,6.66-8,2.21-10.2-1.77V502l-3.1-5.83"/><path class="cls-21" d="M269.06,299.3a59.71,59.71,0,0,0,6.43-3.1l6.43,3.1v9.09l-3.77,3.33h-6.21l-2.88-3.11Z"/><polygon class="cls-19" points="277.1 299.36 274.07 299.36 271.68 301.88 271.68 305.29 273.57 308.19 277.1 308.19 279.62 305.29 279.62 302.26 277.1 299.36"/><text class="cls-22" transform="translate(274.04 305.53)">F</text><use transform="translate(264.83 292.26) scale(0.11)" xlink:href="#image"/><path class="cls-19" d="M195.11,208.84s2.51,4.57-2.21,5.43C192.9,214.27,192.46,207.62,195.11,208.84Z"/><path class="cls-13" d="M198.89,183.75s-.69,28.6,1.33,28.91,6.09-10.25,6.09-10.25l1.11-9.61-5.62-10Z"/><path class="cls-23" d="M213,303.13l3,5.92s-.41,1.05-.87.74-3-5.68-3-5.68Z"/><path class="cls-24" d="M273.86,184s-1.77-.89-6.5,6.8-16.85,17.74-21.88,31c0,0-8.57,15.67-9.46,33.11a52.6,52.6,0,0,0,0,20.7s3,14.78,4.73,15.37h2.37s-8.28-20.1-.3-45.82c0,0,7.61-32.08,18.59-41.46,0,0,8.9-11.83,11.27-11.65C272.68,192.09,275.64,186.07,273.86,184Z"/><path class="cls-19" d="M262.17,204.3c-.53-.26.17-3.46-3.48-3.28s7.43-8.71,7.43-8.71,3.56,1.5,3.34,2.85S262.71,204.55,262.17,204.3Z"/><path class="cls-23" d="M241.14,291l1.83,7.1s.89.44,1.11,0-1.47-7.1-1.47-7.1Z"/><path class="cls-25" d="M208.23,282.3c-1.92-14.34-6.06-31.93-6.06-31.93-1.48-5.47-3.73-34.14-3.73-34.14,0-6.95-6.91-7.23-6.91-7.23l-1.3,1.17s.89,1.36,1.88,2.8h.1a2.17,2.17,0,0,1,2.21,2.4,1.17,1.17,0,0,1,.06.2l0,0v0s0,.08,0,.12a8.79,8.79,0,0,0,.34,2v.06c0,.08,0,.14,0,.21.91,4.87,1.48,16,1.48,16,.15,4.43,5.64,28.16,5.64,30.6S207.42,296,207.42,296c3,7.39,4.51,9.09,4.51,9.09.88.15,1.77-1.62,1.77-1.62C213.26,295.75,208.23,282.3,208.23,282.3Z"/><path class="cls-19" d="M185.36,207.84s4.43,5.21,7.54,6.43c0,0,1.44-6.43,2.21-5.43,0,0-5.21-1.78-7-5.1A5.48,5.48,0,0,0,185.36,207.84Z"/><path class="cls-19" d="M193.18,187.12s-15.62,13.64,0,18.19C193.18,205.31,179,201.16,193.18,187.12Z"/><path class="cls-19" d="M270.59,164.59s7.89,3.12,5.06,11.6C275.65,176.19,278,169.5,270.59,164.59Z"/><path class="cls-19" d="M169.75,217.69s-2,6.69,20,10.71C189.71,228.4,168.86,222.59,169.75,217.69Z"/><path class="cls-19" d="M189.71,219.47s-8.8-1.49-14.16-7.73C175.55,211.74,184.53,218.28,189.71,219.47Z"/><path class="cls-19" d="M400,479.43s-27.67-15.17-42.24-16.36C357.79,463.07,376.53,469.92,400,479.43Z"/><path class="cls-19" d="M363.14,440.47s13.69-5.66,30.64,7.14C393.78,447.61,382.78,438.38,363.14,440.47Z"/><path class="cls-19" d="M386.94,301.55s-8.92,33.32-31.83,91C355.11,392.57,367,361.64,386.94,301.55Z"/><path class="cls-19" d="M360.47,258.71s-11.9,11.9-8,58.61C352.43,317.32,351.84,271.21,360.47,258.71Z"/><path class="cls-19" d="M91,423.06s37-8.92-12-8.92C78.91,414.14,122.64,414.14,91,423.06Z"/><path class="cls-19" d="M104.36,296.79s-5.37,11.6,17.39,58C121.75,354.8,106.15,322.67,104.36,296.79Z"/><path class="cls-19" d="M87,399.86s20.08,2.23,43.72,23.2C130.67,423.06,101.67,403,87,399.86Z"/><path class="cls-19" d="M406,414.14s-41.05,18,0,15.32C406,429.46,368.8,432.43,406,414.14Z"/><path class="cls-19" d="M126.36,429.73s-9.22-16.93-30.64-2.35C95.72,427.38,115.65,414.83,126.36,429.73Z"/><path class="cls-19" d="M117.14,271.21S114,300,119.72,316.26l.39,1.06S115.35,301.55,117.14,271.21Z"/><path class="cls-19" d="M92.3,485.23s-3-8.77,10.56-13.08C102.86,472.15,91.56,476.16,92.3,485.23Z"/><path class="cls-19" d="M316.07,207.55s-9.36-.32-32.51,12.37C283.56,219.92,295.77,212.62,316.07,207.55Z"/><path class="cls-19" d="M283.56,185.24s6.41,3-17.69,25C265.87,210.23,286.08,190.59,283.56,185.24Z"/><path class="cls-19" d="M210.84,126.94s2.83,0,2.16-5.62C213,121.32,213.37,125.52,210.84,126.94Z"/><path class="cls-19" d="M195.13,129.09s-3.8,1.78-3-5.25C192.11,123.84,191.67,129.87,195.13,129.09Z"/><path class="cls-10" d="M200.46,151.81s8.07-.81,9.48-1.87c0,0-3.8,3.79-1.95,7.4,0,0-1.17,1.63-4.31.41C203.68,157.75,203,152.89,200.46,151.81Z"/></g><g id="Calque_10" data-name="Calque 10"><path class="cls-37" d="M480.19,140s10.8,54.74-23.14,88.2c0,0-19.32,11.93-60,21.27a414.94,414.94,0,0,1-49.54,8.12c-64.19,6.75-86.41,37.84-91.39,46.45l-1.18-.83s0-.08,0-.27v-.11a1.22,1.22,0,0,0,0-.21v-.07a.3.3,0,0,0,0-.14c0-.3.06-.68.1-1.13a.62.62,0,0,1,0-.19c1.23-10.76,12.22-59.65,109.38-83,25.19-6.07,44.92-13.47,60.35-21.28C476.54,170.68,480.19,140,480.19,140Z"/><path class="cls-38" d="M244.62,303.23l-1.45.34c-5.52-9.24-28.11-39.32-91.13-46a415.77,415.77,0,0,1-49.53-8.12c-40.7-9.34-60-21.27-60-21.27C8.55,194.76,19.36,140,19.36,140S23,170.68,74.71,196.8c15.44,7.81,35.18,15.21,60.37,21.28,97.16,23.38,108.15,72.27,109.38,83a.62.62,0,0,1,0,.19c0,.45.07.83.1,1.13C244.61,303,244.62,303.23,244.62,303.23Z"/><path class="cls-39" d="M397,254.44s38.12,16.87,31,56.78c-52.84-47.13-173.14,0-173.14,0s.36-.8,1.18-2.21c5-8.61,27.2-39.7,91.39-46.45A414.94,414.94,0,0,0,397,254.44Z"/><path class="cls-40" d="M424.22,105.58c17.15,28.89.61,81.38.61,81.38-15.43,7.8-35.16,15.2-60.35,21.27-97.16,23.38-108.15,72.27-109.38,83,1.25-13.87,11.73-92,90.39-117.47C430.3,146.34,424.47,107.06,424.22,105.58Z"/><path class="cls-41" d="M243.17,308.52a28.09,28.09,0,0,1,1.45,2.7s-120.29-47.13-173.14,0c-7.1-39.91,31-56.78,31-56.78A415.77,415.77,0,0,0,152,262.56C215.06,269.2,237.65,299.28,243.17,308.52Z"/><path class="cls-42" d="M154.06,173.79c78.65,25.46,89.15,103.6,90.4,117.47-1.23-10.76-12.22-59.65-109.38-83-25.19-6.07-44.93-13.47-60.37-21.27,0,0-16.54-52.49.62-81.38C75.08,107.06,69.26,146.34,154.06,173.79Z"/><path class="cls-43" d="M301.34,53.11s26.28,57.17-17.16,147.47-124.6,202.36-18.29,252.66c0,0-25,.86-49.83-10.28-38.77-17.44-76.89-64.27-17.61-189.79C223.67,199.75,238.66,156.8,247,122.5a98.46,98.46,0,0,0,3.82-17.44.15.15,0,0,0,0-.09C266.4,25.32,243.16-.46,240.91-2.74c3,2.76,45.44,43.39,42.14,109.58C283.05,106.84,296.77,92,301.34,53.11Z"/><path class="cls-44" d="M402.56,203.81C398.39,443,262.63,427.74,262.63,427.74,207.09,395,209.2,326.68,256.87,259.67S334.19,121.5,334.19,121.5c31.49,87.83,19.82,143,19.82,143C388.78,258,402.56,203.81,402.56,203.81Z"/><path class="cls-45" d="M187.23,239.08s21.65-79,18.66-129.14c4.06,35.07,4.89,80.55-.24,139.4-12.09,138.28,39.9,169,82.31,171.91l-.1,1.29C284.24,423,140,438.33,148.34,255.89c4.63-100.31,3-140.81.49-156.87C158.77,120.35,181.24,174.51,187.23,239.08Z"/><path class="cls-10" d="M264,114.82l12.86-3.1,1.77-5.32s3.11-16.41,0-25.72,0-14.19-14.63-28.38-4-8.87-19.07-15.52-14.63-7.1-26.61-3.55c0,0-12-12.42-17.29-4.88,0,0-12.86-6.65-14.19-.44,0,0-10.65.44-14.64,12.41,0,0-10.64,1.78-7.09,15.52,0,0-.89,45.68,8.87,51Z"/><path class="cls-46" d="M179,183.75S185,173.36,206.75,176s3,13.3,3,13.3Z"/><polygon class="cls-12" points="267.51 160.94 262.35 161.83 268.17 185.22 267.51 188.1 279.48 195.86 277.15 180.45 267.51 160.94"/><path class="cls-13" d="M264.51,189.32l-16,16.19-9.13,10.75L237.35,220l16.24,1.22s13.69-6.87,14-7,12-7.1,11.86-8S264.51,189.32,264.51,189.32Z"/><path class="cls-14" d="M279,109.13s-3-8.72-9.52-3.8a26.3,26.3,0,0,0-6.29,7.42,4.23,4.23,0,0,1,.7,1.39,5.36,5.36,0,0,1-.15,3.29c-.09.24-.19.47-.29.68s0,.37,0,.56a4.53,4.53,0,0,1-.92,2.56c.13.52.25,1,.35,1.56a3.93,3.93,0,0,1,.86,1.69c1,4.34,2,10.66-.87,14.51a4.55,4.55,0,0,1-.66.72H267s10.51-7,11.78-14.83C278.77,124.88,281.5,118.37,279,109.13Z"/><path class="cls-15" d="M265.5,109.13c9.46-11.69,13.52,0,13.52,0,5.41,20.69-12.17,30.58-12.17,30.58l-1.35,7.64c.45,29.23,1.8,24.29,1.8,24.29,7.66,19.78,0,19.33,0,19.33l-9.47,9.89V204l-10.37,10.34c-25.24,14.39-48.68,1.8-48.68,1.8Z"/><path class="cls-15" d="M200.1,214.6s-.64-27.2-1.65-36.22,63.13-49.61,63.13-49.61Z"/><path class="cls-15" d="M259.52,122.36s4.88-16.41,0-16,2.83-7.54-8-24c0,0,.89-16-8.42-22.17s-24.39-4-24.39-4-14.19,0-20.4,3.1-9.31,4-18.63,12.42-5.76,35-5.76,35-1.33,23.95,1.77,27.94,2.66,13.75,9.31,26.16,7.54,15.52,16.41,18.63,23.95,4.88,32.37-1.78,18.19-8,25.28-25.27S259.52,122.36,259.52,122.36Z"/><path class="cls-16" d="M219,142.78s-7.37-6.12-13.76-6.81c0,0-.42-1.33-3.2,1.42,0,0-1.8,1.22-4.58-1,0,0-3.62.42-3.48,6.4,0,0-1.66,4.44,1.67,5.42a10.52,10.52,0,0,0,6.39,1.66,71.6,71.6,0,0,0,9.17-3.05A72.31,72.31,0,0,0,219,142.78Z"/><path class="cls-10" d="M210.6,98s5.61-8,25.72-4.14C236.32,93.83,216.8,81.42,210.6,98Z"/><path class="cls-10" d="M192.86,100.63A23.24,23.24,0,0,0,176,106.84S178.08,92.06,192.86,100.63Z"/><ellipse class="cls-17" cx="207.24" cy="125.25" rx="1.88" ry="2.92" transform="translate(22.39 281.66) rotate(-71.38)"/><ellipse class="cls-17" cx="196.65" cy="125.97" rx="2.24" ry="1.25" transform="translate(14.5 272.12) rotate(-71.38)"/><path class="cls-10" d="M195.7,105.29s.41,4.66-1.59,12.19Z"/><path class="cls-18" d="M278.59,117.48s-2.95-1.18-6.21-7.39c0,0-1.47-4.73,3.11-3S276.23,116.6,278.59,117.48Z"/><path class="cls-18" d="M268.25,117.48s-3.42,1.19,3.91,7.1c0,0,1.48,3.25,3.21,0a30.67,30.67,0,0,0-1.51-5.62C272.68,115.71,268.25,117.48,268.25,117.48Z"/><path class="cls-19" d="M193.15,147.34s7.1-8.57,27.2-4.73C220.35,142.61,202,140.84,193.15,147.34Z"/><path class="cls-19" d="M215.84,99.52s-5.32,1.11,0,4.44C215.84,104,212.07,101.52,215.84,99.52Z"/><path class="cls-10" d="M261.4,109.5a25.51,25.51,0,0,1-3.88,17.79c-5.75,8.6-22,20.17-22,20.17s-.9,23.12-8.72,23.12c0,0-16-6.22-21.66,0,0,0-12,2.38-23.47-23.12L179,144.59s3.91,25.7,19.26,34.59,30.69,2.67,30.69,2.67,23.46-12.75,30.38-26.68,5.42-18.39,5.42-18.39L263.2,109.5"/><path class="cls-10" d="M191.57,142.76l3.83-6.25s1.08-3.19,2.77-.49c0,0,3.55.56,5.45-1.43,0,0,4.13-2.09,6-.64,0,0,7.08,2.64,9.78,2.6s1.79-2.56,1.79-2.56-9.4-5.53-12.14-4.89c0,0-4.6-.53-6.92,2.44,0,0-2.16,2.19-2.66,1.08,0,0-3.58-3.22-4.88-1.28S190.08,142,191.57,142.76Z"/><path class="cls-19" d="M208.08,103s-2.21,8.57,1.63,13.6C209.71,116.6,207.05,106,208.08,103Z"/><path class="cls-13" d="M261.44,108.05a20.18,20.18,0,0,1,.23,4.06,19.38,19.38,0,0,1-.11,3.75,3.23,3.23,0,0,0-.17,1.37h-.94l-.19-2.41Z"/><path class="cls-19" d="M262.35,205s-5.79-3.06-4.18-5C258.17,200,267.06,203.57,262.35,205Z"/><path d="M142.2,401.56l4.55,4.09a12.91,12.91,0,0,0-.45,14.09c4.55,7.73,3.64,13.18,3.64,13.18.46,2.27-5.92,13.63-5.92,13.63l-3.64,11.36c-3.65,11.37-2.28,34.54-2.28,34.54l-2.28,5.91L123.07,522s-.91,13.63,3.64,12.73,19.13,2.72,24.6,2.72,15,1.82,33.24,2.27c6.37.16,11.46.6,16.06,1.16,3.3,0,6.6-.08,9.9-.07,17.37.06,34.72,1,52,2.22,26.72,2,53.41,4.42,80.11,6.62,11.66-6.77,28.61-17.65,28.61-17.65l-8.19-24.09-10.93-46.81s-9.57-43.62-5.92-48.17,5.46-25,5.46-25l1.37-31.36,2.73-20.9V323.4H345.32c-1.37-4.55-10.48-32.27-10.48-32.27-8.2-22.72-12.75-30.9-27.78-52.37S265.62,218,265.62,218c-.91,4.09-46.15,16.82-46.15,16.82-36.13,12.72-45.54-9.09-45.54-9.09-22,20.9-29,34.08-39,48.17S117.61,315.67,123,339.3,142.2,401.56,142.2,401.56Z"/><path class="cls-47" d="M91.46,496.13s-10.2-25.66-11.09-27c0,0-6.21-.88,3.1-12.86l-5.13-19.51s-7.73-20.84-2-31.49c0,0,7.54-65.18,14.19-71.83,0,0,11.08-29.27,11.53-32.38,0,0,.44-19.95,14.63-46.56,0,0,33.26-25.72,54.1-32.81,0,0-5.31-6.21,2.44-15.53,0,0-2.58-16.46,5.69-22.42H200.1l-.54,13.56s-2.56,16,3.65,19.06,19.06,5.77,30.15,2.22c0,0,16.41-.89,27.94-13.75s8.42-12.47,11.08-21.09c0,0-4.87-12.16-4.87-22.81,0,0,13.3-1.77,14.63,7.1,0,0,3.55,8.42,14.19,12.41,0,0-2.66,7.54,18.63,19.52,0,0,8.42,2.66,4.43,10.2,0,0,51.15,9.6,64.74,30.3,0,0,32.52,41.39,39.62,116.48,0,0,10.05,54.4,8.87,72.13,0,0,2.95,30.75-8.87,44.94,0,0-15.37,29.56-19.51,31.34s-81.6-1.78-81.6-1.78l2.07-2.51s4.44-24.39,19.51-28.82c0,0-2.66-2.22,8.87-6.66,0,0-8.42-11.53,5.32-11.53,0,0,9.76.45,8.43-12,0,0-17.74,1.33-8-31.93,0,0-12.86-9.31-8-34.59,0,0,6.2-30.59-1.33-39.46,0,0-19.07-26.17-16.41-35.92,0,0-21.73-62.09-40.8-66.08,0,0-5.32-9.31-23.95-10.64,0,0-4,10.36-65.18,25.35,0,0-17.89-.07-24.25-15.59,0,0-32.07,21.28-51.58,64.3,0,0-7.1,26.6,0,43.9,0,0,8,31.48,12,44.34,0,0,4.88,9.32,4.88,18.18,0,0-2.66,6.66-5.33,5.77,0,0,10.65,24.83-2.66,32.37,0,0,8,1.78,4.44,20,0,0,.44,18.18-1.33,23.5,0,0,2.22,14.63,3.1,18.18s-.88-3.55-.88-3.55l-28.83,6.66-8,2.21-10.2-1.77V502l-3.1-5.83"/><path class="cls-21" d="M269.06,299.3a59.71,59.71,0,0,0,6.43-3.1l6.43,3.1v9.09l-3.77,3.33h-6.21l-2.88-3.11Z"/><polygon class="cls-19" points="277.1 299.36 274.07 299.36 271.68 301.88 271.68 305.29 273.57 308.19 277.1 308.19 279.62 305.29 279.62 302.26 277.1 299.36"/><text class="cls-22" transform="translate(274.04 305.53)">F</text><use transform="translate(264.83 292.26) scale(0.11)" xlink:href="#image"/><path class="cls-19" d="M195.11,208.84s2.51,4.57-2.21,5.43C192.9,214.27,192.46,207.62,195.11,208.84Z"/><path class="cls-13" d="M198.89,183.75s-.69,28.6,1.33,28.91,6.09-10.25,6.09-10.25l1.11-9.61-5.62-10Z"/><path class="cls-23" d="M213,303.13l3,5.92s-.41,1.05-.87.74-3-5.68-3-5.68Z"/><path class="cls-24" d="M273.86,184s-1.77-.89-6.5,6.8-16.85,17.74-21.88,31c0,0-8.57,15.67-9.46,33.11a52.6,52.6,0,0,0,0,20.7s3,14.78,4.73,15.37h2.37s-8.28-20.1-.3-45.82c0,0,7.61-32.08,18.59-41.46,0,0,8.9-11.83,11.27-11.65C272.68,192.09,275.64,186.07,273.86,184Z"/><path class="cls-19" d="M262.17,204.3c-.53-.26.17-3.46-3.48-3.28s7.43-8.71,7.43-8.71,3.56,1.5,3.34,2.85S262.71,204.55,262.17,204.3Z"/><path class="cls-23" d="M241.14,291l1.83,7.1s.89.44,1.11,0-1.47-7.1-1.47-7.1Z"/><path class="cls-25" d="M208.23,282.3c-1.92-14.34-6.06-31.93-6.06-31.93-1.48-5.47-3.73-34.14-3.73-34.14,0-6.95-6.91-7.23-6.91-7.23l-1.3,1.17s.89,1.36,1.88,2.8h.1a2.17,2.17,0,0,1,2.21,2.4,1.17,1.17,0,0,1,.06.2l0,0v0s0,.08,0,.12a8.79,8.79,0,0,0,.34,2v.06c0,.08,0,.14,0,.21.91,4.87,1.48,16,1.48,16,.15,4.43,5.64,28.16,5.64,30.6S207.42,296,207.42,296c3,7.39,4.51,9.09,4.51,9.09.88.15,1.77-1.62,1.77-1.62C213.26,295.75,208.23,282.3,208.23,282.3Z"/><path class="cls-19" d="M185.36,207.84s4.43,5.21,7.54,6.43c0,0,1.44-6.43,2.21-5.43,0,0-5.21-1.78-7-5.1A5.48,5.48,0,0,0,185.36,207.84Z"/><path class="cls-19" d="M193.18,187.12s-15.62,13.64,0,18.19C193.18,205.31,179,201.16,193.18,187.12Z"/><path class="cls-19" d="M270.59,164.59s7.89,3.12,5.06,11.6C275.65,176.19,278,169.5,270.59,164.59Z"/><path class="cls-19" d="M169.75,217.69s-2,6.69,20,10.71C189.71,228.4,168.86,222.59,169.75,217.69Z"/><path class="cls-19" d="M189.71,219.47s-8.8-1.49-14.16-7.73C175.55,211.74,184.53,218.28,189.71,219.47Z"/><path class="cls-19" d="M400,479.43s-27.67-15.17-42.24-16.36C357.79,463.07,376.53,469.92,400,479.43Z"/><path class="cls-19" d="M363.14,440.47s13.69-5.66,30.64,7.14C393.78,447.61,382.78,438.38,363.14,440.47Z"/><path class="cls-19" d="M386.94,301.55s-8.92,33.32-31.83,91C355.11,392.57,367,361.64,386.94,301.55Z"/><path class="cls-19" d="M360.47,258.71s-11.9,11.9-8,58.61C352.43,317.32,351.84,271.21,360.47,258.71Z"/><path class="cls-19" d="M91,423.06s37-8.92-12-8.92C78.91,414.14,122.64,414.14,91,423.06Z"/><path class="cls-19" d="M104.36,296.79s-5.37,11.6,17.39,58C121.75,354.8,106.15,322.67,104.36,296.79Z"/><path class="cls-19" d="M87,399.86s20.08,2.23,43.72,23.2C130.67,423.06,101.67,403,87,399.86Z"/><path class="cls-19" d="M406,414.14s-41.05,18,0,15.32C406,429.46,368.8,432.43,406,414.14Z"/><path class="cls-19" d="M126.36,429.73s-9.22-16.93-30.64-2.35C95.72,427.38,115.65,414.83,126.36,429.73Z"/><path class="cls-19" d="M117.14,271.21S114,300,119.72,316.26l.39,1.06S115.35,301.55,117.14,271.21Z"/><path class="cls-19" d="M92.3,485.23s-3-8.77,10.56-13.08C102.86,472.15,91.56,476.16,92.3,485.23Z"/><path class="cls-19" d="M316.07,207.55s-9.36-.32-32.51,12.37C283.56,219.92,295.77,212.62,316.07,207.55Z"/><path class="cls-19" d="M283.56,185.24s6.41,3-17.69,25C265.87,210.23,286.08,190.59,283.56,185.24Z"/><path class="cls-19" d="M210.84,126.94s2.83,0,2.16-5.62C213,121.32,213.37,125.52,210.84,126.94Z"/><path class="cls-19" d="M195.13,129.09s-3.8,1.78-3-5.25C192.11,123.84,191.67,129.87,195.13,129.09Z"/><path class="cls-10" d="M200.46,151.81s8.07-.81,9.48-1.87c0,0-3.8,3.79-1.95,7.4,0,0-1.17,1.63-4.31.41C203.68,157.75,203,152.89,200.46,151.81Z"/></g><g id="Calque_9" data-name="Calque 9"><path class="cls-48" d="M480.19,140s10.8,54.74-23.14,88.2c0,0-19.32,11.93-60,21.27a414.94,414.94,0,0,1-49.54,8.12c-64.19,6.75-86.41,37.84-91.39,46.45l-1.18-.83s0-.08,0-.27v-.11a1.22,1.22,0,0,0,0-.21v-.07a.3.3,0,0,0,0-.14c0-.3.06-.68.1-1.13a.62.62,0,0,1,0-.19c1.23-10.76,12.22-59.65,109.38-83,25.19-6.07,44.92-13.47,60.35-21.28C476.54,170.68,480.19,140,480.19,140Z"/><path class="cls-48" d="M244.62,303.23l-1.45.34c-5.52-9.24-28.11-39.32-91.13-46a415.77,415.77,0,0,1-49.53-8.12c-40.7-9.34-60-21.27-60-21.27C8.55,194.76,19.36,140,19.36,140S23,170.68,74.71,196.8c15.44,7.81,35.18,15.21,60.37,21.28,97.16,23.38,108.15,72.27,109.38,83a.62.62,0,0,1,0,.19c0,.45.07.83.1,1.13C244.61,303,244.62,303.23,244.62,303.23Z"/><path class="cls-48" d="M397,254.44s38.12,16.87,31,56.78c-52.84-47.13-173.14,0-173.14,0s.36-.8,1.18-2.21c5-8.61,27.2-39.7,91.39-46.45A414.94,414.94,0,0,0,397,254.44Z"/><path class="cls-48" d="M424.22,105.58c17.15,28.89.61,81.38.61,81.38-15.43,7.8-35.16,15.2-60.35,21.27-97.16,23.38-108.15,72.27-109.38,83,1.25-13.87,11.73-92,90.39-117.47C430.3,146.34,424.47,107.06,424.22,105.58Z"/><path class="cls-48" d="M243.17,308.52a28.09,28.09,0,0,1,1.45,2.7s-120.29-47.13-173.14,0c-7.1-39.91,31-56.78,31-56.78A415.77,415.77,0,0,0,152,262.56C215.06,269.2,237.65,299.28,243.17,308.52Z"/><path class="cls-48" d="M154.06,173.79c78.65,25.46,89.15,103.6,90.4,117.47-1.23-10.76-12.22-59.65-109.38-83-25.19-6.07-44.93-13.47-60.37-21.27,0,0-16.54-52.49.62-81.38C75.08,107.06,69.26,146.34,154.06,173.79Z"/><path class="cls-48" d="M301.34,53.11s26.28,57.17-17.16,147.47-124.6,202.36-18.29,252.66c0,0-25,.86-49.83-10.28-38.77-17.44-76.89-64.27-17.61-189.79C223.67,199.75,238.66,156.8,247,122.5a98.46,98.46,0,0,0,3.82-17.44.15.15,0,0,0,0-.09C266.4,25.32,243.16-.46,240.91-2.74c3,2.76,45.44,43.39,42.14,109.58C283.05,106.84,296.77,92,301.34,53.11Z"/><path class="cls-48" d="M402.56,203.81C398.39,443,262.63,427.74,262.63,427.74,207.09,395,209.2,326.68,256.87,259.67S334.19,121.5,334.19,121.5c31.49,87.83,19.82,143,19.82,143C388.78,258,402.56,203.81,402.56,203.81Z"/><path class="cls-48" d="M187.23,239.08s21.65-79,18.66-129.14c4.06,35.07,4.89,80.55-.24,139.4-12.09,138.28,39.9,169,82.31,171.91l-.1,1.29C284.24,423,140,438.33,148.34,255.89c4.63-100.31,3-140.81.49-156.87C158.77,120.35,181.24,174.51,187.23,239.08Z"/><path class="cls-10" d="M264,114.82l12.86-3.1,1.77-5.32s3.11-16.41,0-25.72,0-14.19-14.63-28.38-4-8.87-19.07-15.52-14.63-7.1-26.61-3.55c0,0-12-12.42-17.29-4.88,0,0-12.86-6.65-14.19-.44,0,0-10.65.44-14.64,12.41,0,0-10.64,1.78-7.09,15.52,0,0-.89,45.68,8.87,51Z"/><path class="cls-49" d="M179,183.75S185,173.36,206.75,176s3,13.3,3,13.3Z"/><polygon class="cls-12" points="267.51 160.94 262.35 161.83 268.17 185.22 267.51 188.1 279.48 195.86 277.15 180.45 267.51 160.94"/><path class="cls-13" d="M264.51,189.32l-16,16.19-9.13,10.75L237.35,220l16.24,1.22s13.69-6.87,14-7,12-7.1,11.86-8S264.51,189.32,264.51,189.32Z"/><path class="cls-14" d="M279,109.13s-3-8.72-9.52-3.8a26.3,26.3,0,0,0-6.29,7.42,4.23,4.23,0,0,1,.7,1.39,5.36,5.36,0,0,1-.15,3.29c-.09.24-.19.47-.29.68s0,.37,0,.56a4.53,4.53,0,0,1-.92,2.56c.13.52.25,1,.35,1.56a3.93,3.93,0,0,1,.86,1.69c1,4.34,2,10.66-.87,14.51a4.55,4.55,0,0,1-.66.72H267s10.51-7,11.78-14.83C278.77,124.88,281.5,118.37,279,109.13Z"/><path class="cls-15" d="M265.5,109.13c9.46-11.69,13.52,0,13.52,0,5.41,20.69-12.17,30.58-12.17,30.58l-1.35,7.64c.45,29.23,1.8,24.29,1.8,24.29,7.66,19.78,0,19.33,0,19.33l-9.47,9.89V204l-10.37,10.34c-25.24,14.39-48.68,1.8-48.68,1.8Z"/><path class="cls-15" d="M200.1,214.6s-.64-27.2-1.65-36.22,63.13-49.61,63.13-49.61Z"/><path class="cls-15" d="M259.52,122.36s4.88-16.41,0-16,2.83-7.54-8-24c0,0,.89-16-8.42-22.17s-24.39-4-24.39-4-14.19,0-20.4,3.1-9.31,4-18.63,12.42-5.76,35-5.76,35-1.33,23.95,1.77,27.94,2.66,13.75,9.31,26.16,7.54,15.52,16.41,18.63,23.95,4.88,32.37-1.78,18.19-8,25.28-25.27S259.52,122.36,259.52,122.36Z"/><path class="cls-16" d="M219,142.78s-7.37-6.12-13.76-6.81c0,0-.42-1.33-3.2,1.42,0,0-1.8,1.22-4.58-1,0,0-3.62.42-3.48,6.4,0,0-1.66,4.44,1.67,5.42a10.52,10.52,0,0,0,6.39,1.66,71.6,71.6,0,0,0,9.17-3.05A72.31,72.31,0,0,0,219,142.78Z"/><path class="cls-10" d="M210.6,98s5.61-8,25.72-4.14C236.32,93.83,216.8,81.42,210.6,98Z"/><path class="cls-10" d="M192.86,100.63A23.24,23.24,0,0,0,176,106.84S178.08,92.06,192.86,100.63Z"/><ellipse class="cls-17" cx="207.24" cy="125.25" rx="1.88" ry="2.92" transform="matrix(0.32, -0.95, 0.95, 0.32, 22.39, 281.66)"/><ellipse class="cls-17" cx="196.65" cy="125.97" rx="2.24" ry="1.25" transform="translate(14.5 272.12) rotate(-71.38)"/><path class="cls-10" d="M195.7,105.29s.41,4.66-1.59,12.19Z"/><path class="cls-18" d="M278.59,117.48s-2.95-1.18-6.21-7.39c0,0-1.47-4.73,3.11-3S276.23,116.6,278.59,117.48Z"/><path class="cls-18" d="M268.25,117.48s-3.42,1.19,3.91,7.1c0,0,1.48,3.25,3.21,0a30.67,30.67,0,0,0-1.51-5.62C272.68,115.71,268.25,117.48,268.25,117.48Z"/><path class="cls-19" d="M193.15,147.34s7.1-8.57,27.2-4.73C220.35,142.61,202,140.84,193.15,147.34Z"/><path class="cls-19" d="M215.84,99.52s-5.32,1.11,0,4.44C215.84,104,212.07,101.52,215.84,99.52Z"/><path class="cls-10" d="M261.4,109.5a25.51,25.51,0,0,1-3.88,17.79c-5.75,8.6-22,20.17-22,20.17s-.9,23.12-8.72,23.12c0,0-16-6.22-21.66,0,0,0-12,2.38-23.47-23.12L179,144.59s3.91,25.7,19.26,34.59,30.69,2.67,30.69,2.67,23.46-12.75,30.38-26.68,5.42-18.39,5.42-18.39L263.2,109.5"/><path class="cls-10" d="M191.57,142.76l3.83-6.25s1.08-3.19,2.77-.49c0,0,3.55.56,5.45-1.43,0,0,4.13-2.09,6-.64,0,0,7.08,2.64,9.78,2.6s1.79-2.56,1.79-2.56-9.4-5.53-12.14-4.89c0,0-4.6-.53-6.92,2.44,0,0-2.16,2.19-2.66,1.08,0,0-3.58-3.22-4.88-1.28S190.08,142,191.57,142.76Z"/><path class="cls-19" d="M208.08,103s-2.21,8.57,1.63,13.6C209.71,116.6,207.05,106,208.08,103Z"/><path class="cls-13" d="M261.44,108.05a20.18,20.18,0,0,1,.23,4.06,19.38,19.38,0,0,1-.11,3.75,3.23,3.23,0,0,0-.17,1.37h-.94l-.19-2.41Z"/><path class="cls-19" d="M262.35,205s-5.79-3.06-4.18-5C258.17,200,267.06,203.57,262.35,205Z"/><path d="M142.2,401.56l4.55,4.09a12.91,12.91,0,0,0-.45,14.09c4.55,7.73,3.64,13.18,3.64,13.18.46,2.27-5.92,13.63-5.92,13.63l-3.64,11.36c-3.65,11.37-2.28,34.54-2.28,34.54l-2.28,5.91L123.07,522s-.91,13.63,3.64,12.73,19.13,2.72,24.6,2.72,15,1.82,33.24,2.27c6.37.16,11.46.6,16.06,1.16,3.3,0,6.6-.08,9.9-.07,17.37.06,34.72,1,52,2.22,26.72,2,53.41,4.42,80.11,6.62,11.66-6.77,28.61-17.65,28.61-17.65l-8.19-24.09-10.93-46.81s-9.57-43.62-5.92-48.17,5.46-25,5.46-25l1.37-31.36,2.73-20.9V323.4H345.32c-1.37-4.55-10.48-32.27-10.48-32.27-8.2-22.72-12.75-30.9-27.78-52.37S265.62,218,265.62,218c-.91,4.09-46.15,16.82-46.15,16.82-36.13,12.72-45.54-9.09-45.54-9.09-22,20.9-29,34.08-39,48.17S117.61,315.67,123,339.3,142.2,401.56,142.2,401.56Z"/><path class="cls-50" d="M91.46,496.13s-10.2-25.66-11.09-27c0,0-6.21-.88,3.1-12.86l-5.13-19.51s-7.73-20.84-2-31.49c0,0,7.54-65.18,14.19-71.83,0,0,11.08-29.27,11.53-32.38,0,0,.44-19.95,14.63-46.56,0,0,33.26-25.72,54.1-32.81,0,0-5.31-6.21,2.44-15.53,0,0-2.58-16.46,5.69-22.42H200.1l-.54,13.56s-2.56,16,3.65,19.06,19.06,5.77,30.15,2.22c0,0,16.41-.89,27.94-13.75s8.42-12.47,11.08-21.09c0,0-4.87-12.16-4.87-22.81,0,0,13.3-1.77,14.63,7.1,0,0,3.55,8.42,14.19,12.41,0,0-2.66,7.54,18.63,19.52,0,0,8.42,2.66,4.43,10.2,0,0,51.15,9.6,64.74,30.3,0,0,32.52,41.39,39.62,116.48,0,0,10.05,54.4,8.87,72.13,0,0,2.95,30.75-8.87,44.94,0,0-15.37,29.56-19.51,31.34s-81.6-1.78-81.6-1.78l2.07-2.51s4.44-24.39,19.51-28.82c0,0-2.66-2.22,8.87-6.66,0,0-8.42-11.53,5.32-11.53,0,0,9.76.45,8.43-12,0,0-17.74,1.33-8-31.93,0,0-12.86-9.31-8-34.59,0,0,6.2-30.59-1.33-39.46,0,0-19.07-26.17-16.41-35.92,0,0-21.73-62.09-40.8-66.08,0,0-5.32-9.31-23.95-10.64,0,0-4,10.36-65.18,25.35,0,0-17.89-.07-24.25-15.59,0,0-32.07,21.28-51.58,64.3,0,0-7.1,26.6,0,43.9,0,0,8,31.48,12,44.34,0,0,4.88,9.32,4.88,18.18,0,0-2.66,6.66-5.33,5.77,0,0,10.65,24.83-2.66,32.37,0,0,8,1.78,4.44,20,0,0,.44,18.18-1.33,23.5,0,0,2.22,14.63,3.1,18.18s-.88-3.55-.88-3.55l-28.83,6.66-8,2.21-10.2-1.77V502l-3.1-5.83"/><path class="cls-21" d="M269.06,299.3a59.71,59.71,0,0,0,6.43-3.1l6.43,3.1v9.09l-3.77,3.33h-6.21l-2.88-3.11Z"/><polygon class="cls-19" points="277.1 299.36 274.07 299.36 271.68 301.88 271.68 305.29 273.57 308.19 277.1 308.19 279.62 305.29 279.62 302.26 277.1 299.36"/><text class="cls-22" transform="translate(274.04 305.53)">F</text><use transform="translate(264.83 292.26) scale(0.11)" xlink:href="#image"/><path class="cls-19" d="M195.11,208.84s2.51,4.57-2.21,5.43C192.9,214.27,192.46,207.62,195.11,208.84Z"/><path class="cls-13" d="M198.89,183.75s-.69,28.6,1.33,28.91,6.09-10.25,6.09-10.25l1.11-9.61-5.62-10Z"/><path class="cls-23" d="M213,303.13l3,5.92s-.41,1.05-.87.74-3-5.68-3-5.68Z"/><path class="cls-24" d="M273.86,184s-1.77-.89-6.5,6.8-16.85,17.74-21.88,31c0,0-8.57,15.67-9.46,33.11a52.6,52.6,0,0,0,0,20.7s3,14.78,4.73,15.37h2.37s-8.28-20.1-.3-45.82c0,0,7.61-32.08,18.59-41.46,0,0,8.9-11.83,11.27-11.65C272.68,192.09,275.64,186.07,273.86,184Z"/><path class="cls-19" d="M262.17,204.3c-.53-.26.17-3.46-3.48-3.28s7.43-8.71,7.43-8.71,3.56,1.5,3.34,2.85S262.71,204.55,262.17,204.3Z"/><path class="cls-23" d="M241.14,291l1.83,7.1s.89.44,1.11,0-1.47-7.1-1.47-7.1Z"/><path class="cls-25" d="M208.23,282.3c-1.92-14.34-6.06-31.93-6.06-31.93-1.48-5.47-3.73-34.14-3.73-34.14,0-6.95-6.91-7.23-6.91-7.23l-1.3,1.17s.89,1.36,1.88,2.8h.1a2.17,2.17,0,0,1,2.21,2.4,1.17,1.17,0,0,1,.06.2l0,0v0s0,.08,0,.12a8.79,8.79,0,0,0,.34,2v.06c0,.08,0,.14,0,.21.91,4.87,1.48,16,1.48,16,.15,4.43,5.64,28.16,5.64,30.6S207.42,296,207.42,296c3,7.39,4.51,9.09,4.51,9.09.88.15,1.77-1.62,1.77-1.62C213.26,295.75,208.23,282.3,208.23,282.3Z"/><path class="cls-19" d="M185.36,207.84s4.43,5.21,7.54,6.43c0,0,1.44-6.43,2.21-5.43,0,0-5.21-1.78-7-5.1A5.48,5.48,0,0,0,185.36,207.84Z"/><path class="cls-19" d="M193.18,187.12s-15.62,13.64,0,18.19C193.18,205.31,179,201.16,193.18,187.12Z"/><path class="cls-19" d="M270.59,164.59s7.89,3.12,5.06,11.6C275.65,176.19,278,169.5,270.59,164.59Z"/><path class="cls-19" d="M169.75,217.69s-2,6.69,20,10.71C189.71,228.4,168.86,222.59,169.75,217.69Z"/><path class="cls-19" d="M189.71,219.47s-8.8-1.49-14.16-7.73C175.55,211.74,184.53,218.28,189.71,219.47Z"/><path class="cls-19" d="M400,479.43s-27.67-15.17-42.24-16.36C357.79,463.07,376.53,469.92,400,479.43Z"/><path class="cls-19" d="M363.14,440.47s13.69-5.66,30.64,7.14C393.78,447.61,382.78,438.38,363.14,440.47Z"/><path class="cls-19" d="M386.94,301.55s-8.92,33.32-31.83,91C355.11,392.57,367,361.64,386.94,301.55Z"/><path class="cls-19" d="M360.47,258.71s-11.9,11.9-8,58.61C352.43,317.32,351.84,271.21,360.47,258.71Z"/><path class="cls-19" d="M91,423.06s37-8.92-12-8.92C78.91,414.14,122.64,414.14,91,423.06Z"/><path class="cls-19" d="M104.36,296.79s-5.37,11.6,17.39,58C121.75,354.8,106.15,322.67,104.36,296.79Z"/><path class="cls-19" d="M87,399.86s20.08,2.23,43.72,23.2C130.67,423.06,101.67,403,87,399.86Z"/><path class="cls-19" d="M406,414.14s-41.05,18,0,15.32C406,429.46,368.8,432.43,406,414.14Z"/><path class="cls-19" d="M126.36,429.73s-9.22-16.93-30.64-2.35C95.72,427.38,115.65,414.83,126.36,429.73Z"/><path class="cls-19" d="M117.14,271.21S114,300,119.72,316.26l.39,1.06S115.35,301.55,117.14,271.21Z"/><path class="cls-19" d="M92.3,485.23s-3-8.77,10.56-13.08C102.86,472.15,91.56,476.16,92.3,485.23Z"/><path class="cls-19" d="M316.07,207.55s-9.36-.32-32.51,12.37C283.56,219.92,295.77,212.62,316.07,207.55Z"/><path class="cls-19" d="M283.56,185.24s6.41,3-17.69,25C265.87,210.23,286.08,190.59,283.56,185.24Z"/><path class="cls-19" d="M210.84,126.94s2.83,0,2.16-5.62C213,121.32,213.37,125.52,210.84,126.94Z"/><path class="cls-19" d="M195.13,129.09s-3.8,1.78-3-5.25C192.11,123.84,191.67,129.87,195.13,129.09Z"/><path class="cls-10" d="M200.46,151.81s8.07-.81,9.48-1.87c0,0-3.8,3.79-1.95,7.4,0,0-1.17,1.63-4.31.41C203.68,157.75,203,152.89,200.46,151.81Z"/></g></svg>