<svg id="Calque_1" data-name="Calque 1" xmlns="http://www.w3.org/2000/svg" xmlns:xlink="http://www.w3.org/1999/xlink" viewBox="0 0 500 500"><defs><style>.cls-1{fill:url(#linear-gradient);}.cls-2{fill:url(#linear-gradient-2);}.cls-3{fill:url(#linear-gradient-3);}.cls-4{fill:url(#linear-gradient-4);}.cls-5{fill:url(#linear-gradient-5);}.cls-6{fill:url(#linear-gradient-6);}.cls-7{fill:url(#linear-gradient-7);}.cls-8{fill:url(#linear-gradient-8);}.cls-9{fill:url(#linear-gradient-9);}.cls-10{fill:#29110e;}.cls-11{fill:red;}.cls-12{fill:#1f212b;}.cls-13{fill:#f7b391;}.cls-14{fill:none;stroke:#080708;stroke-miterlimit:10;}.cls-15{fill:#f7b392;}.cls-16{fill:#bc634e;}.cls-17{fill:#140b0b;}.cls-18{fill:#0f0b0b;}.cls-19{fill:#070606;}.cls-20{fill:url(#Dégradé_sans_nom_62);}.cls-21{fill:#dbda0d;}.cls-22{font-size:5.91px;fill:#d0e00a;font-family:MyriadPro-Regular, Myriad Pro;}.cls-23{fill:#5b5351;}.cls-24{fill:#80f;}</style><linearGradient id="linear-gradient" x1="255.11" y1="221.79" x2="482" y2="221.79" gradientUnits="userSpaceOnUse"><stop offset="0" stop-color="#ff4b1b"/><stop offset="1" stop-color="#930000"/></linearGradient><linearGradient id="linear-gradient-2" x1="17.9" y1="221.54" x2="244.8" y2="221.54" xlink:href="#linear-gradient"/><linearGradient id="linear-gradient-3" x1="255.11" y1="282.57" x2="429.12" y2="282.57" gradientUnits="userSpaceOnUse"><stop offset="0" stop-color="#fc9310"/><stop offset="1" stop-color="#ff251b"/></linearGradient><linearGradient id="linear-gradient-4" x1="255.27" y1="198.16" x2="432.18" y2="198.16" xlink:href="#linear-gradient-3"/><linearGradient id="linear-gradient-5" x1="70.77" y1="282.57" x2="244.8" y2="282.57" gradientUnits="userSpaceOnUse"><stop offset="0" stop-color="#ff251b"/><stop offset="1" stop-color="#fc9310"/></linearGradient><linearGradient id="linear-gradient-6" x1="67.71" y1="198.16" x2="244.64" y2="198.16" xlink:href="#linear-gradient-5"/><linearGradient id="linear-gradient-7" x1="238.52" y1="240.98" x2="233.44" y2="569.55" xlink:href="#linear-gradient"/><linearGradient id="linear-gradient-8" x1="250.65" y1="483.82" x2="347.75" y2="221.87" gradientTransform="translate(31.32 -31.92) rotate(6.14)" gradientUnits="userSpaceOnUse"><stop offset="0" stop-color="#fcfe10"/><stop offset="1" stop-color="#ff541b"/></linearGradient><linearGradient id="linear-gradient-9" x1="148.28" y1="464.66" x2="245.38" y2="202.7" gradientTransform="translate(-82.13 78.36) rotate(-20.28)" xlink:href="#linear-gradient-8"/><linearGradient id="Dégradé_sans_nom_62" x1="253.77" y1="508.8" x2="253.77" y2="160.54" gradientUnits="userSpaceOnUse"><stop offset="0.08" stop-color="#662d91"/><stop offset="0.35" stop-color="#0071bc"/><stop offset="0.42" stop-color="#00b365"/><stop offset="0.48" stop-color="#00ea1c"/><stop offset="0.51" stop-color="lime"/><stop offset="0.52" stop-color="#18ff00"/><stop offset="0.53" stop-color="#48ff00"/><stop offset="0.55" stop-color="#73ff00"/><stop offset="0.56" stop-color="#9f0"/><stop offset="0.58" stop-color="#b9ff00"/><stop offset="0.6" stop-color="#d3ff00"/><stop offset="0.62" stop-color="#e6ff00"/><stop offset="0.65" stop-color="#f4ff00"/><stop offset="0.68" stop-color="#fdff00"/><stop offset="0.73" stop-color="#ff0"/><stop offset="0.75" stop-color="#ffc600"/><stop offset="0.78" stop-color="#ff9200"/><stop offset="0.8" stop-color="#ff6500"/><stop offset="0.83" stop-color="#ff4100"/><stop offset="0.85" stop-color="#ff2400"/><stop offset="0.87" stop-color="#ff1000"/><stop offset="0.9" stop-color="#ff0400"/><stop offset="0.92" stop-color="red"/></linearGradient></defs><path class="cls-1" d="M480.37,139.77s10.79,54.74-23.15,88.19c0,0-19.32,11.93-60,21.27a415.48,415.48,0,0,1-49.55,8.12c-64.18,6.75-86.41,37.84-91.39,46.46l-1.17-.84s0-.08,0-.26v-.12a.62.62,0,0,0,0-.21v-.07a.57.57,0,0,0,0-.14c0-.29.06-.67.11-1.12a1.34,1.34,0,0,1,0-.2c1.23-10.76,12.22-59.65,109.38-83,25.19-6.07,44.92-13.47,60.36-21.27C476.71,170.42,480.37,139.77,480.37,139.77Z"/><path class="cls-2" d="M244.8,303l-1.46.34c-5.52-9.24-28.11-39.32-91.12-46a415.77,415.77,0,0,1-49.53-8.12c-40.7-9.34-60-21.27-60-21.27-33.94-33.45-23.13-88.19-23.13-88.19s3.66,30.65,55.34,56.78c15.44,7.8,35.18,15.2,60.37,21.27,97.17,23.38,108.15,72.27,109.39,83a1.34,1.34,0,0,1,0,.2c0,.45.07.83.1,1.12C244.78,302.71,244.8,303,244.8,303Z"/><path class="cls-3" d="M397.22,254.18s38.11,16.87,31,56.78c-52.83-47.13-173.13,0-173.13,0a23.69,23.69,0,0,1,1.17-2.2c5-8.62,27.21-39.71,91.39-46.46A415.48,415.48,0,0,0,397.22,254.18Z"/><path class="cls-4" d="M424.39,105.33c17.16,28.88.62,81.37.62,81.37-15.44,7.81-35.17,15.21-60.36,21.27-97.16,23.38-108.15,72.27-109.38,83,1.25-13.87,11.74-92,90.39-117.47C430.47,146.08,424.64,106.8,424.39,105.33Z"/><path class="cls-5" d="M243.34,308.26a27.17,27.17,0,0,1,1.46,2.7s-120.3-47.13-173.15,0c-7.09-39.91,31-56.78,31-56.78a415.77,415.77,0,0,0,49.53,8.12C215.23,268.94,237.82,299,243.34,308.26Z"/><path class="cls-6" d="M154.23,173.53C232.89,199,243.39,277.13,244.64,291c-1.24-10.76-12.22-59.65-109.39-83-25.19-6.06-44.93-13.46-60.37-21.27,0,0-16.54-52.49.62-81.37C75.25,106.8,69.43,146.08,154.23,173.53Z"/><path class="cls-7" d="M301.51,52.86S327.8,110,284.35,200.32,159.75,402.68,266.06,453c0,0-25.05.87-49.82-10.28-38.77-17.44-76.9-64.27-17.62-189.79,25.22-53.42,40.21-96.37,48.56-130.66A97.75,97.75,0,0,0,251,104.8a.22.22,0,0,0,0-.08C266.57,25.06,243.33-.71,241.08-3c3,2.76,45.44,43.39,42.14,109.58C283.22,106.58,296.94,91.73,301.51,52.86Z"/><path class="cls-8" d="M402.74,203.55C398.56,442.72,262.8,427.48,262.8,427.48c-55.53-32.74-53.43-101.05-5.76-168.07s77.32-138.17,77.32-138.17c31.5,87.83,19.83,143,19.83,143C389,257.72,402.74,203.55,402.74,203.55Z"/><path class="cls-9" d="M187.4,238.82s21.65-79,18.67-129.14c4.06,35.07,4.89,80.55-.25,139.4-12.09,138.28,39.91,169,82.32,171.92l-.11,1.28c-3.61.42-147.91,15.79-139.52-166.64,4.64-100.32,3-140.82.49-156.88C158.94,120.1,181.41,174.25,187.4,238.82Z"/><path class="cls-10" d="M264.13,114.57,277,111.46l1.78-5.32s3.1-16.41,0-25.72,0-14.19-14.64-28.38-4-8.87-19.07-15.52-14.63-7.1-26.6-3.55c0,0-12-12.42-17.3-4.88,0,0-12.86-6.65-14.19-.44,0,0-10.64.44-14.63,12.42,0,0-10.65,1.77-7.1,15.52,0,0-.88,45.67,8.87,51Z"/><path class="cls-11" d="M179.14,183.49s6.06-10.39,27.79-7.73,2.95,13.31,2.95,13.31Z"/><polygon class="cls-12" points="267.68 160.69 262.53 161.57 268.35 184.96 267.68 187.85 279.65 195.61 277.32 180.2 267.68 160.69"/><path class="cls-13" d="M264.69,189.07l-16,16.18L239.59,216l-2.06,3.76L253.77,221s13.69-6.87,14-7,12-7.1,11.86-8S264.69,189.07,264.69,189.07Z"/><path class="cls-14" d="M279.2,108.87s-3-8.72-9.51-3.8a26.22,26.22,0,0,0-6.3,7.42,4.14,4.14,0,0,1,.7,1.39,5.36,5.36,0,0,1-.15,3.29,4.76,4.76,0,0,1-.29.69c0,.18,0,.36,0,.55a4.43,4.43,0,0,1-.92,2.56c.13.52.25,1,.35,1.56a3.86,3.86,0,0,1,.86,1.7c1,4.33,2,10.65-.87,14.51a5,5,0,0,1-.66.71h4.75s10.51-7,11.79-14.83C279,124.62,281.67,118.11,279.2,108.87Z"/><path class="cls-15" d="M265.67,108.87c9.47-11.69,13.52,0,13.52,0C284.6,129.56,267,139.45,267,139.45l-1.35,7.65c.45,29.22,1.8,24.28,1.8,24.28,7.67,19.78,0,19.33,0,19.33l-9.46,9.9v3.14L247.64,214.1c-25.25,14.39-48.69,1.8-48.69,1.8Z"/><path class="cls-15" d="M200.28,214.34s-.65-27.2-1.66-36.21,63.13-49.62,63.13-49.62Z"/><path class="cls-15" d="M259.7,122.1s4.88-16.4,0-16,2.83-7.54-8-24c0,0,.88-16-8.43-22.17s-24.39-4-24.39-4-14.19,0-20.4,3.1-9.31,4-18.62,12.42-5.77,35-5.77,35-1.33,24,1.78,27.94,2.66,13.75,9.31,26.16,7.54,15.53,16.41,18.63,23.94,4.88,32.37-1.77,18.18-8,25.27-25.28S259.7,122.1,259.7,122.1Z"/><path class="cls-16" d="M219.17,142.52s-7.36-6.12-13.76-6.81c0,0-.41-1.33-3.19,1.42,0,0-1.81,1.22-4.59-1,0,0-3.61.41-3.47,6.39,0,0-1.67,4.45,1.66,5.42a10.62,10.62,0,0,0,6.4,1.67,70.65,70.65,0,0,0,9.17-3.06A71.63,71.63,0,0,0,219.17,142.52Z"/><path class="cls-10" d="M210.77,97.71s5.62-8,25.72-4.13C236.49,93.58,217,81.16,210.77,97.71Z"/><path class="cls-10" d="M193,100.38a23.21,23.21,0,0,0-16.85,6.2S178.25,91.8,193,100.38Z"/><ellipse class="cls-17" cx="207.41" cy="124.99" rx="1.88" ry="2.92" transform="matrix(0.32, -0.95, 0.95, 0.32, 22.75, 281.65)"/><ellipse class="cls-17" cx="196.82" cy="125.71" rx="2.24" ry="1.25" transform="translate(14.86 272.11) rotate(-71.38)"/><path class="cls-10" d="M195.87,105s.41,4.66-1.58,12.2Z"/><path class="cls-18" d="M278.77,117.23s-3-1.19-6.21-7.39c0,0-1.48-4.73,3.1-3S276.4,116.34,278.77,117.23Z"/><path class="cls-18" d="M268.42,117.23s-3.41,1.18,3.91,7.09c0,0,1.48,3.25,3.22,0A30.9,30.9,0,0,0,274,118.7C272.85,115.45,268.42,117.23,268.42,117.23Z"/><path class="cls-19" d="M193.33,147.09s7.09-8.58,27.2-4.73C220.53,142.36,202.2,140.58,193.33,147.09Z"/><path class="cls-19" d="M216,99.27s-5.32,1.11,0,4.43C216,103.7,212.25,101.26,216,99.27Z"/><path class="cls-10" d="M261.57,109.24A25.56,25.56,0,0,1,257.7,127c-5.76,8.59-22,20.16-22,20.16s-.9,23.13-8.73,23.13c0,0-15.94-6.23-21.66,0,0,0-12,2.37-23.46-23.13l-2.71-2.87s3.91,25.7,19.25,34.6,30.69,2.66,30.69,2.66,23.47-12.75,30.39-26.68,5.41-18.39,5.41-18.39l-1.5-27.28"/><path class="cls-10" d="M191.74,142.5l3.84-6.24s1.08-3.2,2.76-.5c0,0,3.56.56,5.45-1.43,0,0,4.13-2.09,6.05-.63,0,0,7.08,2.63,9.77,2.6s1.8-2.57,1.8-2.57-9.41-5.53-12.15-4.89c0,0-4.59-.52-6.92,2.45,0,0-2.16,2.19-2.66,1.08,0,0-3.58-3.23-4.88-1.29S190.25,141.72,191.74,142.5Z"/><path class="cls-19" d="M208.26,102.74s-2.22,8.57,1.62,13.6C209.88,116.34,207.22,105.7,208.26,102.74Z"/><path class="cls-13" d="M261.62,107.79a19.65,19.65,0,0,1,.22,4.06,19.37,19.37,0,0,1-.11,3.75,3.23,3.23,0,0,0-.17,1.37h-.94l-.18-2.4Z"/><path class="cls-19" d="M262.53,204.75s-5.8-3.05-4.19-5.05C258.34,199.7,267.23,203.31,262.53,204.75Z"/><path d="M142.37,401.3l4.56,4.09a12.91,12.91,0,0,0-.46,14.09c4.55,7.73,3.64,13.18,3.64,13.18.46,2.27-5.92,13.64-5.92,13.64l-3.64,11.36c-3.64,11.36-2.28,34.53-2.28,34.53L136,498.1l-12.76,23.63s-.91,13.64,3.65,12.73,19.13,2.73,24.59,2.73,15,1.81,33.25,2.27c6.37.16,11.45.59,16.06,1.15,3.3-.05,6.6-.08,9.9-.07,17.36.06,34.71,1,52,2.23,26.72,2,53.41,4.41,80.12,6.61,11.65-6.77,28.61-17.65,28.61-17.65l-8.2-24.08-10.93-46.81s-9.56-43.63-5.92-48.17,5.47-25,5.47-25l1.36-31.36,2.73-20.9V323.14H345.49c-1.37-4.55-10.48-32.27-10.48-32.27-8.19-22.72-12.75-30.9-27.78-52.36s-41.44-20.8-41.44-20.8c-.91,4.09-46.15,16.81-46.15,16.81-36.13,12.73-45.54-9.09-45.54-9.09-22,20.91-29,34.09-39,48.17S117.78,315.41,123.17,339,142.37,401.3,142.37,401.3Z"/><path class="cls-20" d="M91.63,495.87s-10.2-25.66-11.09-27c0,0-6.21-.88,3.11-12.86l-5.13-19.51s-7.73-20.84-2-31.48c0,0,7.54-65.19,14.19-71.84,0,0,11.09-29.27,11.53-32.37,0,0,.45-20,14.64-46.57,0,0,33.26-25.72,54.1-32.81,0,0-5.32-6.21,2.44-15.52,0,0-2.59-16.47,5.69-22.43h21.14l-.55,13.56s-2.56,16,3.65,19.07,19.07,5.76,30.15,2.21c0,0,16.41-.88,27.94-13.74s8.43-12.48,11.09-21.1c0,0-4.88-12.16-4.88-22.81,0,0,13.3-1.77,14.63,7.1,0,0,3.55,8.43,14.19,12.42,0,0-2.66,7.54,18.63,19.51,0,0,8.43,2.66,4.43,10.2,0,0,51.15,9.61,64.75,30.3,0,0,32.52,41.39,39.61,116.48,0,0,10.06,54.4,8.87,72.14,0,0,3,30.74-8.87,44.93,0,0-15.37,29.57-19.51,31.34s-81.59-1.77-81.59-1.77l2.07-2.52s4.43-24.39,19.51-28.82c0,0-2.66-2.22,8.87-6.65,0,0-8.43-11.53,5.32-11.53,0,0,9.75.44,8.42-12,0,0-17.73,1.33-8-31.92,0,0-12.86-9.32-8-34.59,0,0,6.21-30.6-1.33-39.47,0,0-19.07-26.17-16.41-35.92,0,0-21.73-62.08-40.8-66.08,0,0-5.32-9.31-23.94-10.64,0,0-4,10.36-65.19,25.36,0,0-17.89-.08-24.24-15.6,0,0-32.08,21.28-51.59,64.3,0,0-7.1,26.61,0,43.9,0,0,8,31.49,12,44.35,0,0,4.88,9.31,4.88,18.18,0,0-2.66,6.65-5.32,5.76,0,0,10.64,24.84-2.66,32.37,0,0,8,1.78,4.43,20,0,0,.45,18.18-1.33,23.5,0,0,2.22,14.64,3.11,18.18s-.89-3.54-.89-3.54l-28.82,6.65-8,2.22L94.73,507V501.7l-3.1-5.83"/><path class="cls-21" d="M269.23,299a59.71,59.71,0,0,0,6.43-3.1l6.43,3.1v9.09l-3.77,3.33h-6.21l-2.88-3.11Z"/><polygon class="cls-19" points="277.27 299.11 274.25 299.11 271.85 301.63 271.85 305.03 273.75 307.93 277.27 307.93 279.8 305.03 279.8 302 277.27 299.11"/><text class="cls-22" transform="translate(274.21 305.27)">F</text><image width="201" height="201" transform="translate(265 292) scale(0.11)" xlink:href="../../../../../../Realisation%20:%20illustration/twitch/verified.png"/><path class="cls-19" d="M195.29,208.58s2.5,4.57-2.22,5.43C193.07,214,192.63,207.37,195.29,208.58Z"/><path class="cls-13" d="M199.07,183.49s-.7,28.6,1.33,28.91,6.08-10.25,6.08-10.25l1.11-9.61-5.61-10Z"/><path class="cls-23" d="M213.19,302.88l3,5.91s-.42,1.06-.88.75-3-5.69-3-5.69Z"/><path class="cls-24" d="M274,183.74s-1.78-.88-6.51,6.8-16.85,17.74-21.87,31.05c0,0-8.58,15.66-9.46,33.11a52.32,52.32,0,0,0,0,20.69s3,14.78,4.73,15.37h2.36s-8.28-20.1-.3-45.82c0,0,7.62-32.08,18.59-41.46,0,0,8.91-11.83,11.27-11.64C272.85,191.84,275.81,185.81,274,183.74Z"/><path class="cls-19" d="M262.35,204c-.54-.25.17-3.46-3.49-3.28s7.43-8.71,7.43-8.71,3.57,1.5,3.34,2.85S262.89,204.29,262.35,204Z"/><path class="cls-23" d="M241.31,290.76l1.83,7.1s.89.44,1.11,0-1.47-7.1-1.47-7.1Z"/><path class="cls-24" d="M208.41,282c-1.93-14.34-6.07-31.93-6.07-31.93-1.47-5.46-3.73-34.14-3.73-34.14,0-6.95-6.91-7.23-6.91-7.23l-1.29,1.17s.88,1.36,1.88,2.8h.09a2.19,2.19,0,0,1,2.22,2.4l.06.2v0a.56.56,0,0,0,0,.12,2.58,2.58,0,0,1,.12,1,2.43,2.43,0,0,1,.21.95v.06a1.36,1.36,0,0,1,0,.2c.92,4.87,1.49,16,1.49,16,.14,4.44,5.63,28.16,5.63,30.6s5.45,31.49,5.45,31.49c3,7.39,4.51,9.09,4.51,9.09.89.14,1.77-1.63,1.77-1.63C213.43,295.49,208.41,282,208.41,282Z"/><path class="cls-19" d="M185.53,207.58s4.44,5.21,7.54,6.43c0,0,1.44-6.43,2.22-5.43,0,0-5.21-1.78-7-5.1A5.51,5.51,0,0,0,185.53,207.58Z"/><path class="cls-19" d="M193.35,186.86s-15.61,13.64,0,18.19C193.35,205.05,179.12,200.9,193.35,186.86Z"/><path class="cls-19" d="M270.77,164.33s7.88,3.12,5.05,11.6C275.82,175.93,278.13,169.24,270.77,164.33Z"/><path class="cls-19" d="M169.93,217.43s-2,6.69,19.95,10.71C189.88,228.14,169,222.34,169.93,217.43Z"/><path class="cls-19" d="M189.88,219.21s-8.8-1.48-14.15-7.73C175.73,211.48,184.7,218,189.88,219.21Z"/><path class="cls-19" d="M400.2,479.18S372.54,464,358,462.82C358,462.82,376.7,469.66,400.2,479.18Z"/><path class="cls-19" d="M363.32,440.21S377,434.56,394,447.35C394,447.35,383,438.13,363.32,440.21Z"/><path class="cls-19" d="M387.11,301.29s-8.92,33.32-31.82,91C355.29,392.32,367.18,361.38,387.11,301.29Z"/><path class="cls-19" d="M360.64,258.46s-11.9,11.9-8,58.6C352.61,317.06,352,271,360.64,258.46Z"/><path class="cls-19" d="M91.14,422.81s37-8.93-12-8.93C79.09,413.88,122.82,413.88,91.14,422.81Z"/><path class="cls-19" d="M104.53,296.53s-5.36,11.6,17.39,58C121.92,354.54,106.33,322.41,104.53,296.53Z"/><path class="cls-19" d="M87.12,399.6s20.08,2.24,43.73,23.21C130.85,422.81,101.84,402.73,87.12,399.6Z"/><path class="cls-19" d="M406.15,413.88s-41,18,0,15.32C406.15,429.2,369,432.18,406.15,413.88Z"/><path class="cls-19" d="M126.53,429.47s-9.22-16.93-30.63-2.35C95.9,427.12,115.83,414.57,126.53,429.47Z"/><path class="cls-19" d="M117.31,271s-3.13,28.77,2.59,45.05c.12.36.25.71.39,1.06C120.29,317.06,115.53,301.29,117.31,271Z"/><path class="cls-19" d="M92.47,485s-3-8.78,10.56-13.09C103,471.89,91.73,475.9,92.47,485Z"/><path class="cls-19" d="M316.24,207.29s-9.35-.31-32.5,12.37C283.74,219.66,296,212.37,316.24,207.29Z"/><path class="cls-19" d="M283.74,185s6.4,3-17.69,25C266.05,210,286.26,190.34,283.74,185Z"/><path class="cls-19" d="M211,126.68s2.83,0,2.16-5.62C213.17,121.06,213.54,125.27,211,126.68Z"/><path class="cls-19" d="M195.3,128.83s-3.79,1.78-3-5.24C192.29,123.59,191.84,129.61,195.3,128.83Z"/><path class="cls-10" d="M200.63,151.55s8.07-.81,9.49-1.87c0,0-3.81,3.79-2,7.4,0,0-1.17,1.63-4.32.41C203.85,157.49,203.2,152.63,200.63,151.55Z"/></svg>