<svg width="1200" height="268" viewBox="0 0 1200 268" fill="none" xmlns="http://www.w3.org/2000/svg">
    <g filter="url(#filter0_i_896_499)">
        <path fill-rule="evenodd" clip-rule="evenodd"
            d="M0 267.066L25 213.066C50 159.066 100 51.0665 150 27.0665C200 3.0665 250 63.0665 300 117.066C350 171.066 400 219.066 450 189.066C500 159.066 550 51.0665 600 15.0665C650 -20.9335 700 15.0665 750 45.0665C800 75.0665 850 99.0665 900 93.0665C950 87.0665 1000 51.0665 1050 33.0665C1100 15.0665 1150 15.0665 1175 15.0665H1200V267.066H1175C1150 267.066 1100 267.066 1050 267.066C1000 267.066 950 267.066 900 267.066C850 267.066 800 267.066 750 267.066C700 267.066 650 267.066 600 267.066C550 267.066 500 267.066 450 267.066C400 267.066 350 267.066 300 267.066C250 267.066 200 267.066 150 267.066C100 267.066 50 267.066 25 267.066H0Z"
            fill="#1D1F21" />
        <path fill-rule="evenodd" clip-rule="evenodd"
            d="M0 267.066L25 213.066C50 159.066 100 51.0665 150 27.0665C200 3.0665 250 63.0665 300 117.066C350 171.066 400 219.066 450 189.066C500 159.066 550 51.0665 600 15.0665C650 -20.9335 700 15.0665 750 45.0665C800 75.0665 850 99.0665 900 93.0665C950 87.0665 1000 51.0665 1050 33.0665C1100 15.0665 1150 15.0665 1175 15.0665H1200V267.066H1175C1150 267.066 1100 267.066 1050 267.066C1000 267.066 950 267.066 900 267.066C850 267.066 800 267.066 750 267.066C700 267.066 650 267.066 600 267.066C550 267.066 500 267.066 450 267.066C400 267.066 350 267.066 300 267.066C250 267.066 200 267.066 150 267.066C100 267.066 50 267.066 25 267.066H0Z"
            stroke="black" />
    </g>
    <g filter="url(#filter1_i_896_499)">
        <path fill-rule="evenodd" clip-rule="evenodd"
            d="M0 158.583L22 140.583C44 122.583 89 86.5835 133 74.5835C178 62.5835 222 74.5835 267 56.5835C311 38.5835 356 -9.4165 400 14.5835C444 38.5835 489 134.583 533 170.583C578 206.583 622 182.583 667 158.583C711 134.583 756 110.584 800 116.584C844 122.584 889 158.584 933 134.584C978 110.584 1022 26.5835 1067 26.5835C1111 26.5835 1156 110.583 1178 152.583L1200 194.583V266.583H1178C1156 266.583 1111 266.583 1067 266.583C1022 266.583 978 266.583 933 266.583C889 266.583 844 266.583 800 266.583C756 266.583 711 266.583 667 266.583C622 266.583 578 266.583 533 266.583C489 266.583 444 266.583 400 266.583C356 266.583 311 266.583 267 266.583C222 266.583 178 266.583 133 266.583C89 266.583 44 266.583 22 266.583H0V158.583Z"
            fill="#282A2D" />
        <path fill-rule="evenodd" clip-rule="evenodd"
            d="M0 158.583L22 140.583C44 122.583 89 86.5835 133 74.5835C178 62.5835 222 74.5835 267 56.5835C311 38.5835 356 -9.4165 400 14.5835C444 38.5835 489 134.583 533 170.583C578 206.583 622 182.583 667 158.583C711 134.583 756 110.584 800 116.584C844 122.584 889 158.584 933 134.584C978 110.584 1022 26.5835 1067 26.5835C1111 26.5835 1156 110.583 1178 152.583L1200 194.583V266.583H1178C1156 266.583 1111 266.583 1067 266.583C1022 266.583 978 266.583 933 266.583C889 266.583 844 266.583 800 266.583C756 266.583 711 266.583 667 266.583C622 266.583 578 266.583 533 266.583C489 266.583 444 266.583 400 266.583C356 266.583 311 266.583 267 266.583C222 266.583 178 266.583 133 266.583C89 266.583 44 266.583 22 266.583H0V158.583Z"
            stroke="black" />
    </g>
    <defs>
        <filter id="filter0_i_896_499" x="0" y="0" width="1200" height="271.066" filterUnits="userSpaceOnUse"
            color-interpolation-filters="sRGB">
            <feFlood flood-opacity="0" result="BackgroundImageFix" />
            <feBlend mode="normal" in="SourceGraphic" in2="BackgroundImageFix" result="shape" />
            <feColorMatrix in="SourceAlpha" type="matrix" values="0 0 0 0 0 0 0 0 0 0 0 0 0 0 0 0 0 0 127 0"
                result="hardAlpha" />
            <feOffset dy="4" />
            <feGaussianBlur stdDeviation="38" />
            <feComposite in2="hardAlpha" operator="arithmetic" k2="-1" k3="1" />
            <feColorMatrix type="matrix" values="0 0 0 0 0 0 0 0 0 0 0 0 0 0 0 0 0 0 0.25 0" />
            <feBlend mode="normal" in2="shape" result="effect1_innerShadow_896_499" />
        </filter>
        <filter id="filter1_i_896_499" x="0" y="8" width="1200" height="262.584" filterUnits="userSpaceOnUse"
            color-interpolation-filters="sRGB">
            <feFlood flood-opacity="0" result="BackgroundImageFix" />
            <feBlend mode="normal" in="SourceGraphic" in2="BackgroundImageFix" result="shape" />
            <feColorMatrix in="SourceAlpha" type="matrix" values="0 0 0 0 0 0 0 0 0 0 0 0 0 0 0 0 0 0 127 0"
                result="hardAlpha" />
            <feOffset dy="4" />
            <feGaussianBlur stdDeviation="32" />
            <feComposite in2="hardAlpha" operator="arithmetic" k2="-1" k3="1" />
            <feColorMatrix type="matrix" values="0 0 0 0 0 0 0 0 0 0 0 0 0 0 0 0 0 0 0.25 0" />
            <feBlend mode="normal" in2="shape" result="effect1_innerShadow_896_499" />
        </filter>
    </defs>
</svg>